<svg width="1566" height="293" fill="none" xmlns="http://www.w3.org/2000/svg"><path d="m21.31 260.57-6.48-2.16c-3.24-.9-5.49-1.35-6.75-1.35-2.16-.54-3.96-1.71-5.4-3.51-1.26-1.8-1.89-3.87-1.89-6.21 0-1.26.09-2.25.27-2.97.54-.54.99-1.98 1.35-4.32.54-2.16.81-4.14.81-5.94.54-1.08.99-2.16 1.35-3.24.36-1.26.81-2.97 1.35-5.13 1.44-7.92 4.77-21.24 9.99-39.96 5.22-18.72 8.46-28.71 9.72-29.97v-2.97c0-.54.18-1.62.54-3.24.36-1.62 1.17-3.33 2.43-5.13.72-2.16 1.26-4.23 1.62-6.21.54-2.16.9-3.78 1.08-4.86.72-.9 1.89-3.6 3.51-8.1 1.8-4.5 2.97-7.47 3.51-8.91 1.26-3.42 2.79-7.38 4.59-11.88 1.98-4.68 3.33-7.74 4.05-9.18v-1.35c.36-.36 1.26-2.16 2.7-5.4 1.62-3.42 2.97-6.3 4.05-8.64 1.26-2.88 4.59-10.35 9.99-22.41.36-.72 1.35-2.79 2.97-6.21s2.43-5.58 2.43-6.48c1.8-1.98 3.78-2.97 5.94-2.97 2.7 0 5.22 1.26 7.56 3.78 2.52 2.34 4.5 4.86 5.94 7.56l2.7 4.32-9.99 19.44a359.9 359.9 0 0 0-7.29 13.77c-2.16 4.14-3.24 6.57-3.24 7.29-.54 1.26-1.53 3.87-2.97 7.83-1.26 3.96-2.7 8.46-4.32 13.5-2.52 6.84-4.59 11.97-6.21 15.39-1.44 2.88-2.16 4.59-2.16 5.13 0-.72 9.99-1.08 29.97-1.08 3.06 0 8.64-.09 16.74-.27 8.1-.18 13.23-.45 15.39-.81l14.04-1.35 7.56-24.03c1.8-6.3 5.76-18.54 11.88-36.72 2.52-7.56 5.4-13.14 8.64-16.74 3.24-3.78 6.12-5.67 8.64-5.67.72 0 2.52 1.08 5.4 3.24 3.06 1.98 4.86 3.69 5.4 5.13 1.98 1.98 2.97 4.05 2.97 6.21 0 2.52-1.44 6.03-4.32 10.53-2.16 3.78-5.22 10.89-9.18 21.33-1.62 4.86-2.61 7.65-2.97 8.37 0 3.78-.9 6.57-2.7 8.37-.72.72-1.98 3.33-3.78 7.83-1.8 4.32-2.7 6.84-2.7 7.56 0 1.44-.27 3.06-.81 4.86-.54 1.62-1.17 2.79-1.89 3.51l-1.89 6.48c-6.3 22.86-11.25 38.7-14.85 47.52 0 .9-.45 2.52-1.35 4.86-.9 2.34-1.35 3.96-1.35 4.86-.36 1.26-1.17 3.78-2.43 7.56-1.26 3.78-1.89 6.03-1.89 6.75-1.26 5.58-2.52 12.15-3.78 19.71-1.26 7.56-2.07 12.87-2.43 15.93-3.06.36-5.58.18-7.56-.54-1.98-.72-3.87-1.71-5.67-2.97-1.8-1.08-3.06-1.8-3.78-2.16-4.32-2.34-6.48-5.58-6.48-9.72 0-2.34.81-5.13 2.43-8.37.54-.9 2.25-6.75 5.13-17.55l2.43-9.99c1.44-3.96 2.7-7.74 3.78-11.34 1.08-3.78 2.07-7.02 2.97-9.72 2.88-10.44 4.68-16.02 5.4-16.74v-2.7c-.54-.9-5.85-1.35-15.93-1.35-10.98 0-22.41.72-34.29 2.16H48.58c-.9 1.98-3.51 9.9-7.83 23.76-4.32 13.68-6.75 22.41-7.29 26.19-1.26 5.94-3.24 14.13-5.94 24.57-2.7 10.62-4.77 18.36-6.21 23.22Zm163.955-15.12c-7.02-5.22-12.42-9.9-16.2-14.04-3.78-4.14-5.76-8.1-5.94-11.88-.18-.9-.27-2.52-.27-4.86 0-5.04.45-11.34 1.35-18.9.9-7.56 1.8-13.59 2.7-18.09.72-.72 1.08-1.8 1.08-3.24.18-1.44.18-2.34 0-2.7 0-.54.45-2.34 1.35-5.4 2.16-6.66 3.69-12.24 4.59-16.74 4.86-14.76 9.63-26.55 14.31-35.37 4.68-8.82 9.9-17.1 15.66-24.84 12.24-12.6 25.29-22.14 39.15-28.62 7.02-4.14 12.06-6.21 15.12-6.21.54 0 1.35.18 2.43.54 22.14 4.86 35.37 18.9 39.69 42.12 1.62 10.98 2.43 19.26 2.43 24.84 0 9-1.62 18.09-4.86 27.27s-9.09 20.7-17.55 34.56c-7.2 14.4-15.39 26.73-24.57 36.99-9 10.08-18.09 17.64-27.27 22.68-9 5.04-17.46 7.56-25.38 7.56-7.02 0-12.96-1.89-17.82-5.67Zm21.6-17.82c4.32-.54 7.65-1.35 9.99-2.43 2.52-1.08 5.04-2.88 7.56-5.4 2.7-2.7 7.02-7.47 12.96-14.31 7.56-8.64 12.87-14.94 15.93-18.9 3.06-4.14 5.85-9.27 8.37-15.39 2.7-6.12 5.67-14.94 8.91-26.46l1.62-6.21c1.08-3.78 1.8-6.84 2.16-9.18.54-2.52.81-5.22.81-8.1l-.27-17.01c-.18-3.24-.81-6.75-1.89-10.53-1.08-3.78-2.34-6.48-3.78-8.1-1.44-1.62-3.42-2.97-5.94-4.05-2.34-1.26-4.77-1.89-7.29-1.89-1.8 0-3.87.45-6.21 1.35-3.42 1.44-8.19 5.31-14.31 11.61-6.12 6.12-11.61 12.42-16.47 18.9-4.68 6.48-7.02 10.8-7.02 12.96 0 .18-.09.72-.27 1.62-.18.9-.54 1.71-1.08 2.43-4.68 5.04-9.45 15.66-14.31 31.86-4.68 16.2-7.38 30.33-8.1 42.39-.18 5.22-.18 8.82 0 10.8.36 1.98 1.35 4.23 2.97 6.75 1.26 1.98 3.51 3.87 6.75 5.67 3.42 1.62 6.39 2.16 8.91 1.62Zm118.499 27.81c-4.68-2.88-8.19-5.94-10.53-9.18-2.34-3.06-3.51-6.03-3.51-8.91 0-3.78 1.89-6.84 5.67-9.18.72-.36 1.71-.54 2.97-.54 1.8 0 3.69.36 5.67 1.08 2.16.54 3.78 1.35 4.86 2.43 4.68 4.32 10.26 6.48 16.74 6.48 2.88 0 7.02-.63 12.42-1.89 7.02-2.16 12.51-4.86 16.47-8.1 4.14-3.24 9-8.28 14.58-15.12 3.42-4.5 5.94-9 7.56-13.5 1.8-4.68 2.7-8.91 2.7-12.69 0-4.14-.99-7.38-2.97-9.72-3.6-4.86-7.65-8.46-12.15-10.8-4.32-2.52-9.45-3.78-15.39-3.78-5.22 0-10.35.72-15.39 2.16l-15.66 3.24c-.72.18-1.71.36-2.97.54-1.08 0-2.7 2.61-4.86 7.83-2.16 5.22-5.85 15.12-11.07 29.7-3.78 10.62-6.93 18.27-9.45 22.95-2.52 4.5-4.77 6.75-6.75 6.75-2.16 0-4.5-1.98-7.02-5.94-.54-.9-1.71-2.7-3.51-5.4-1.62-2.7-2.43-5.31-2.43-7.83 0-1.26.45-2.79 1.35-4.59.9-1.62 1.62-3.24 2.16-4.86.72-1.62 1.44-3.87 2.16-6.75 2.34-7.02 9.09-24.48 20.25-52.38 11.34-27.9 20.16-48.96 26.46-63.18 4.5-10.26 5.85-15.66 4.05-16.2 0-.54-.27-1.35-.81-2.43s-.72-1.89-.54-2.43c0-1.08 3.15-2.7 9.45-4.86 6.48-2.16 10.89-3.06 13.23-2.7h1.62c2.34 0 3.51-.45 3.51-1.35.36 0 1.98-.18 4.86-.54 3.06-.36 6.3-.36 9.72 0 12.78 1.08 22.86 4.77 30.24 11.07 7.38 6.12 10.98 15.21 10.8 27.27-.36 4.68-2.97 11.07-7.83 19.17-4.86 8.1-10.17 14.76-15.93 19.98-2.88 2.52-6.21 5.22-9.99 8.1-3.6 2.7-5.94 4.41-7.02 5.13l6.75 2.43c8.46 3.24 15.03 7.2 19.71 11.88 4.68 4.68 8.01 11.07 9.99 19.17.36 1.8.54 3.42.54 4.86 0 3.96-.72 8.46-2.16 13.5-1.26 5.04-2.7 9.45-4.32 13.23a16.616 16.616 0 0 0-2.7 3.51c-.72 1.26-1.17 2.07-1.35 2.43-.18.72-1.8 3.51-4.86 8.37-3.06 4.68-5.76 8.46-8.1 11.34-11.88 10.08-21.69 16.56-29.43 19.44-7.56 3.42-16.56 5.13-27 5.13-9.36 0-16.29-1.44-20.79-4.32Zm19.44-112.05 10.8-2.16c5.4-1.26 9.27-2.34 11.61-3.24l3.24-1.62c1.98-1.08 3.96-2.61 5.94-4.59 11.34-10.62 19.26-20.16 23.76-28.62 4.5-7.38 6.75-12.6 6.75-15.66 0-2.16-.99-4.23-2.97-6.21-3.42-3.96-9.09-5.94-17.01-5.94-3.42 0-6.3.36-8.64 1.08-2.52.72-4.41 1.62-5.67 2.7-1.08.9-1.62 2.34-1.62 4.32 0 1.44-.45 3.06-1.35 4.86-.9 1.62-1.89 2.97-2.97 4.05-.18 1.08-.72 2.16-1.62 3.24-.72 1.08-1.26 1.8-1.62 2.16 0 .36-1.26 2.79-3.78 7.29-2.34 4.5-4.59 9.54-6.75 15.12-5.4 12.78-8.1 20.52-8.1 23.22Zm265.271-93.15c3.96-.36 7.2.9 9.72 3.78 2.7 2.88 4.05 6.21 4.05 9.99 0 1.62-.27 3.15-.81 4.59-2.34 4.68-7.56 17.37-15.66 38.07-8.1 20.52-15.93 40.59-23.49 60.21l-19.44 56.16c-.9 2.52-2.79 7.2-5.67 14.04-2.34 4.14-3.96 8.82-4.86 14.04-.9 3.06-2.34 5.58-4.32 7.56-1.98 2.16-4.05 3.24-6.21 3.24-.9 0-1.8-.27-2.7-.81-8.28-3.06-12.42-7.92-12.42-14.58 0-.54.18-1.71.54-3.51-.36 2.34 2.16-3.15 7.56-16.47 5.58-13.5 10.08-24.84 13.5-34.02 13.32-33.3 19.98-50.58 19.98-51.84 2.16-5.58 3.6-9.54 4.32-11.88 2.16-7.02 4.32-12.6 6.48-16.74l4.59-12.15-95.31 110.16c-1.26 1.08-4.77 4.23-10.53 9.45-4.86 4.86-8.64 8.28-11.34 10.26-1.26.9-3.42 2.52-6.48 4.86-2.88 2.34-5.49 4.23-7.83 5.67-2.34 1.62-4.23 2.43-5.67 2.43-10.26-1.8-15.39-5.94-15.39-12.42 0-2.88.72-6.12 2.16-9.72 1.44-3.78 2.34-6.21 2.7-7.29 2.16-6.84 3.51-12.33 4.05-16.47 1.98-8.1 4.77-17.82 8.37-29.16.36-1.44 1.26-4.77 2.7-9.99 1.62-5.4 2.61-10.35 2.97-14.85 2.52-4.86 5.94-12.78 10.26-23.76l3.78-9.72c.72-1.44 2.34-5.85 4.86-13.23 1.62-5.58 3.33-10.26 5.13-14.04l2.7-5.13c3.42-6.66 6.03-12.06 7.83-16.2 1.98-4.32 3.06-7.92 3.24-10.8 0-2.34.81-4.05 2.43-5.13 1.62-1.26 3.6-1.89 5.94-1.89 3.06 0 5.85.9 8.37 2.7 2.52 1.62 4.14 3.78 4.86 6.48.72 1.98 1.08 4.23 1.08 6.75 0 2.34-.36 4.5-1.08 6.48l-22.41 56.97-24.57 64.8-6.48 16.2 54.54-54.54c6.12-6.3 11.88-13.05 17.28-20.25 4.68-6.12 9.18-11.52 13.5-16.2s9.63-10.17 15.93-16.47l6.21-6.48 34.29-36.45c2.34-1.8 4.59-2.7 6.75-2.7Zm-81.27 192.51v.27-.27ZM724.907 40.79c-7.2.54-13.14-1.17-17.82-5.13-4.5-3.96-8.46-10.17-11.88-18.63-.54-1.44-.81-2.7-.81-3.78 0-1.8.63-3.6 1.89-5.4.9-1.26 2.25-2.07 4.05-2.43 1.8-.54 3.42-.63 4.86-.27 3.78 1.08 6.57 2.43 8.37 4.05 1.98 1.44 2.97 3.6 2.97 6.48 0 .72.18 1.44.54 2.16.54.72.81 1.17.81 1.35.72 2.52 2.16 3.78 4.32 3.78.36 0 1.26-.18 2.7-.54 4.5-1.62 8.1-3.06 10.8-4.32 2.88-1.44 5.49-3.15 7.83-5.13 4.86-4.32 9.36-7.83 13.5-10.53 1.62-1.26 3.51-1.71 5.67-1.35 3.6.54 5.49 1.35 5.67 2.43l.54.54c1.26 1.98 1.89 4.59 1.89 7.83v.27c0 .72-.18 1.62-.54 2.7-.36.9-.81 1.71-1.35 2.43-.9 2.16-2.16 3.96-3.78 5.4-1.62 1.44-4.41 3.51-8.37 6.21-4.68 3.06-11.34 6.48-19.98 10.26-2.16.9-4.5 1.44-7.02 1.62h-4.86Zm50.49 9.45c3.96-.36 7.2.9 9.72 3.78 2.7 2.88 4.05 6.21 4.05 9.99 0 1.62-.27 3.15-.81 4.59-2.34 4.68-7.56 17.37-15.66 38.07-8.1 20.52-15.93 40.59-23.49 60.21l-19.44 56.16c-.9 2.52-2.79 7.2-5.67 14.04-2.34 4.14-3.96 8.82-4.86 14.04-.9 3.06-2.34 5.58-4.32 7.56-1.98 2.16-4.05 3.24-6.21 3.24-.9 0-1.8-.27-2.7-.81-8.28-3.06-12.42-7.92-12.42-14.58 0-.54.18-1.71.54-3.51-.36 2.34 2.16-3.15 7.56-16.47 5.58-13.5 10.08-24.84 13.5-34.02 13.32-33.3 19.98-50.58 19.98-51.84 2.16-5.58 3.6-9.54 4.32-11.88 2.16-7.02 4.32-12.6 6.48-16.74l4.59-12.15-95.31 110.16c-1.26 1.08-4.77 4.23-10.53 9.45-4.86 4.86-8.64 8.28-11.34 10.26-1.26.9-3.42 2.52-6.48 4.86-2.88 2.34-5.49 4.23-7.83 5.67-2.34 1.62-4.23 2.43-5.67 2.43-10.26-1.8-15.39-5.94-15.39-12.42 0-2.88.72-6.12 2.16-9.72 1.44-3.78 2.34-6.21 2.7-7.29 2.16-6.84 3.51-12.33 4.05-16.47 1.98-8.1 4.77-17.82 8.37-29.16.36-1.44 1.26-4.77 2.7-9.99 1.62-5.4 2.61-10.35 2.97-14.85 2.52-4.86 5.94-12.78 10.26-23.76l3.78-9.72c.72-1.44 2.34-5.85 4.86-13.23 1.62-5.58 3.33-10.26 5.13-14.04l2.7-5.13c3.42-6.66 6.03-12.06 7.83-16.2 1.98-4.32 3.06-7.92 3.24-10.8 0-2.34.81-4.05 2.43-5.13 1.62-1.26 3.6-1.89 5.94-1.89 3.06 0 5.85.9 8.37 2.7 2.52 1.62 4.14 3.78 4.86 6.48.72 1.98 1.08 4.23 1.08 6.75 0 2.34-.36 4.5-1.08 6.48l-22.41 56.97-24.57 64.8-6.48 16.2 54.54-54.54c6.12-6.3 11.88-13.05 17.28-20.25 4.68-6.12 9.18-11.52 13.5-16.2s9.63-10.17 15.93-16.47l6.21-6.48 34.29-36.45c2.34-1.8 4.59-2.7 6.75-2.7Zm-81.27 192.51v.27-.27ZM951.03 135.83c-.54.9-1.98 2.07-4.32 3.51 3.06 1.98 5.76 4.14 8.1 6.48 2.52 2.34 4.05 4.41 4.59 6.21 5.22 8.28 7.83 18 7.83 29.16 0 5.76-.63 11.52-1.89 17.28-4.5 8.64-7.2 13.68-8.1 15.12-3.78 7.2-9.54 13.41-17.28 18.63-7.74 5.22-14.85 8.64-21.33 10.26-7.74 2.34-15.39 3.51-22.95 3.51-1.8 0-4.32-.18-7.56-.54-4.5-.36-8.64-1.17-12.42-2.43-3.6-1.08-8.19-3.15-13.77-6.21s-10.26-6.84-14.04-11.34c-3.78-4.5-7.38-9.63-10.8-15.39-1.44-2.16-2.16-4.77-2.16-7.83 0-3.42 1.08-6.75 3.24-9.99s4.77-5.85 7.83-7.83c2.34-1.44 4.59-2.16 6.75-2.16 1.44 0 2.7.27 3.78.81 1.26.54 2.16.9 2.7 1.08 3.42.54 5.58 2.34 6.48 5.4.9 3.06 1.44 4.68 1.62 4.86-1.26 3.78-2.25 6.39-2.97 7.83-.54 1.44-1.53 2.61-2.97 3.51 2.7 4.14 6.03 7.65 9.99 10.53 2.16 1.62 5.22 3.06 9.18 4.32 4.14 1.26 7.02 1.71 8.64 1.35.18-.18.63-.27 1.35-.27.9 0 1.8.18 2.7.54 1.08.18 1.71.18 1.89 0 .9-.36 2.52-.54 4.86-.54 2.52-.18 4.5-.63 5.94-1.35 5.76-1.62 10.89-3.87 15.39-6.75 4.5-3.06 8.73-7.02 12.69-11.88 2.7-3.78 4.5-7.11 5.4-9.99 1.08-3.06 1.8-7.11 2.16-12.15.36-2.7 0-5.76-1.08-9.18s-1.8-5.85-2.16-7.29l-3.51-2.7-5.94-1.62c-4.68-1.44-8.01-2.16-9.99-2.16-2.16 0-4.41.36-6.75 1.08-3.06.9-5.13 1.35-6.21 1.35-1.98 0-3.78-.45-5.4-1.35-1.44-1.08-2.34-1.71-2.7-1.89-2.52-.9-4.77-2.79-6.75-5.67-1.8-3.06-2.7-6.03-2.7-8.91 0-1.62.45-3.15 1.35-4.59 1.08-1.98 2.79-3.51 5.13-4.59 2.34-1.26 4.95-1.71 7.83-1.35.72.18 1.71.27 2.97.27 2.52 0 5.58-.72 9.18-2.16 2.16-.72 5.58-2.7 10.26-5.94s7.02-4.77 7.02-4.59c5.94-7.56 10.17-13.23 12.69-17.01 2.7-3.96 4.86-8.28 6.48-12.96 1.98-3.6 2.97-7.47 2.97-11.61 0-2.34-.45-4.59-1.35-6.75-.18-1.08-1.44-1.98-3.78-2.7-2.34-.72-4.5-1.08-6.48-1.08-1.26 0-2.07.09-2.43.27-2.88.18-7.11 1.26-12.69 3.24-5.58 1.8-8.91 3.15-9.99 4.05-9.72 8.28-15.57 13.86-17.55 16.74-.72 1.26-1.98 2.25-3.78 2.97-1.62.72-3.42 1.08-5.4 1.08-3.42 0-5.67-.9-6.75-2.7-1.98-3.24-2.97-6.66-2.97-10.26 0-4.14 1.53-8.1 4.59-11.88 3.42-4.32 6.39-7.74 8.91-10.26 2.52-2.7 5.49-5.04 8.91-7.02l5.13-2.97c.72-.36 2.34-1.26 4.86-2.7 2.7-1.44 5.22-2.52 7.56-3.24.72-.18 2.79-.9 6.21-2.16 3.6-1.26 7.38-1.89 11.34-1.89 1.62 0 2.88.09 3.78.27 6.12.54 10.62 1.62 13.5 3.24 3.06 1.62 7.74 5.13 14.04 10.53 2.7 1.8 4.86 4.95 6.48 9.45 1.62 4.5 2.43 9.63 2.43 15.39 0 8.64-1.62 16.47-4.86 23.49-1.44 2.52-2.43 4.41-2.97 5.67-.36.72-1.53 2.88-3.51 6.48-1.8 3.42-3.87 6.48-6.21 9.18-1.62 2.16-5.04 6.39-10.26 12.69Zm26.036 109.08c-1.98-1.08-3.42-2.07-4.32-2.97-.72-.9-1.08-2.07-1.08-3.51 0-1.8.72-4.32 2.16-7.56 1.62-3.42 4.32-8.73 8.1-15.93 1.08-2.34 3.15-6.48 6.21-12.42 7.74-14.76 11.61-25.65 11.61-32.67-.18-.36-.27-.9-.27-1.62 0-1.8 1.444-3.42 4.324-4.86.54-.54 2.43-2.07 5.67-4.59 3.42-2.52 6.12-5.4 8.1-8.64 2.34-5.4 5.31-11.34 8.91-17.82 3.6-6.66 9.81-17.46 18.63-32.4 8.64-15.84 17.82-30.15 27.54-42.93 1.8-2.52 3.78-4.5 5.94-5.94 2.34-1.44 4.32-2.16 5.94-2.16 5.58 0 11.25 2.16 17.01 6.48 5.94 4.32 9.81 8.64 11.61 12.96.72 1.26 1.08 3.96 1.08 8.1 0 5.58-.63 15.03-1.89 28.35-.36 2.34-.72 6.03-1.08 11.07-.54 8.1-1.35 16.74-2.43 25.92-1.98 20.16-3.42 35.91-4.32 47.25-.9 11.34-1.35 21.96-1.35 31.86 0 5.04.09 8.73.27 11.07v1.89l-.27 6.21c-1.08 1.08-3.24 1.62-6.48 1.62-3.6 0-7.2-.63-10.8-1.89-3.6-1.08-5.58-2.43-5.94-4.05-.18-.18-.45-.36-.81-.54-.36-.18-.54-.99-.54-2.43l.27-5.94.81-15.12 1.35-41.31-3.51.27c-3.6 0-11.25.72-22.95 2.16-11.52 1.44-18.81 2.61-21.87 3.51-1.62 0-3.6 1.08-5.94 3.24-2.34 2.16-4.41 4.95-6.21 8.37-.54 1.8-1.8 4.41-3.78 7.83-1.98 3.24-2.97 5.13-2.97 5.67-1.08.72-2.07 1.71-2.97 2.97-.72 1.08-1.17 1.8-1.35 2.16 0 1.98-1.8 7.11-5.4 15.39-3.42 8.1-6.844 14.76-10.264 19.98l-7.29 10.26-9.45-7.29Zm64.534-92.88 7.56-1.08c3.78-.72 7.11-1.17 9.99-1.35 8.64-2.16 14.58-3.24 17.82-3.24 1.8 0 3.06.18 3.78.54.54.72 1.08 1.26 1.62 1.62.72.18 1.17.27 1.35.27.36-1.44 1.8-11.25 4.32-29.43 2.52-18.18 3.78-29.34 3.78-33.48 0-2.88-.09-5.31-.27-7.29-.18-2.16-.36-3.51-.54-4.05-1.62 0-5.31 4.32-11.07 12.96-5.76 8.46-11.34 18.09-16.74 28.89-4.14 7.38-7.02 11.07-8.64 11.07-1.26 1.26-3.96 5.49-8.1 12.69-4.14 7.2-5.76 11.16-4.86 11.88Zm225.44-91.53c2.88.18 5.13 1.53 6.75 4.05 1.62 2.34 2.43 5.4 2.43 9.18 0 7.74-2.79 15.57-8.37 23.49-4.14 4.14-6.48 7.65-7.02 10.53-3.96 4.68-9.09 10.62-15.39 17.82-6.12 7.02-9.81 10.98-11.07 11.88-4.32 3.78-8.73 7.83-13.23 12.15-4.5 4.14-7.29 6.93-8.37 8.37-3.24 3.6-5.22 5.67-5.94 6.21 1.8 7.56 3.69 14.13 5.67 19.71 1.98 5.4 4.77 11.61 8.37 18.63 2.16 4.5 4.5 8.55 7.02 12.15 2.7 3.6 5.13 6.03 7.29 7.29.54.54 1.53.81 2.97.81 1.62 0 2.52-.27 2.7-.81 2.16-.54 3.51.36 4.05 2.7.72 2.16 1.08 4.5 1.08 7.02.18 2.52.27 4.14.27 4.86.36 1.26-.36 2.52-2.16 3.78-1.8 1.44-4.14 2.52-7.02 3.24-2.88.9-5.58 1.17-8.1.81-3.78-.36-7.92-2.34-12.42-5.94-4.32-3.6-8.37-8.91-12.15-15.93-7.38-10.08-13.68-22.41-18.9-36.99-1.62 1.62-2.43 2.52-2.43 2.7-5.22 5.04-15.39 15.84-30.51 32.4-15.12 16.38-23.13 25.56-24.03 27.54-1.26 2.16-3.15 3.24-5.67 3.24-.9 0-1.62-.09-2.16-.27-.36.18-1.26.27-2.7.27-3.6 0-5.76-.18-6.48-.54-.18-.18-.45-.72-.81-1.62l-.81-4.05c-.54-.72-.81-1.89-.81-3.51 0-3.24 1.08-7.83 3.24-13.77 1.26-2.7 2.61-4.86 4.05-6.48 1.62-1.8 5.22-5.22 10.8-10.26l9.45-8.91 7.83-7.29 5.67-5.67c.18-.54.9-1.53 2.16-2.97 1.26-1.44 2.52-2.97 3.78-4.59 3.24-2.52 8.37-7.29 15.39-14.31l7.29-6.75a130.28 130.28 0 0 1-2.43-13.77c-.9-5.94-1.89-11.25-2.97-15.93-1.08-4.86-1.8-7.47-2.16-7.83-.18-.54-.09-.99.27-1.35.36-.36.63-.54.81-.54.36-.36.54-.72.54-1.08 0-.36-.18-.81-.54-1.35-.36-.54-.63-1.08-.81-1.62-.36-1.08-.9-3.6-1.62-7.56-.72-4.14-1.35-8.82-1.89-14.04-1.62-15.3-2.61-24.03-2.97-26.19-.36-.36-.63-.81-.81-1.35v-1.35c.36-1.08 1.44-2.43 3.24-4.05 1.8-1.62 2.88-2.61 3.24-2.97 1.8-1.26 3.87-1.89 6.21-1.89 3.78 0 7.11 1.62 9.99 4.86 3.06 3.24 4.59 7.29 4.59 12.15 0 4.68.54 7.56 1.62 8.64-.36.72-.27 4.68.27 11.88.72 7.2 1.35 11.7 1.89 13.5-.72 2.16-.72 3.69 0 4.59.18 1.08.45 2.97.81 5.67.36 2.52.45 4.23.27 5.13-.18.9.09 2.79.81 5.67.72 2.7 1.26 4.68 1.62 5.94l1.08 3.24.81-1.08 6.21-6.48c8.64-8.64 15.48-15.84 20.52-21.6 16.74-19.98 27.36-34.65 31.86-44.01 1.08-2.34 1.98-3.87 2.7-4.59.72-.72 1.53-1.08 2.43-1.08l2.7.27Zm16.64 186.57c-1.26-1.8-3.42-3.06-6.48-3.78-2.88-.54-7.56-.63-14.04-.27-3.78.54-7.65-.09-11.61-1.89-3.78-1.8-5.31-3.87-4.59-6.21.18-2.34 2.79-4.68 7.83-7.02 5.22-2.52 11.43-3.87 18.63-4.05l11.34-.27 2.7-5.4c.54-1.08.9-2.16 1.08-3.24.18-1.26.45-2.34.81-3.24l2.43-9.72 4.05-12.96c5.4-16.38 8.91-27.9 10.53-34.56.9-2.16 2.34-6.48 4.32-12.96 1.98-6.48 3.51-11.79 4.59-15.93 8.28-25.38 11.7-38.25 10.26-38.61-1.8-.18-6.57.18-14.31 1.08-7.74.72-12.06 1.35-12.96 1.89-.9 1.26-2.43 1.08-4.59-.54-2.16-1.62-3.51-3.42-4.05-5.4-.18-.54-.27-1.44-.27-2.7 0-2.52.63-4.14 1.89-4.86 1.8-1.62 6.39-3.42 13.77-5.4 7.56-1.98 14.58-3.42 21.06-4.32 3.06-.36 6.12-.99 9.18-1.89 3.24-1.08 5.67-2.34 7.29-3.78 3.78-1.26 6.93-1.8 9.45-1.62 1.26.9 4.32 1.35 9.18 1.35 4.14 0 7.29-.09 9.45-.27 4.68-.36 7.92-.54 9.72-.54 10.8 0 17.28 2.52 19.44 7.56.36 1.8.54 3.15.54 4.05 0 2.34-.72 4.23-2.16 5.67-1.26 1.44-3.06 2.07-5.4 1.89-3.24.9-9.27 1.44-18.09 1.62-11.88 1.08-18.27 2.34-19.17 3.78-.9.9-1.62 1.71-2.16 2.43-.36.72-.81 1.44-1.35 2.16.18 1.62-1.44 7.47-4.86 17.55l-4.86 14.31c-5.04 15.66-8.28 25.29-9.72 28.89a43.547 43.547 0 0 0-2.7 9.45c-1.44 4.86-2.79 9.54-4.05 14.04a204.79 204.79 0 0 1-3.51 12.42l-10.53 37.53 16.2-1.35c10.62-1.08 17.01-1.62 19.17-1.62 1.8 0 2.97.18 3.51.54.54.36.9.99 1.08 1.89.18.72.36 1.26.54 1.62 1.62 2.16 2.43 4.23 2.43 6.21 0 3.24-2.16 5.85-6.48 7.83-4.32 1.98-10.26 2.88-17.82 2.7-8.1.36-14.67.63-19.71.81-5.04.36-8.19.81-9.45 1.35-1.26.54-1.89 1.44-1.89 2.7.18 1.62-.36 2.88-1.62 3.78-1.26 1.08-2.88 1.62-4.86 1.62-3.42 0-6.48-1.44-9.18-4.32Zm254.66-42.39c3.6 1.08 6.39 3.15 8.37 6.21 1.98 2.88 2.97 6.03 2.97 9.45-.54 8.1-2.88 17.01-7.02 26.73-4.14 9.72-9.36 20.61-15.66 32.67l-4.32 9.99c-1.44 1.44-3.06 2.16-4.86 2.16-3.96 0-8.55-3.78-13.77-11.34-.36-1.8-.54-3.15-.54-4.05 0-3.78 1.53-8.37 4.59-13.77l5.67-10.53 3.78-7.56c1.98-3.6 3.51-6.66 4.59-9.18 1.08-2.7 1.8-5.04 2.16-7.02l-36.72 3.51-1.08-.54c-.36 0-.81.09-1.35.27-.54.18-1.17.36-1.89.54l-17.01.54h-2.97c-1.08 0-1.89.09-2.43.27-3.24.72-6.66 1.08-10.26 1.08-2.7 0-5.04.18-7.02.54l-44.55 4.32-11.88 1.62c-2.52 8.64-5.85 21.87-9.99 39.69l-1.62 6.21c-.18 1.8-.9 3.06-2.16 3.78-1.08.9-3.15 1.8-6.21 2.7h-4.86c-5.94 0-8.91-3.42-8.91-10.26 0-2.52.27-4.86.81-7.02l5.94-22.41 4.59-20.79 3.78-11.07 21.06-4.05c2.88-.72 7.02-3.51 12.42-8.37 5.4-4.86 10.17-10.17 14.31-15.93 9.36-12.78 16.65-25.11 21.87-36.99 5.22-11.88 11.52-28.98 18.9-51.3l5.94-18.09 1.08-1.89 2.7-8.91c-.72-.18-1.53-.27-2.43-.27-.9 0-1.62-.09-2.16-.27-3.06-1.26-5.49-3.33-7.29-6.21-1.62-2.88-2.43-5.94-2.43-9.18 0-1.98.18-3.42.54-4.32l3.24-2.97c.9-.18 2.07-.09 3.51.27 1.44.18 2.79.27 4.05.27 1.98 0 3.51-.18 4.59-.54l12.42-1.89c7.02-1.08 11.34-1.89 12.96-2.43 12.6-1.26 22.68-2.07 30.24-2.43 7.56-.54 15.75-.81 24.57-.81 3.6 0 7.11 1.17 10.53 3.51 3.42 2.34 5.49 5.04 6.21 8.1.36 6.3-3.33 21.6-11.07 45.9-7.56 24.3-14.94 44.73-22.14 61.29-1.98 6.12-6.03 16.83-12.15 32.13l-5.13 13.23c.18 0 2.52-.81 7.02-2.43 4.68-1.8 9.09-2.7 13.23-2.7 1.08 0 2.16.18 3.24.54Zm-45.63 4.05c2.7-11.88 4.59-19.62 5.67-23.22 1.08-3.6 2.97-8.37 5.67-14.31l17.82-47.52 5.4-16.2c6.84-19.8 10.98-32.85 12.42-39.15l-6.48-.27c-7.56 0-15.39.54-23.49 1.62-8.1.9-13.86 2.16-17.28 3.78l-3.24 9.99c-1.62 5.04-5.85 16.02-12.69 32.94-6.84 16.92-15.12 34.92-24.84 54-9.54 18.9-19.08 33.66-28.62 44.28 7.02-.18 20.07-1.08 39.15-2.7 19.26-1.8 29.43-2.88 30.51-3.24Z" fill="#fff"/></svg>