<svg xmlns="http://www.w3.org/2000/svg" version="1.1" xmlns:xlink="http://www.w3.org/1999/xlink" xmlns:svgjs="http://svgjs.com/svgjs" width="64" height="64"><svg version="1.1" id="SvgjsSvg1000" xmlns="http://www.w3.org/2000/svg" xmlns:xlink="http://www.w3.org/1999/xlink" x="0px" y="0px" viewBox="0 0 64 64" style="enable-background:new 0 0 64 64;" xml:space="preserve">
<style type="text/css">
	.st0{fill:#1D70B7;}
	.st1{fill:#F8B133;}
	.st2{fill:#223972;}
	.st3{fill:#FFD400;}
</style>
<g>
	<path class="st0" d="M61.9,4.1c-3.5,0.1-7,0.2-10.3,0.2c-3.4,0-6.7-0.1-10.2-0.2l0.1,1.8l4.7,1.5c0.7,0.2,1.1,0.6,1.1,1.3
		c0.1,2,0.1,4.4,0.1,7.1v14.3H16.6V15.8c0-2.7,0-5.1,0.1-7.1c0-0.7,0.4-1.1,1.1-1.3l4.8-1.5l-0.2-1.8c-3.3,0.1-6.6,0.2-10,0.2
		C9.1,4.2,5.6,4.2,2,4.1L2,5.9l5.2,1.6c0.6,0.2,1,0.7,1,1.4c0.1,1.8,0.1,4.2,0.1,7v16h47.3V16c0-2.8,0-5.2,0.1-7
		c0-0.7,0.4-1.2,1-1.4L62,5.9L61.9,4.1z"></path>
	<path class="st1" d="M61.9,59.9c-3.5-0.1-7-0.2-10.3-0.2c-3.4,0-6.7,0.1-10.2,0.2l0.1-1.8l4.7-1.5c0.7-0.2,1.1-0.6,1.1-1.3
		c0.1-2,0.1-4.4,0.1-7.1V33.9H16.6v14.3c0,2.7,0,5.1,0.1,7.1c0,0.7,0.4,1.1,1.1,1.3l4.8,1.5l-0.2,1.8c-3.3-0.1-6.6-0.2-10-0.2
		c-3.3,0-6.8,0.1-10.5,0.2L2,58.1l5.2-1.6c0.6-0.2,1-0.7,1-1.4c0.1-1.8,0.1-4.2,0.1-7V32h47.3v16c0,2.8,0,5.2,0.1,7
		c0,0.7,0.4,1.2,1,1.4l5.3,1.6L61.9,59.9z"></path>
</g>
<path class="st2" d="M59.7,55.2c0.2,0,0.4,0,0.6-0.1l0,0.1c-0.9-1-2.1-1.7-3.1-2.7c-1.6-1.3-2.9-2.8-4.8-3.7
	c-4.2-1.7-8.5-3.3-12.2-5.9c-0.1-0.1-0.2-0.2-0.4-0.4c-0.1-0.1-0.1-0.3-0.1-0.5c0-0.1,0.1-0.2,0.1-0.2c1.5-1.7,2-4.1,3.7-5.7
	c0.2-0.2,0.4-0.3,0.7-0.3c0.3,0,0.4,0.1,0.6,0.2l0.4,0.3l-0.4,0.2c0-0.3,0-0.4,0-0.7c-0.2-0.4-0.4-0.8-0.9-0.8
	c-0.2-0.1-0.4-0.2-0.5-0.4c-0.2-0.2-0.5-0.3-0.8-0.3l-0.4-0.1c-0.1,0-0.2,0-0.3,0c-1.6-0.2-2.9,0.6-4.3,1.3
	c-0.8,0.3-1.9,1.1-2.8,0.9c-2.7-0.7-3.7-3.7-5.1-5.9c-1.6-3-2.9-5.9-4.3-8.9c-1.2-3.1-3.7-5.2-5.8-7.7c-1.4-1.7-2.7-3.4-4.1-5.1
	S13,5.3,11.4,3.8l0.4-0.1c-0.1,0.1-0.1,0.2-0.1,0.4l0,0C11.9,4.5,12,4.8,12.3,5c0.7,0.9,1,2,1.7,2.9c0.1,0.2,0.1,0.5-0.1,0.6
	c-0.1,0.1-0.2,0.1-0.3,0c-0.4-0.2-0.9-0.5-1.2-0.9c-1.8-1.4-3.5-2.9-5.1-4.5l0.4,0C7.6,3.3,7.5,3.7,7.6,3.9C7.7,5.3,9,5.8,9.9,6.6
	c0.2,0.3,0.3,0.5,0.4,0.9c0,0.1,0,0.1-0.1,0.2c-0.1,0.1-0.3,0.1-0.5,0C7.9,7,5.4,5,3.9,4.1l0.3-0.2c0,0.6,0,1.2,0.4,1.6
	c0.9,0.8,2.2,1.4,2.5,2.7c0.1,0.8-1.3-0.2-1.6-0.4C4.9,7.4,4.5,6.5,3.8,6.4l0-0.1l0.4,1c0.3,1,0.9,2,1.6,2.7
	C5.1,9.3,4.5,8.4,4.1,7.3l-0.4-1l0,0c0-0.1,0-0.1,0.1-0.1c0,0,0,0,0.1,0c0.4,0,0.8,0.3,1.1,0.6c0.5,0.5,1.1,1,1.9,1.3
	c0.1,0,0.1,0,0.2,0L6.9,8.2c-0.2-0.9-1.2-1.5-2-2.1C4.5,5.9,4.1,5.7,4,5.2C3.9,4.8,3.9,4.5,3.8,4.1c0-0.1,0.1-0.2,0.2-0.2
	c0.1,0,0.1,0,0.1,0c1.6,0.9,4.1,2.9,5.8,3.6l0,0c0,0,0,0-0.1,0.1S9.7,7.5,9.7,7.5c0-0.3-0.2-0.5-0.4-0.6C8.2,6,6.8,5.1,7,3.4
	c0-0.3,0.2-1,0.6-0.7C7.8,2.9,7.9,2.9,8,3.1l0.3,0.3c1.4,1.4,2.8,2.6,4.3,3.8c0.3,0.3,0.6,0.5,1,0.7c0.1,0,0,0-0.1,0.1
	c-0.2,0.1,0,0.3-0.1,0.2c-0.6-0.9-0.9-2-1.6-2.9c-0.2-0.3-0.5-0.6-0.6-1c0-0.3,0-0.5,0.1-0.8c0.1-0.1,0.2-0.2,0.3-0.2
	c0,0,0.1,0,0.1,0.1c2.4,2.3,4.5,4.8,6.5,7.5c2.1,2.6,4.4,4.8,6.6,7.2c1.5,1.8,2.3,3.8,3.4,5.7c1.6,2.8,3.1,5.8,4.7,8.6
	c0.6,0.9,1.5,2.5,2.7,2.3c1.5-0.7,3.1-1.3,4.7-1.7c0.8-0.1,1.5-0.1,2.3,0.2c0.7,0.1,1.4,0.5,1.8,1.1c0.9,0.3,1.5,1.3,1.2,2.3l0,0.1
	c0,0.1-0.1,0.2-0.3,0.2c-0.2-0.1-0.7-0.5-0.8-0.4c-0.1,0.1-0.3,0.3-0.5,0.5c-1.2,1.6-1.9,4-3.1,5.4c0-0.1,0-0.2,0-0.3l0.1,0.1
	l0.1,0.1l0.2,0.1c3.5,2.6,7.7,4.2,11.7,6c1.9,0.9,3.2,2.6,4.7,4c0.9,1,2.1,1.8,3,2.9C60.2,55.1,60,55.2,59.7,55.2L59.7,55.2
	L59.7,55.2"></path>
<path class="st3" d="M58.3,55.9c0.2,0,0.4,0,0.6-0.1l0,0.1c-0.9-1-2.1-1.7-3.1-2.7c-1.6-1.3-2.9-2.8-4.8-3.7
	c-4.2-1.7-8.5-3.3-12.2-5.9c-0.1-0.1-0.2-0.2-0.4-0.4c-0.1-0.1-0.1-0.3-0.1-0.5c0-0.1,0.1-0.2,0.1-0.2c1.5-1.7,2-4.1,3.7-5.7
	c0.2-0.2,0.4-0.3,0.7-0.3c0.3,0,0.4,0.1,0.6,0.2l0.4,0.3l-0.4,0.2c0-0.3,0-0.4,0-0.7c-0.2-0.4-0.4-0.8-0.9-0.8
	c-0.2-0.1-0.4-0.2-0.5-0.4c-0.2-0.2-0.5-0.3-0.8-0.3l-0.4-0.1c-0.1,0-0.2,0-0.3,0c-1.6-0.2-2.9,0.6-4.3,1.3
	c-0.8,0.3-1.9,1.1-2.8,0.9c-2.7-0.7-3.7-3.7-5.1-5.9c-1.6-3-2.9-5.9-4.3-8.9c-1.2-3.1-3.7-5.2-5.8-7.7c-1.4-1.7-2.7-3.4-4.1-5.1
	S11.6,6,10,4.6l0.4-0.1c-0.1,0.1-0.1,0.2-0.1,0.4l0,0c0.2,0.3,0.3,0.6,0.6,0.8c0.7,0.9,1,2,1.7,2.9c0.1,0.2,0.1,0.5-0.1,0.6
	c-0.1,0.1-0.2,0.1-0.3,0c-0.4-0.2-0.9-0.5-1.2-0.9C9.1,7,7.4,5.5,5.8,3.9l0.4,0C6.1,4.1,6.1,4.4,6.2,4.7C6.2,6,7.6,6.6,8.4,7.4
	c0.2,0.3,0.3,0.5,0.4,0.9c0,0.1,0,0.1-0.1,0.2c-0.1,0.1-0.3,0.1-0.5,0C6.5,7.7,4,5.8,2.5,4.8l0.3-0.2c0,0.6,0,1.2,0.4,1.6
	C4.1,7,5.4,7.6,5.7,8.9c0.1,0.8-1.3-0.2-1.6-0.4C3.5,8.2,3,7.2,2.4,7.2l0-0.1l0.4,1c0.3,1,0.9,2,1.6,2.7C3.7,10.1,3,9.1,2.7,8.1
	l-0.4-1l0,0C2.3,7,2.3,7,2.4,7c0,0,0,0,0.1,0c0.4,0,0.8,0.3,1.1,0.6c0.5,0.5,1.1,1,1.9,1.3c0.1,0,0.1,0,0.2,0L5.5,8.9
	C5.3,8,4.4,7.5,3.5,6.9C3.1,6.7,2.7,6.4,2.6,6C2.5,5.6,2.4,5.2,2.4,4.8c0-0.1,0.1-0.2,0.2-0.2c0.1,0,0.1,0,0.1,0
	c1.6,0.9,4.1,2.9,5.8,3.6l0,0c0,0,0,0-0.1,0.1C8.4,8.3,8.3,8.3,8.3,8.3c0-0.3-0.2-0.5-0.4-0.6C6.8,6.7,5.4,5.8,5.6,4.2
	c0-0.3,0.2-1,0.6-0.7c0.2,0.1,0.2,0.2,0.4,0.3l0.3,0.3c1.4,1.4,2.8,2.6,4.3,3.8c0.3,0.3,0.6,0.5,1,0.7c0.1,0,0,0-0.1,0.1
	c-0.2,0.1,0,0.3-0.1,0.2C11.4,8,11,6.9,10.4,6c-0.2-0.3-0.5-0.6-0.6-1c0-0.3,0-0.5,0.1-0.8c0.1-0.1,0.2-0.2,0.3-0.2
	c0,0,0.1,0,0.1,0.1c2.4,2.3,4.5,4.8,6.5,7.5c2.1,2.6,4.4,4.8,6.6,7.2c1.5,1.8,2.3,3.8,3.4,5.7c1.6,2.8,3.1,5.8,4.7,8.6
	c0.6,0.9,1.5,2.5,2.7,2.3c1.5-0.7,3.1-1.3,4.7-1.7c0.8-0.1,1.5-0.1,2.3,0.2c0.7,0.1,1.4,0.5,1.8,1.1c0.9,0.3,1.5,1.3,1.2,2.3l0,0.1
	c0,0.1-0.1,0.2-0.3,0.2c-0.2-0.1-0.7-0.5-0.8-0.4c-0.1,0.1-0.3,0.3-0.5,0.5c-1.2,1.6-1.9,4-3.1,5.4c0-0.1,0-0.2,0-0.3l0.1,0.1
	l0.1,0.1l0.2,0.1c3.5,2.6,7.7,4.2,11.7,6c1.9,0.9,3.2,2.6,4.7,4c0.9,1,2.1,1.8,3,2.9C58.7,55.9,58.5,55.9,58.3,55.9L58.3,55.9
	L58.3,55.9"></path>
</svg><style>@media (prefers-color-scheme: light) { :root { filter: none; } }
</style></svg>