<svg width="1920" height="260" viewBox="0 0 1920 260" fill="none" xmlns="http://www.w3.org/2000/svg">
<path d="M125.83 49.51C129.07 50.41 131.77 52.3 133.93 55.18C136.09 57.88 137.17 61.03 137.17 64.63C137.17 66.07 136.9 67.6 136.36 69.22C136 71.02 134.83 73.99 132.85 78.13C132.31 79.39 128.89 87.31 122.59 101.89C116.65 116.11 113.05 124.21 111.79 126.19C107.29 135.37 103.33 142.66 99.91 148.06C95.59 155.8 89.2 166.24 80.74 179.38C79.12 181.9 75.7 186.67 70.48 193.69C65.44 200.53 61.93 205.12 59.95 207.46C56.89 211.96 53.65 216.1 50.23 219.88C46.81 223.48 42.13 228.25 36.19 234.19L29.71 240.94C28.09 243.1 25.57 245.71 22.15 248.77C19.99 251.65 17.29 253.09 14.05 253.09C12.07 253.09 10.09 252.46 8.11 251.2C3.25 248.14 0.820002 244.81 0.820002 241.21C0.820002 240.13 1.09 238.87 1.63 237.43C2.17 236.17 5.41 232.48 11.35 226.36C17.29 220.06 22.24 215.11 26.2 211.51C33.4 203.23 37.9 197.92 39.7 195.58C35.74 190.36 32.05 184.24 28.63 177.22C25.39 170.2 23.32 164.62 22.42 160.48L17.83 136.72C18.01 136 18.1 135.1 18.1 134.02C18.1 132.76 18.01 131.68 17.83 130.78C17.65 129.7 17.47 128.62 17.29 127.54L16.48 79.75L18.37 55.99C18.37 55.63 18.37 54.28 18.37 51.94C18.37 49.6 19 47.44 20.26 45.46C21.52 43.48 23.59 42.49 26.47 42.49C30.07 41.95 33.76 43.48 37.54 47.08C41.32 50.5 43.21 54.01 43.21 57.61C43.21 58.87 42.94 60.04 42.4 61.12C41.86 62.2 41.59 63.28 41.59 64.36V67.6C41.59 69.4 41.5 70.84 41.32 71.92C40.96 75.52 40.6 80.56 40.24 87.04C40.06 93.52 39.97 100.18 39.97 107.02C39.97 112.42 40.06 115.93 40.24 117.55L42.67 141.04C42.85 144.82 44.02 150.67 46.18 158.59C48.52 166.33 50.77 172.99 52.93 178.57L56.44 173.98C59.14 170.92 60.94 168.31 61.84 166.15C63.1 163.27 65.17 159.58 68.05 155.08C70.21 151.84 71.65 149.41 72.37 147.79C74.35 144.19 76.24 140.95 78.04 138.07C80.56 134.11 82.27 131.23 83.17 129.43L100.72 96.22C101.98 92.08 103.33 88.12 104.77 84.34C106.39 79.66 107.92 74.71 109.36 69.49C110.98 64.27 112.06 59.68 112.6 55.72C113.68 51.58 116.11 49.51 119.89 49.51C120.43 49.51 121.24 49.51 122.32 49.51C123.58 49.33 124.75 49.33 125.83 49.51ZM282.812 75.16C283.172 76.96 282.722 78.58 281.462 80.02C280.382 81.28 277.862 82.99 273.902 85.15C265.802 89.11 261.212 92.08 260.132 94.06C259.232 94.78 257.162 96.31 253.922 98.65C250.862 100.99 246.992 103.87 242.312 107.29C235.292 111.97 229.172 116.38 223.952 120.52C218.912 124.66 215.582 127.81 213.962 129.97C213.422 129.97 212.702 130.24 211.802 130.78C211.082 131.32 210.452 131.5 209.912 131.32C209.552 131.5 208.742 132.04 207.482 132.94C206.222 133.84 205.322 134.65 204.782 135.37C204.242 136.81 203.342 138.25 202.082 139.69C201.002 140.95 199.652 141.49 198.032 141.31C195.332 142.75 190.652 146.08 183.992 151.3C185.612 163.9 189.032 174.97 194.252 184.51C199.472 196.03 204.782 204.49 210.182 209.89C213.962 214.03 217.472 217.27 220.712 219.61C224.132 221.95 226.742 223.12 228.542 223.12C230.162 223.66 232.412 224.92 235.292 226.9C238.172 228.88 239.702 230.5 239.882 231.76C240.062 232.12 240.152 233.2 240.152 235C240.152 237.34 239.702 239.68 238.802 242.02C238.082 244.54 236.732 246.43 234.752 247.69C233.312 249.13 231.692 249.85 229.892 249.85C228.092 249.85 225.122 248.95 220.982 247.15C218.102 247.33 213.152 244.63 206.132 239.05C199.112 233.47 193.712 228.34 189.932 223.66C185.072 216.64 180.842 210.25 177.242 204.49C173.822 198.73 171.212 192.43 169.412 185.59C168.512 181.27 167.072 176.41 165.092 171.01C164.012 167.59 163.382 165.43 163.202 164.53L162.392 166.69C162.212 167.23 161.042 170.2 158.882 175.6C156.902 181 154.022 190.54 150.242 204.22C147.002 214.84 144.122 223.93 141.602 231.49C139.082 238.87 137.012 243.82 135.392 246.34C133.952 249.04 132.512 250.39 131.072 250.39C129.632 250.39 127.832 249.58 125.672 247.96C119.912 244.72 117.032 241.12 117.032 237.16C117.032 236.44 117.212 235.36 117.572 233.92C117.392 231.58 117.572 229.33 118.112 227.17C118.652 225.01 118.922 223.75 118.922 223.39C120.182 223.39 120.812 221.95 120.812 219.07C120.812 217.63 121.622 214.48 123.242 209.62L125.672 201.25L128.912 193.42C130.892 188.38 131.882 185.68 131.882 185.32C131.882 182.98 133.052 180.01 135.392 176.41C136.112 174.25 136.742 171.91 137.282 169.39C137.822 166.87 138.092 164.8 138.092 163.18C138.452 162.28 139.442 160.21 141.062 156.97C142.682 153.73 143.852 150.49 144.572 147.25C144.752 146.35 145.022 145.36 145.382 144.28C145.922 143.2 146.462 141.85 147.002 140.23L155.912 115.93L159.962 106.75C160.322 105.85 161.492 103.06 163.472 98.38C165.632 93.7 167.072 91.36 167.792 91.36V88.39C167.792 87.67 168.782 85.33 170.762 81.37L174.002 74.89C175.442 72.73 176.522 70.48 177.242 68.14C178.142 65.8 178.682 64.27 178.862 63.55C179.042 63.19 179.402 62.56 179.942 61.66C180.482 60.76 181.112 59.95 181.832 59.23C183.272 58.15 185.072 57.25 187.232 56.53C189.572 55.63 191.642 55.18 193.442 55.18C196.502 55.18 198.572 56.35 199.652 58.69C201.812 63.01 202.892 66.61 202.892 69.49C202.892 71.47 202.352 73.27 201.272 74.89C197.492 82.63 192.992 92.26 187.772 103.78C182.552 115.12 178.682 124.12 176.162 130.78L178.052 129.43C182.732 124.75 190.202 118.54 200.462 110.8L233.672 83.8C238.712 81.28 244.652 77.32 251.492 71.92C253.292 70.84 254.732 69.85 255.812 68.95C256.892 68.05 257.792 67.42 258.512 67.06C259.592 66.16 261.752 64.63 264.992 62.47C268.232 60.13 270.302 59.05 271.202 59.23C272.462 58.69 274.082 59.41 276.062 61.39C278.042 63.37 279.662 65.8 280.922 68.68C282.362 71.56 282.992 73.72 282.812 75.16ZM265.513 250.39C264.613 250.39 263.623 250.03 262.543 249.31C261.643 248.77 260.833 247.96 260.113 246.88C258.673 245.62 257.503 244.09 256.603 242.29C255.703 240.49 255.253 237.79 255.253 234.19C255.253 227.89 257.233 218.8 261.193 206.92C262.453 201.88 263.803 197.02 265.243 192.34C266.503 189.1 267.133 186.67 267.133 185.05C267.133 183.61 267.313 181.99 267.673 180.19C268.213 178.21 268.483 176.86 268.483 176.14C270.643 176.14 272.623 172.45 274.423 165.07C275.143 162.37 275.773 160.12 276.313 158.32C276.853 156.34 277.213 154.81 277.393 153.73C277.753 153.19 278.113 152.38 278.473 151.3C279.013 150.22 279.463 149.23 279.823 148.33C281.263 144.01 282.973 139.87 284.953 135.91C287.113 127.81 289.633 119.35 292.513 110.53C295.573 101.53 298.093 94.87 300.073 90.55L303.313 82.45C303.493 81.91 303.853 80.92 304.393 79.48C305.113 77.86 305.473 76.69 305.473 75.97C305.473 75.25 305.203 74.71 304.663 74.35C303.403 73.45 302.773 71.65 302.773 68.95C302.773 64.45 304.483 60.76 307.903 57.88C309.883 55.54 312.493 53.92 315.733 53.02C319.153 51.94 323.203 51.4 327.883 51.4C329.863 51.4 333.373 51.58 338.413 51.94C340.573 52.12 346.333 52.21 355.693 52.21C356.773 52.75 358.753 53.56 361.633 54.64C367.753 57.16 370.813 58.69 370.813 59.23C370.813 60.13 371.083 60.76 371.623 61.12C372.343 61.48 373.333 61.75 374.593 61.93C376.573 61.93 380.083 64.36 385.123 69.22C390.343 74.08 393.943 78.58 395.923 82.72C397.543 85.96 398.623 88.48 399.163 90.28C399.883 92.08 400.243 94.33 400.243 97.03C400.243 98.11 400.063 100.09 399.703 102.97C399.343 105.85 398.893 108.64 398.353 111.34C397.813 114.04 397.183 115.75 396.463 116.47C393.583 118.63 392.143 120.52 392.143 122.14C392.143 123.94 389.533 128.98 384.313 137.26C379.093 145.54 374.503 151.57 370.543 155.35C365.863 160.75 360.283 165.52 353.803 169.66C346.243 173.08 337.693 176.05 328.153 178.57C318.793 181.09 311.683 182.26 306.823 182.08C301.063 182.98 297.463 183.79 296.023 184.51C294.763 185.05 293.773 186.49 293.053 188.83C292.153 191.35 291.253 193.87 290.353 196.39C289.633 198.91 289.273 200.62 289.273 201.52C288.193 203.5 285.943 209.53 282.523 219.61C279.283 229.69 277.033 237.43 275.773 242.83C275.053 245.17 273.613 246.97 271.453 248.23C269.293 249.67 267.313 250.39 265.513 250.39ZM303.853 160.21C304.213 160.57 305.203 160.75 306.823 160.75C311.503 160.75 317.623 159.31 325.183 156.43C331.663 154.27 338.863 150.76 346.783 145.9C350.743 143.2 355.423 138.43 360.823 131.59C361.903 129.79 364.063 125.56 367.303 118.9C368.743 116.38 370.093 113.14 371.353 109.18C372.793 105.22 373.513 101.71 373.513 98.65C373.513 97.21 373.423 96.13 373.243 95.41C371.443 86.05 366.223 79.84 357.583 76.78C351.823 75.88 347.773 75.43 345.433 75.43C344.173 75.43 342.103 75.61 339.223 75.97C336.343 76.87 334.273 78.13 333.013 79.75C331.933 81.19 330.313 84.61 328.153 90.01C322.393 100.99 318.613 108.91 316.813 113.77C313.393 126.01 310.423 135.46 307.903 142.12C305.383 148.6 303.943 152.38 303.583 153.46V154.54C303.583 155.62 303.493 156.7 303.313 157.78C303.133 158.86 303.313 159.67 303.853 160.21ZM366.396 243.91C364.416 242.83 362.976 241.84 362.076 240.94C361.356 240.04 360.996 238.87 360.996 237.43C360.996 235.63 361.716 233.11 363.156 229.87C364.776 226.45 367.476 221.14 371.256 213.94C372.336 211.6 374.406 207.46 377.466 201.52C385.206 186.76 389.076 175.87 389.076 168.85C388.896 168.49 388.806 167.95 388.806 167.23C388.806 165.43 390.246 163.81 393.126 162.37C393.666 161.83 395.556 160.3 398.796 157.78C402.216 155.26 404.916 152.38 406.896 149.14C409.236 143.74 412.206 137.8 415.806 131.32C419.406 124.66 425.616 113.86 434.436 98.92C443.076 83.08 452.256 68.77 461.976 55.99C463.776 53.47 465.756 51.49 467.916 50.05C470.256 48.61 472.236 47.89 473.856 47.89C479.436 47.89 485.106 50.05 490.866 54.37C496.806 58.69 500.676 63.01 502.476 67.33C503.196 68.59 503.556 71.29 503.556 75.43C503.556 81.01 502.926 90.46 501.666 103.78C501.306 106.12 500.946 109.81 500.586 114.85C500.046 122.95 499.236 131.59 498.156 140.77C496.176 160.93 494.736 176.68 493.836 188.02C492.936 199.36 492.486 209.98 492.486 219.88C492.486 224.92 492.576 228.61 492.756 230.95V232.84L492.486 239.05C491.406 240.13 489.246 240.67 486.006 240.67C482.406 240.67 478.806 240.04 475.206 238.78C471.606 237.7 469.626 236.35 469.266 234.73C469.086 234.55 468.816 234.37 468.456 234.19C468.096 234.01 467.916 233.2 467.916 231.76L468.186 225.82L468.996 210.7L470.346 169.39L466.836 169.66C463.236 169.66 455.586 170.38 443.886 171.82C432.366 173.26 425.076 174.43 422.016 175.33C420.396 175.33 418.416 176.41 416.076 178.57C413.736 180.73 411.666 183.52 409.866 186.94C409.326 188.74 408.066 191.35 406.086 194.77C404.106 198.01 403.116 199.9 403.116 200.44C402.036 201.16 401.046 202.15 400.146 203.41C399.426 204.49 398.976 205.21 398.796 205.57C398.796 207.55 396.996 212.68 393.396 220.96C389.976 229.06 386.556 235.72 383.136 240.94L375.846 251.2L366.396 243.91ZM430.926 151.03C432.186 150.85 434.706 150.49 438.486 149.95C442.266 149.23 445.596 148.78 448.476 148.6C457.116 146.44 463.056 145.36 466.296 145.36C468.096 145.36 469.356 145.54 470.076 145.9C470.616 146.62 471.156 147.16 471.696 147.52C472.416 147.7 472.866 147.79 473.046 147.79C473.406 146.35 474.846 136.54 477.366 118.36C479.886 100.18 481.146 89.02 481.146 84.88C481.146 82 481.056 79.57 480.876 77.59C480.696 75.43 480.516 74.08 480.336 73.54C478.716 73.54 475.026 77.86 469.266 86.5C463.506 94.96 457.926 104.59 452.526 115.39C448.386 122.77 445.506 126.46 443.886 126.46C442.626 127.72 439.926 131.95 435.786 139.15C431.646 146.35 430.026 150.31 430.926 151.03ZM536.696 246.07C535.436 244.27 533.276 243.01 530.216 242.29C527.336 241.75 522.656 241.66 516.176 242.02C512.396 242.56 508.526 241.93 504.566 240.13C500.786 238.33 499.256 236.26 499.976 233.92C500.156 231.58 502.766 229.24 507.806 226.9C513.026 224.38 519.236 223.03 526.436 222.85L537.776 222.58L540.476 217.18C541.016 216.1 541.376 215.02 541.556 213.94C541.736 212.68 542.006 211.6 542.366 210.7L544.796 200.98L548.846 188.02C554.246 171.64 557.756 160.12 559.376 153.46C560.276 151.3 561.716 146.98 563.696 140.5C565.676 134.02 567.206 128.71 568.286 124.57C576.566 99.19 579.986 86.32 578.546 85.96C576.746 85.78 571.976 86.14 564.236 87.04C556.496 87.76 552.176 88.39 551.276 88.93C550.376 90.19 548.846 90.01 546.686 88.39C544.526 86.77 543.176 84.97 542.636 82.99C542.456 82.45 542.366 81.55 542.366 80.29C542.366 77.77 542.996 76.15 544.256 75.43C546.056 73.81 550.646 72.01 558.026 70.03C565.586 68.05 572.606 66.61 579.086 65.71C582.146 65.35 585.206 64.72 588.266 63.82C591.506 62.74 593.936 61.48 595.556 60.04C599.336 58.78 602.486 58.24 605.006 58.42C606.266 59.32 609.326 59.77 614.186 59.77C618.326 59.77 621.476 59.68 623.636 59.5C628.316 59.14 631.556 58.96 633.356 58.96C644.156 58.96 650.636 61.48 652.796 66.52C653.156 68.32 653.336 69.67 653.336 70.57C653.336 72.91 652.616 74.8 651.176 76.24C649.916 77.68 648.116 78.31 645.776 78.13C642.536 79.03 636.506 79.57 627.686 79.75C615.806 80.83 609.416 82.09 608.516 83.53C607.616 84.43 606.896 85.24 606.356 85.96C605.996 86.68 605.546 87.4 605.006 88.12C605.186 89.74 603.566 95.59 600.146 105.67L595.286 119.98C590.246 135.64 587.006 145.27 585.566 148.87C584.306 151.93 583.406 155.08 582.866 158.32C581.426 163.18 580.076 167.86 578.816 172.36C577.736 176.68 576.566 180.82 575.306 184.78L564.776 222.31L580.976 220.96C591.596 219.88 597.986 219.34 600.146 219.34C601.946 219.34 603.116 219.52 603.656 219.88C604.196 220.24 604.556 220.87 604.736 221.77C604.916 222.49 605.096 223.03 605.276 223.39C606.896 225.55 607.706 227.62 607.706 229.6C607.706 232.84 605.546 235.45 601.226 237.43C596.906 239.41 590.966 240.31 583.406 240.13C575.306 240.49 568.736 240.76 563.696 240.94C558.656 241.3 555.506 241.75 554.246 242.29C552.986 242.83 552.356 243.73 552.356 244.99C552.536 246.61 551.996 247.87 550.736 248.77C549.476 249.85 547.856 250.39 545.876 250.39C542.456 250.39 539.396 248.95 536.696 246.07ZM576.656 34.66C575.036 33.22 573.686 31.06 572.606 28.18C571.526 25.12 571.166 23.05 571.526 21.97C572.066 19.99 573.056 17.47 574.496 14.41C575.936 11.17 577.826 8.55999 580.166 6.58C580.706 6.21999 581.426 5.49999 582.326 4.41999C583.226 3.33999 584.126 2.70999 585.026 2.52998C586.646 1.44999 588.176 0.909988 589.616 0.909988C593.216 0.909988 596.546 3.60999 599.606 9.01C601.046 12.25 601.766 14.77 601.766 16.57C601.766 18.55 601.136 20.62 599.876 22.78C598.796 24.76 596.906 27.28 594.206 30.34C590.426 35.38 586.826 37.9 583.406 37.9C581.066 37.9 578.816 36.82 576.656 34.66ZM618.506 34.66C616.886 33.22 615.536 31.06 614.456 28.18C613.376 25.12 613.016 23.05 613.376 21.97C613.916 19.99 614.906 17.47 616.346 14.41C617.786 11.17 619.676 8.55999 622.016 6.58C622.556 6.21999 623.276 5.49999 624.176 4.41999C625.076 3.33999 625.976 2.70999 626.876 2.52998C628.496 1.44999 630.026 0.909988 631.466 0.909988C635.066 0.909988 638.396 3.60999 641.456 9.01C642.896 12.25 643.616 14.77 643.616 16.57C643.616 18.55 642.986 20.62 641.726 22.78C640.646 24.76 638.756 27.28 636.056 30.34C632.276 35.38 628.676 37.9 625.256 37.9C622.916 37.9 620.666 36.82 618.506 34.66ZM639.615 259.57C638.535 259.21 636.375 258.49 633.135 257.41C629.895 256.51 627.645 256.06 626.385 256.06C624.225 255.52 622.425 254.35 620.985 252.55C619.725 250.75 619.095 248.68 619.095 246.34C619.095 245.08 619.185 244.09 619.365 243.37C619.905 242.83 620.355 241.39 620.715 239.05C621.255 236.89 621.525 234.91 621.525 233.11C622.065 232.03 622.515 230.95 622.875 229.87C623.235 228.61 623.685 226.9 624.225 224.74C625.665 216.82 628.995 203.5 634.215 184.78C639.435 166.06 642.675 156.07 643.935 154.81V151.84C643.935 151.3 644.115 150.22 644.475 148.6C644.835 146.98 645.645 145.27 646.905 143.47C647.625 141.31 648.165 139.24 648.525 137.26C649.065 135.1 649.425 133.48 649.605 132.4C650.325 131.5 651.495 128.8 653.115 124.3C654.915 119.8 656.085 116.83 656.625 115.39C657.885 111.97 659.415 108.01 661.215 103.51C663.195 98.83 664.545 95.77 665.265 94.33V92.98C665.625 92.62 666.525 90.82 667.965 87.58C669.585 84.16 670.935 81.28 672.015 78.94C673.275 76.06 676.605 68.59 682.005 56.53C682.365 55.81 683.355 53.74 684.975 50.32C686.595 46.9 687.405 44.74 687.405 43.84C689.205 41.86 691.185 40.87 693.345 40.87C696.045 40.87 698.565 42.13 700.905 44.65C703.425 46.99 705.405 49.51 706.845 52.21L709.545 56.53L699.555 75.97C696.855 80.83 694.425 85.42 692.265 89.74C690.105 93.88 689.025 96.31 689.025 97.03C688.485 98.29 687.495 100.9 686.055 104.86C684.795 108.82 683.355 113.32 681.735 118.36C679.215 125.2 677.145 130.33 675.525 133.75C674.085 136.63 673.365 138.34 673.365 138.88C673.365 138.16 683.355 137.8 703.335 137.8C706.395 137.8 711.975 137.71 720.075 137.53C728.175 137.35 733.305 137.08 735.465 136.72L749.505 135.37L757.065 111.34C758.865 105.04 762.825 92.8 768.945 74.62C771.465 67.06 774.345 61.48 777.585 57.88C780.825 54.1 783.705 52.21 786.225 52.21C786.945 52.21 788.745 53.29 791.625 55.45C794.685 57.43 796.485 59.14 797.025 60.58C799.005 62.56 799.995 64.63 799.995 66.79C799.995 69.31 798.555 72.82 795.675 77.32C793.515 81.1 790.455 88.21 786.495 98.65C784.875 103.51 783.885 106.3 783.525 107.02C783.525 110.8 782.625 113.59 780.825 115.39C780.105 116.11 778.845 118.72 777.045 123.22C775.245 127.54 774.345 130.06 774.345 130.78C774.345 132.22 774.075 133.84 773.535 135.64C772.995 137.26 772.365 138.43 771.645 139.15L769.755 145.63C763.455 168.49 758.505 184.33 754.905 193.15C754.905 194.05 754.455 195.67 753.555 198.01C752.655 200.35 752.205 201.97 752.205 202.87C751.845 204.13 751.035 206.65 749.775 210.43C748.515 214.21 747.885 216.46 747.885 217.18C746.625 222.76 745.365 229.33 744.105 236.89C742.845 244.45 742.035 249.76 741.675 252.82C738.615 253.18 736.095 253 734.115 252.28C732.135 251.56 730.245 250.57 728.445 249.31C726.645 248.23 725.385 247.51 724.665 247.15C720.345 244.81 718.185 241.57 718.185 237.43C718.185 235.09 718.995 232.3 720.615 229.06C721.155 228.16 722.865 222.31 725.745 211.51L728.175 201.52C729.615 197.56 730.875 193.78 731.955 190.18C733.035 186.4 734.025 183.16 734.925 180.46C737.805 170.02 739.605 164.44 740.325 163.72V161.02C739.785 160.12 734.475 159.67 724.395 159.67C713.415 159.67 701.985 160.39 690.105 161.83H673.905H666.885C665.985 163.81 663.375 171.73 659.055 185.59C654.735 199.27 652.305 208 651.765 211.78C650.505 217.72 648.525 225.91 645.825 236.35C643.125 246.97 641.055 254.71 639.615 259.57ZM816.53 252.82C810.95 250.84 805.55 247.96 800.33 244.18C795.29 240.4 791.6 235.63 789.26 229.87C786.38 221.77 784.94 212.23 784.94 201.25C784.94 190.63 785.57 181.63 786.83 174.25C788.09 166.69 790.25 159.04 793.31 151.3L795.74 145.63C798.62 138.25 800.69 133.39 801.95 131.05C805.01 124.03 810.41 114.94 818.15 103.78C825.35 92.98 831.02 84.97 835.16 79.75C839.48 74.35 843.89 69.76 848.39 65.98C852.89 62.02 859.46 57.07 868.1 51.13C873.32 47.35 879.71 45.46 887.27 45.46C893.21 45.46 898.61 46.9 903.47 49.78C908.51 52.66 912.29 57.16 914.81 63.28C916.61 66.34 917.51 70.57 917.51 75.97C917.51 84.61 915.44 93.97 911.3 104.05C907.16 114.13 902.21 121.78 896.45 127C895.19 128.26 893.48 128.89 891.32 128.89C889.16 128.89 886.82 128.26 884.3 127C881.78 125.74 879.53 124.21 877.55 122.41C875.93 119.35 875.03 117.55 874.85 117.01C874.67 116.47 875.03 116.11 875.93 115.93C877.55 113.95 879.89 110.17 882.95 104.59C886.19 98.83 888.35 94.33 889.43 91.09L891.05 83.53C892.13 78.85 892.67 75.79 892.67 74.35C892.67 72.73 892.04 71.29 890.78 70.03C890.24 69.49 889.52 69.22 888.62 69.22C887.18 69.22 884.66 70.12 881.06 71.92C876.92 73.72 871.97 77.41 866.21 82.99C860.63 88.39 855.05 94.87 849.47 102.43C841.19 113.23 834.8 122.14 830.3 129.16C825.98 136.18 822.65 143.29 820.31 150.49L817.34 157.51C817.52 158.23 817.25 160.03 816.53 162.91C815.81 165.79 815 168.13 814.1 169.93C811.58 180.37 810.32 189.82 810.32 198.28C810.32 204.94 810.95 210.7 812.21 215.56C813.65 220.42 815.63 224.02 818.15 226.36C819.59 227.62 821.66 228.25 824.36 228.25C827.24 228.25 830.48 227.62 834.08 226.36C837.86 224.92 841.82 223.3 845.96 221.5C850.1 219.7 852.98 218.44 854.6 217.72C858.74 216.1 862.61 214.21 866.21 212.05C869.99 209.89 872.78 207.91 874.58 206.11C879.26 202.69 883.04 200.98 885.92 200.98C888.26 200.26 890.06 200.98 891.32 203.14C892.76 205.3 893.48 208.27 893.48 212.05C893.48 214.57 891.77 217.63 888.35 221.23C884.93 224.65 880.88 227.71 876.2 230.41C874.22 232.39 869.81 234.73 862.97 237.43C857.21 241.57 850.46 245.26 842.72 248.5C835.16 251.74 828.23 253.36 821.93 253.36C820.49 253.36 818.69 253.18 816.53 252.82ZM1026.11 159.13C1026.29 163.99 1026.2 168.31 1025.84 172.09C1025.48 175.69 1024.49 179.29 1022.87 182.89C1018.73 192.79 1013.96 201.34 1008.56 208.54C1003.34 215.56 996.947 221.95 989.387 227.71C985.247 231.13 980.837 234.19 976.157 236.89C971.477 239.59 967.787 241.21 965.087 241.75C960.767 243.37 955.727 244.18 949.967 244.18C944.387 244.18 939.167 243.37 934.307 241.75C929.447 240.31 925.757 238.15 923.237 235.27C922.157 234.19 920.717 232.75 918.917 230.95C917.297 228.97 916.037 227.26 915.137 225.82C914.237 224.2 913.787 222.49 913.787 220.69C913.787 219.61 913.877 218.8 914.057 218.26C914.777 216.46 915.497 214.12 916.217 211.24C917.117 208.36 917.837 206.11 918.377 204.49L948.077 124.03C950.597 117.37 953.927 108.73 958.067 98.11C962.207 87.49 965.447 79.48 967.787 74.08C968.507 72.46 969.407 70.03 970.487 66.79C970.667 66.07 971.387 64.09 972.647 60.85C973.907 57.43 975.617 54.37 977.777 51.67C978.677 50.23 979.937 49.24 981.557 48.7C983.357 48.16 985.157 47.98 986.957 48.16C991.457 49.06 994.517 50.32 996.137 51.94C997.937 53.38 999.557 56.08 1001 60.04C1000.28 63.64 999.377 66.7 998.297 69.22C997.397 71.56 995.687 74.71 993.167 78.67C992.807 80.11 992.357 81.37 991.817 82.45C991.457 83.53 991.097 84.25 990.737 84.61C987.317 91.09 983.627 99.46 979.667 109.72C981.827 110.08 984.707 110.89 988.307 112.15C989.387 112.51 991.637 113.32 995.057 114.58C998.477 115.84 1001.54 117.37 1004.24 119.17C1006.94 120.97 1009.64 123.31 1012.34 126.19C1016.3 130.15 1019.18 134.47 1020.98 139.15C1022.78 143.83 1023.95 148.06 1024.49 151.84C1025.21 155.44 1025.75 157.87 1026.11 159.13ZM991.547 189.64C995.507 183.34 998.297 178.12 999.917 173.98C1001.54 169.66 1002.35 165.25 1002.35 160.75C1002.35 157.15 1001.63 152.29 1000.19 146.17C999.647 144.37 998.927 142.93 998.027 141.85C997.127 140.59 995.777 139.51 993.977 138.61C990.737 136.45 986.147 134.65 980.207 133.21C980.027 133.21 979.037 133.03 977.237 132.67C975.437 132.13 973.727 131.14 972.107 129.7C970.667 132.04 968.327 137.89 965.087 147.25C963.467 151.75 962.387 154.54 961.847 155.62C960.947 157.6 956.627 169.39 948.887 190.99C948.887 191.17 943.847 198.82 933.767 213.94L940.247 217.99C944.927 220.33 948.797 221.5 951.857 221.5C954.017 221.5 955.907 221.05 957.527 220.15C959.327 219.07 961.667 217.36 964.547 215.02C969.047 212.14 974.087 208 979.667 202.6C985.247 197.02 989.207 192.7 991.547 189.64ZM1196.7 75.16C1197.06 76.96 1196.61 78.58 1195.35 80.02C1194.27 81.28 1191.75 82.99 1187.79 85.15C1179.69 89.11 1175.1 92.08 1174.02 94.06C1173.12 94.78 1171.05 96.31 1167.81 98.65C1164.75 100.99 1160.88 103.87 1156.2 107.29C1149.18 111.97 1143.06 116.38 1137.84 120.52C1132.8 124.66 1129.47 127.81 1127.85 129.97C1127.31 129.97 1126.59 130.24 1125.69 130.78C1124.97 131.32 1124.34 131.5 1123.8 131.32C1123.44 131.5 1122.63 132.04 1121.37 132.94C1120.11 133.84 1119.21 134.65 1118.67 135.37C1118.13 136.81 1117.23 138.25 1115.97 139.69C1114.89 140.95 1113.54 141.49 1111.92 141.31C1109.22 142.75 1104.54 146.08 1097.88 151.3C1099.5 163.9 1102.92 174.97 1108.14 184.51C1113.36 196.03 1118.67 204.49 1124.07 209.89C1127.85 214.03 1131.36 217.27 1134.6 219.61C1138.02 221.95 1140.63 223.12 1142.43 223.12C1144.05 223.66 1146.3 224.92 1149.18 226.9C1152.06 228.88 1153.59 230.5 1153.77 231.76C1153.95 232.12 1154.04 233.2 1154.04 235C1154.04 237.34 1153.59 239.68 1152.69 242.02C1151.97 244.54 1150.62 246.43 1148.64 247.69C1147.2 249.13 1145.58 249.85 1143.78 249.85C1141.98 249.85 1139.01 248.95 1134.87 247.15C1131.99 247.33 1127.04 244.63 1120.02 239.05C1113 233.47 1107.6 228.34 1103.82 223.66C1098.96 216.64 1094.73 210.25 1091.13 204.49C1087.71 198.73 1085.1 192.43 1083.3 185.59C1082.4 181.27 1080.96 176.41 1078.98 171.01C1077.9 167.59 1077.27 165.43 1077.09 164.53L1076.28 166.69C1076.1 167.23 1074.93 170.2 1072.77 175.6C1070.79 181 1067.91 190.54 1064.13 204.22C1060.89 214.84 1058.01 223.93 1055.49 231.49C1052.97 238.87 1050.9 243.82 1049.28 246.34C1047.84 249.04 1046.4 250.39 1044.96 250.39C1043.52 250.39 1041.72 249.58 1039.56 247.96C1033.8 244.72 1030.92 241.12 1030.92 237.16C1030.92 236.44 1031.1 235.36 1031.46 233.92C1031.28 231.58 1031.46 229.33 1032 227.17C1032.54 225.01 1032.81 223.75 1032.81 223.39C1034.07 223.39 1034.7 221.95 1034.7 219.07C1034.7 217.63 1035.51 214.48 1037.13 209.62L1039.56 201.25L1042.8 193.42C1044.78 188.38 1045.77 185.68 1045.77 185.32C1045.77 182.98 1046.94 180.01 1049.28 176.41C1050 174.25 1050.63 171.91 1051.17 169.39C1051.71 166.87 1051.98 164.8 1051.98 163.18C1052.34 162.28 1053.33 160.21 1054.95 156.97C1056.57 153.73 1057.74 150.49 1058.46 147.25C1058.64 146.35 1058.91 145.36 1059.27 144.28C1059.81 143.2 1060.35 141.85 1060.89 140.23L1069.8 115.93L1073.85 106.75C1074.21 105.85 1075.38 103.06 1077.36 98.38C1079.52 93.7 1080.96 91.36 1081.68 91.36V88.39C1081.68 87.67 1082.67 85.33 1084.65 81.37L1087.89 74.89C1089.33 72.73 1090.41 70.48 1091.13 68.14C1092.03 65.8 1092.57 64.27 1092.75 63.55C1092.93 63.19 1093.29 62.56 1093.83 61.66C1094.37 60.76 1095 59.95 1095.72 59.23C1097.16 58.15 1098.96 57.25 1101.12 56.53C1103.46 55.63 1105.53 55.18 1107.33 55.18C1110.39 55.18 1112.46 56.35 1113.54 58.69C1115.7 63.01 1116.78 66.61 1116.78 69.49C1116.78 71.47 1116.24 73.27 1115.16 74.89C1111.38 82.63 1106.88 92.26 1101.66 103.78C1096.44 115.12 1092.57 124.12 1090.05 130.78L1091.94 129.43C1096.62 124.75 1104.09 118.54 1114.35 110.8L1147.56 83.8C1152.6 81.28 1158.54 77.32 1165.38 71.92C1167.18 70.84 1168.62 69.85 1169.7 68.95C1170.78 68.05 1171.68 67.42 1172.4 67.06C1173.48 66.16 1175.64 64.63 1178.88 62.47C1182.12 60.13 1184.19 59.05 1185.09 59.23C1186.35 58.69 1187.97 59.41 1189.95 61.39C1191.93 63.37 1193.55 65.8 1194.81 68.68C1196.25 71.56 1196.88 73.72 1196.7 75.16ZM1163.74 243.91C1161.76 242.83 1160.32 241.84 1159.42 240.94C1158.7 240.04 1158.34 238.87 1158.34 237.43C1158.34 235.63 1159.06 233.11 1160.5 229.87C1162.12 226.45 1164.82 221.14 1168.6 213.94C1169.68 211.6 1171.75 207.46 1174.81 201.52C1182.55 186.76 1186.42 175.87 1186.42 168.85C1186.24 168.49 1186.15 167.95 1186.15 167.23C1186.15 165.43 1187.59 163.81 1190.47 162.37C1191.01 161.83 1192.9 160.3 1196.14 157.78C1199.56 155.26 1202.26 152.38 1204.24 149.14C1206.58 143.74 1209.55 137.8 1213.15 131.32C1216.75 124.66 1222.96 113.86 1231.78 98.92C1240.42 83.08 1249.6 68.77 1259.32 55.99C1261.12 53.47 1263.1 51.49 1265.26 50.05C1267.6 48.61 1269.58 47.89 1271.2 47.89C1276.78 47.89 1282.45 50.05 1288.21 54.37C1294.15 58.69 1298.02 63.01 1299.82 67.33C1300.54 68.59 1300.9 71.29 1300.9 75.43C1300.9 81.01 1300.27 90.46 1299.01 103.78C1298.65 106.12 1298.29 109.81 1297.93 114.85C1297.39 122.95 1296.58 131.59 1295.5 140.77C1293.52 160.93 1292.08 176.68 1291.18 188.02C1290.28 199.36 1289.83 209.98 1289.83 219.88C1289.83 224.92 1289.92 228.61 1290.1 230.95V232.84L1289.83 239.05C1288.75 240.13 1286.59 240.67 1283.35 240.67C1279.75 240.67 1276.15 240.04 1272.55 238.78C1268.95 237.7 1266.97 236.35 1266.61 234.73C1266.43 234.55 1266.16 234.37 1265.8 234.19C1265.44 234.01 1265.26 233.2 1265.26 231.76L1265.53 225.82L1266.34 210.7L1267.69 169.39L1264.18 169.66C1260.58 169.66 1252.93 170.38 1241.23 171.82C1229.71 173.26 1222.42 174.43 1219.36 175.33C1217.74 175.33 1215.76 176.41 1213.42 178.57C1211.08 180.73 1209.01 183.52 1207.21 186.94C1206.67 188.74 1205.41 191.35 1203.43 194.77C1201.45 198.01 1200.46 199.9 1200.46 200.44C1199.38 201.16 1198.39 202.15 1197.49 203.41C1196.77 204.49 1196.32 205.21 1196.14 205.57C1196.14 207.55 1194.34 212.68 1190.74 220.96C1187.32 229.06 1183.9 235.72 1180.48 240.94L1173.19 251.2L1163.74 243.91ZM1228.27 151.03C1229.53 150.85 1232.05 150.49 1235.83 149.95C1239.61 149.23 1242.94 148.78 1245.82 148.6C1254.46 146.44 1260.4 145.36 1263.64 145.36C1265.44 145.36 1266.7 145.54 1267.42 145.9C1267.96 146.62 1268.5 147.16 1269.04 147.52C1269.76 147.7 1270.21 147.79 1270.39 147.79C1270.75 146.35 1272.19 136.54 1274.71 118.36C1277.23 100.18 1278.49 89.02 1278.49 84.88C1278.49 82 1278.4 79.57 1278.22 77.59C1278.04 75.43 1277.86 74.08 1277.68 73.54C1276.06 73.54 1272.37 77.86 1266.61 86.5C1260.85 94.96 1255.27 104.59 1249.87 115.39C1245.73 122.77 1242.85 126.46 1241.23 126.46C1239.97 127.72 1237.27 131.95 1233.13 139.15C1228.99 146.35 1227.37 150.31 1228.27 151.03ZM1338.85 250.66C1336.15 250.66 1333.36 248.86 1330.48 245.26C1327.6 241.84 1326.16 237.52 1326.16 232.3C1326.16 228.16 1327.15 224.11 1329.13 220.15C1332.73 212.59 1336.33 206.47 1339.93 201.79C1341.19 199.99 1342.09 198.46 1342.63 197.2C1343.35 195.94 1343.8 194.23 1343.98 192.07C1346.5 188.83 1349.83 182.98 1353.97 174.52C1360.99 163.18 1370.98 145.72 1383.94 122.14C1385.74 118.9 1389.25 112.51 1394.47 102.97C1399.87 93.43 1403.47 87.76 1405.27 85.96L1406.62 84.07C1406.08 84.97 1406.98 82.9 1409.32 77.86C1411.84 72.82 1414.45 68.32 1417.15 64.36C1420.03 60.22 1422.55 58.15 1424.71 58.15C1427.05 58.15 1429.75 59.14 1432.81 61.12C1435.87 62.92 1438.48 65.71 1440.64 69.49C1442.98 73.09 1444.15 77.41 1444.15 82.45C1444.15 84.61 1444.06 86.32 1443.88 87.58L1441.18 105.94L1439.83 111.88C1437.49 123.76 1433.98 140.05 1429.3 160.75C1425.16 179.11 1423.09 190.18 1423.09 193.96C1423.09 195.04 1423.27 195.94 1423.63 196.66C1423.99 197.2 1424.44 197.47 1424.98 197.47C1425.34 197.47 1426.24 196.93 1427.68 195.85C1429.12 194.59 1430.38 192.79 1431.46 190.45L1434.97 185.05L1439.56 178.3C1444.6 171.28 1450.81 161.83 1458.19 149.95C1465.57 137.89 1477.54 117.28 1494.1 88.12C1497.52 83.08 1500.31 78.67 1502.47 74.89C1505.35 70.21 1508.14 65.8 1510.84 61.66C1513.54 57.52 1515.61 54.91 1517.05 53.83C1518.85 52.39 1521.1 51.67 1523.8 51.67C1526.5 51.85 1529.29 52.84 1532.17 54.64C1535.23 56.44 1537.75 58.96 1539.73 62.2C1541.89 65.44 1542.97 68.95 1542.97 72.73C1542.97 77.05 1541.62 84.97 1538.92 96.49C1536.4 108.01 1533.43 119.17 1530.01 129.97C1529.29 133.75 1527.04 142.66 1523.26 156.7C1520.38 167.14 1518.22 175.42 1516.78 181.54C1515.52 187.66 1514.89 192.61 1514.89 196.39V198.55C1512.19 203.41 1510.84 213.13 1510.84 227.71C1510.12 233.65 1508.77 238.24 1506.79 241.48C1504.81 244.9 1503.19 246.61 1501.93 246.61L1501.12 246.34C1500.22 246.34 1499.32 246.7 1498.42 247.42C1497.7 248.32 1496.62 248.77 1495.18 248.77C1490.68 248.77 1487.71 247.15 1486.27 243.91C1485.01 240.67 1484.38 236.26 1484.38 230.68C1484.38 227.44 1484.47 224.74 1484.65 222.58C1485.19 217.9 1490.95 193.51 1501.93 149.41C1510.57 114.85 1514.89 96.76 1514.89 95.14L1511.11 101.62C1507.51 108.46 1503.01 116.47 1497.61 125.65L1478.71 161.02C1476.37 164.26 1474.39 167.41 1472.77 170.47C1471.33 173.53 1470.52 175.33 1470.34 175.87C1468.18 180.19 1463.86 186.4 1457.38 194.5C1455.22 197.2 1453.96 198.91 1453.6 199.63C1452.7 201.61 1449.82 205.12 1444.96 210.16C1440.1 215.02 1434.97 219.52 1429.57 223.66C1424.17 227.62 1419.67 229.6 1416.07 229.6C1411.21 229.6 1406.8 227.26 1402.84 222.58C1399.06 217.9 1397.17 212.23 1397.17 205.57C1397.17 200.71 1398.07 192.61 1399.87 181.27C1402.75 168.85 1405.81 156.25 1409.05 143.47C1412.29 130.69 1414.54 122.32 1415.8 118.36C1416.34 116.74 1416.61 114.94 1416.61 112.96C1416.61 111.7 1416.43 110.89 1416.07 110.53C1415.89 110.53 1415.62 110.71 1415.26 111.07C1415.08 111.43 1414.81 111.88 1414.45 112.42C1411.75 116.74 1407.52 124.3 1401.76 135.1C1396 145.9 1389.79 158.59 1383.13 173.17C1357.39 220.51 1342.63 246.34 1338.85 250.66ZM1542.36 250.39C1541.46 250.39 1540.47 250.03 1539.39 249.31C1538.49 248.77 1537.68 247.96 1536.96 246.88C1535.52 245.62 1534.35 244.09 1533.45 242.29C1532.55 240.49 1532.1 237.79 1532.1 234.19C1532.1 227.89 1534.08 218.8 1538.04 206.92C1539.3 201.88 1540.65 197.02 1542.09 192.34C1543.35 189.1 1543.98 186.67 1543.98 185.05C1543.98 183.61 1544.16 181.99 1544.52 180.19C1545.06 178.21 1545.33 176.86 1545.33 176.14C1547.49 176.14 1549.47 172.45 1551.27 165.07C1551.99 162.37 1552.62 160.12 1553.16 158.32C1553.7 156.34 1554.06 154.81 1554.24 153.73C1554.6 153.19 1554.96 152.38 1555.32 151.3C1555.86 150.22 1556.31 149.23 1556.67 148.33C1558.11 144.01 1559.82 139.87 1561.8 135.91C1563.96 127.81 1566.48 119.35 1569.36 110.53C1572.42 101.53 1574.94 94.87 1576.92 90.55L1580.16 82.45C1580.34 81.91 1580.7 80.92 1581.24 79.48C1581.96 77.86 1582.32 76.69 1582.32 75.97C1582.32 75.25 1582.05 74.71 1581.51 74.35C1580.25 73.45 1579.62 71.65 1579.62 68.95C1579.62 64.45 1581.33 60.76 1584.75 57.88C1586.73 55.54 1589.34 53.92 1592.58 53.02C1596 51.94 1600.05 51.4 1604.73 51.4C1606.71 51.4 1610.22 51.58 1615.26 51.94C1617.42 52.12 1623.18 52.21 1632.54 52.21C1633.62 52.75 1635.6 53.56 1638.48 54.64C1644.6 57.16 1647.66 58.69 1647.66 59.23C1647.66 60.13 1647.93 60.76 1648.47 61.12C1649.19 61.48 1650.18 61.75 1651.44 61.93C1653.42 61.93 1656.93 64.36 1661.97 69.22C1667.19 74.08 1670.79 78.58 1672.77 82.72C1674.39 85.96 1675.47 88.48 1676.01 90.28C1676.73 92.08 1677.09 94.33 1677.09 97.03C1677.09 98.11 1676.91 100.09 1676.55 102.97C1676.19 105.85 1675.74 108.64 1675.2 111.34C1674.66 114.04 1674.03 115.75 1673.31 116.47C1670.43 118.63 1668.99 120.52 1668.99 122.14C1668.99 123.94 1666.38 128.98 1661.16 137.26C1655.94 145.54 1651.35 151.57 1647.39 155.35C1642.71 160.75 1637.13 165.52 1630.65 169.66C1623.09 173.08 1614.54 176.05 1605 178.57C1595.64 181.09 1588.53 182.26 1583.67 182.08C1577.91 182.98 1574.31 183.79 1572.87 184.51C1571.61 185.05 1570.62 186.49 1569.9 188.83C1569 191.35 1568.1 193.87 1567.2 196.39C1566.48 198.91 1566.12 200.62 1566.12 201.52C1565.04 203.5 1562.79 209.53 1559.37 219.61C1556.13 229.69 1553.88 237.43 1552.62 242.83C1551.9 245.17 1550.46 246.97 1548.3 248.23C1546.14 249.67 1544.16 250.39 1542.36 250.39ZM1580.7 160.21C1581.06 160.57 1582.05 160.75 1583.67 160.75C1588.35 160.75 1594.47 159.31 1602.03 156.43C1608.51 154.27 1615.71 150.76 1623.63 145.9C1627.59 143.2 1632.27 138.43 1637.67 131.59C1638.75 129.79 1640.91 125.56 1644.15 118.9C1645.59 116.38 1646.94 113.14 1648.2 109.18C1649.64 105.22 1650.36 101.71 1650.36 98.65C1650.36 97.21 1650.27 96.13 1650.09 95.41C1648.29 86.05 1643.07 79.84 1634.43 76.78C1628.67 75.88 1624.62 75.43 1622.28 75.43C1621.02 75.43 1618.95 75.61 1616.07 75.97C1613.19 76.87 1611.12 78.13 1609.86 79.75C1608.78 81.19 1607.16 84.61 1605 90.01C1599.24 100.99 1595.46 108.91 1593.66 113.77C1590.24 126.01 1587.27 135.46 1584.75 142.12C1582.23 148.6 1580.79 152.38 1580.43 153.46V154.54C1580.43 155.62 1580.34 156.7 1580.16 157.78C1579.98 158.86 1580.16 159.67 1580.7 160.21ZM1683.82 246.07C1682.56 244.27 1680.4 243.01 1677.34 242.29C1674.46 241.75 1669.78 241.66 1663.3 242.02C1659.52 242.56 1655.65 241.93 1651.69 240.13C1647.91 238.33 1646.38 236.26 1647.1 233.92C1647.28 231.58 1649.89 229.24 1654.93 226.9C1660.15 224.38 1666.36 223.03 1673.56 222.85L1684.9 222.58L1687.6 217.18C1688.14 216.1 1688.5 215.02 1688.68 213.94C1688.86 212.68 1689.13 211.6 1689.49 210.7L1691.92 200.98L1695.97 188.02C1701.37 171.64 1704.88 160.12 1706.5 153.46C1707.4 151.3 1708.84 146.98 1710.82 140.5C1712.8 134.02 1714.33 128.71 1715.41 124.57C1723.69 99.19 1727.11 86.32 1725.67 85.96C1723.87 85.78 1719.1 86.14 1711.36 87.04C1703.62 87.76 1699.3 88.39 1698.4 88.93C1697.5 90.19 1695.97 90.01 1693.81 88.39C1691.65 86.77 1690.3 84.97 1689.76 82.99C1689.58 82.45 1689.49 81.55 1689.49 80.29C1689.49 77.77 1690.12 76.15 1691.38 75.43C1693.18 73.81 1697.77 72.01 1705.15 70.03C1712.71 68.05 1719.73 66.61 1726.21 65.71C1729.27 65.35 1732.33 64.72 1735.39 63.82C1738.63 62.74 1741.06 61.48 1742.68 60.04C1746.46 58.78 1749.61 58.24 1752.13 58.42C1753.39 59.32 1756.45 59.77 1761.31 59.77C1765.45 59.77 1768.6 59.68 1770.76 59.5C1775.44 59.14 1778.68 58.96 1780.48 58.96C1791.28 58.96 1797.76 61.48 1799.92 66.52C1800.28 68.32 1800.46 69.67 1800.46 70.57C1800.46 72.91 1799.74 74.8 1798.3 76.24C1797.04 77.68 1795.24 78.31 1792.9 78.13C1789.66 79.03 1783.63 79.57 1774.81 79.75C1762.93 80.83 1756.54 82.09 1755.64 83.53C1754.74 84.43 1754.02 85.24 1753.48 85.96C1753.12 86.68 1752.67 87.4 1752.13 88.12C1752.31 89.74 1750.69 95.59 1747.27 105.67L1742.41 119.98C1737.37 135.64 1734.13 145.27 1732.69 148.87C1731.43 151.93 1730.53 155.08 1729.99 158.32C1728.55 163.18 1727.2 167.86 1725.94 172.36C1724.86 176.68 1723.69 180.82 1722.43 184.78L1711.9 222.31L1728.1 220.96C1738.72 219.88 1745.11 219.34 1747.27 219.34C1749.07 219.34 1750.24 219.52 1750.78 219.88C1751.32 220.24 1751.68 220.87 1751.86 221.77C1752.04 222.49 1752.22 223.03 1752.4 223.39C1754.02 225.55 1754.83 227.62 1754.83 229.6C1754.83 232.84 1752.67 235.45 1748.35 237.43C1744.03 239.41 1738.09 240.31 1730.53 240.13C1722.43 240.49 1715.86 240.76 1710.82 240.94C1705.78 241.3 1702.63 241.75 1701.37 242.29C1700.11 242.83 1699.48 243.73 1699.48 244.99C1699.66 246.61 1699.12 247.87 1697.86 248.77C1696.6 249.85 1694.98 250.39 1693 250.39C1689.58 250.39 1686.52 248.95 1683.82 246.07ZM1924.17 43.84C1928.31 44.38 1931.37 45.46 1933.35 47.08C1935.33 48.52 1936.59 50.32 1937.13 52.48C1937.67 54.46 1938.21 57.52 1938.75 61.66L1935.78 68.95C1928.58 86.95 1922.1 104.23 1916.34 120.79L1906.89 152.92L1903.65 158.59L1897.44 187.21C1895.28 196.39 1893.3 205.21 1891.5 213.67C1889.7 222.13 1888.53 228.25 1887.99 232.03C1887.99 233.83 1887.9 235.27 1887.72 236.35C1887.54 237.43 1887.45 238.51 1887.45 239.59C1885.83 243.37 1885.11 245.8 1885.29 246.88C1885.29 251.56 1884.3 254.62 1882.32 256.06C1880.52 257.5 1876.74 258.22 1870.98 258.22C1867.56 256.24 1864.86 254.26 1862.88 252.28C1861.08 250.48 1859.73 248.23 1858.83 245.53C1859.01 242.47 1859.73 237.79 1860.99 231.49C1861.71 227.17 1862.07 224.74 1862.07 224.2L1865.31 201.52C1865.67 200.8 1866.3 199.72 1867.2 198.28C1868.28 196.84 1869.09 195.85 1869.63 195.31C1870.17 193.33 1870.8 190.36 1871.52 186.4L1872.87 180.46C1873.59 178.12 1874.49 174.34 1875.57 169.12C1876.83 163.9 1877.73 160.12 1878.27 157.78L1875.84 160.48C1873.68 164.44 1869.63 169.93 1863.69 176.95C1860.09 181.63 1857.57 185.05 1856.13 187.21C1853.79 190.81 1839.12 205.21 1812.12 230.41C1807.62 234.91 1803.93 238.42 1801.05 240.94C1797.99 244.18 1795.38 246.16 1793.22 246.88C1791.24 247.6 1787.55 248.14 1782.15 248.5C1775.67 243.28 1772.43 238.42 1772.43 233.92C1772.79 232.66 1773.15 231.4 1773.51 230.14C1773.87 228.7 1774.41 227.71 1775.13 227.17C1775.85 226.45 1776.84 225.64 1778.1 224.74C1780.44 223.3 1785.57 219.16 1793.49 212.32C1801.59 205.3 1807.53 199.99 1811.31 196.39L1825.35 182.35L1839.66 166.69C1835.88 165.25 1832.37 163.63 1829.13 161.83C1825.89 160.03 1823.55 158.23 1822.11 156.43C1814.37 147.79 1810.5 136.81 1810.5 123.49C1810.5 113.77 1812.3 104.59 1815.9 95.95C1817.88 90.73 1819.77 86.86 1821.57 84.34C1823.55 81.64 1826.25 78.58 1829.67 75.16C1832.19 73 1833.99 71.2 1835.07 69.76C1840.29 64 1845.78 59.68 1851.54 56.8C1857.48 53.92 1867.65 50.05 1882.05 45.19C1882.95 45.19 1886.46 44.83 1892.58 44.11C1898.7 43.39 1904.28 43.03 1909.32 43.03C1911.12 43.75 1912.65 44.38 1913.91 44.92C1915.35 45.46 1916.52 45.91 1917.42 46.27C1918.68 45.19 1919.67 44.47 1920.39 44.11C1921.29 43.75 1922.55 43.66 1924.17 43.84ZM1899.87 94.87C1900.59 91.99 1901.94 88.03 1903.92 82.99C1904.46 81.73 1905.27 79.66 1906.35 76.78C1907.43 73.72 1908.42 70.48 1909.32 67.06C1908.78 66.88 1907.79 66.79 1906.35 66.79C1903.11 66.79 1898.79 67.33 1893.39 68.41C1881.69 70.57 1870.53 75.43 1859.91 82.99C1849.29 90.37 1842.18 98.29 1838.58 106.75C1836.78 111.07 1835.52 114.76 1834.8 117.82C1834.08 120.88 1833.81 124.03 1833.99 127.27C1833.99 129.61 1834.17 131.5 1834.53 132.94C1834.89 134.38 1835.52 136.18 1836.42 138.34L1838.58 144.55C1839.3 144.73 1840.65 144.91 1842.63 145.09C1844.79 145.27 1846.32 145.27 1847.22 145.09L1853.7 142.93C1861.62 140.59 1867.56 138.16 1871.52 135.64C1874.76 134.02 1877.73 133.21 1880.43 133.21C1882.77 133.21 1884.66 133.57 1886.1 134.29L1886.91 132.13L1899.87 94.87Z" fill="white"/>
</svg>
