<svg width="1920" height="239" viewBox="0 0 1920 239" fill="none" xmlns="http://www.w3.org/2000/svg">
<path d="M92.38 40.86C95.02 41.5933 97.22 43.1333 98.98 45.48C100.74 47.68 101.62 50.2467 101.62 53.18C101.62 54.3533 101.4 55.6 100.96 56.92C100.667 58.3867 99.7133 60.8067 98.1 64.18C97.66 65.2067 94.8733 71.66 89.74 83.54C84.9 95.1267 81.9667 101.727 80.94 103.34C77.2733 110.82 74.0467 116.76 71.26 121.16C67.74 127.467 62.5333 135.973 55.64 146.68C54.32 148.733 51.5333 152.62 47.28 158.34C43.1733 163.913 40.3133 167.653 38.7 169.56C36.2067 173.227 33.5667 176.6 30.78 179.68C27.9933 182.613 24.18 186.5 19.34 191.34L14.06 196.84C12.74 198.6 10.6867 200.727 7.9 203.22C6.14 205.567 3.94 206.74 1.3 206.74C-0.313331 206.74 -1.92666 206.227 -3.54 205.2C-7.5 202.707 -9.48 199.993 -9.48 197.06C-9.48 196.18 -9.26 195.153 -8.82 193.98C-8.38 192.953 -5.74 189.947 -0.899997 184.96C3.94 179.827 7.97334 175.793 11.2 172.86C17.0667 166.113 20.7333 161.787 22.2 159.88C18.9733 155.627 15.9667 150.64 13.18 144.92C10.54 139.2 8.85334 134.653 8.12 131.28L4.38 111.92C4.52667 111.333 4.6 110.6 4.6 109.72C4.6 108.693 4.52667 107.813 4.38 107.08C4.23334 106.2 4.08667 105.32 3.94 104.44L3.28 65.5L4.82 46.14C4.82 45.8467 4.82 44.7467 4.82 42.84C4.82 40.9333 5.33333 39.1733 6.36 37.56C7.38667 35.9467 9.07333 35.14 11.42 35.14C14.3533 34.7 17.36 35.9467 20.44 38.88C23.52 41.6667 25.06 44.5267 25.06 47.46C25.06 48.4867 24.84 49.44 24.4 50.32C23.96 51.2 23.74 52.08 23.74 52.96V55.6C23.74 57.0667 23.6667 58.24 23.52 59.12C23.2267 62.0533 22.9333 66.16 22.64 71.44C22.4933 76.72 22.42 82.1467 22.42 87.72C22.42 92.12 22.4933 94.98 22.64 96.3L24.62 115.44C24.7667 118.52 25.72 123.287 27.48 129.74C29.3867 136.047 31.22 141.473 32.98 146.02L35.84 142.28C38.04 139.787 39.5067 137.66 40.24 135.9C41.2667 133.553 42.9533 130.547 45.3 126.88C47.06 124.24 48.2333 122.26 48.82 120.94C50.4333 118.007 51.9733 115.367 53.44 113.02C55.4933 109.793 56.8867 107.447 57.62 105.98L71.92 78.92C72.9467 75.5467 74.0467 72.32 75.22 69.24C76.54 65.4267 77.7867 61.3933 78.96 57.14C80.28 52.8867 81.16 49.1467 81.6 45.92C82.48 42.5467 84.46 40.86 87.54 40.86C87.98 40.86 88.64 40.86 89.52 40.86C90.5467 40.7133 91.5 40.7133 92.38 40.86ZM220.291 61.76C220.584 63.2267 220.218 64.5467 219.191 65.72C218.311 66.7467 216.258 68.14 213.031 69.9C206.431 73.1267 202.691 75.5467 201.811 77.16C201.078 77.7467 199.391 78.9933 196.751 80.9C194.258 82.8067 191.104 85.1533 187.291 87.94C181.571 91.7533 176.584 95.3467 172.331 98.72C168.224 102.093 165.511 104.66 164.191 106.42C163.751 106.42 163.164 106.64 162.431 107.08C161.844 107.52 161.331 107.667 160.891 107.52C160.598 107.667 159.938 108.107 158.911 108.84C157.884 109.573 157.151 110.233 156.711 110.82C156.271 111.993 155.538 113.167 154.511 114.34C153.631 115.367 152.531 115.807 151.211 115.66C149.011 116.833 145.198 119.547 139.771 123.8C141.091 134.067 143.878 143.087 148.131 150.86C152.384 160.247 156.711 167.14 161.111 171.54C164.191 174.913 167.051 177.553 169.691 179.46C172.478 181.367 174.604 182.32 176.071 182.32C177.391 182.76 179.224 183.787 181.571 185.4C183.918 187.013 185.164 188.333 185.311 189.36C185.458 189.653 185.531 190.533 185.531 192C185.531 193.907 185.164 195.813 184.431 197.72C183.844 199.773 182.744 201.313 181.131 202.34C179.958 203.513 178.638 204.1 177.171 204.1C175.704 204.1 173.284 203.367 169.911 201.9C167.564 202.047 163.531 199.847 157.811 195.3C152.091 190.753 147.691 186.573 144.611 182.76C140.651 177.04 137.204 171.833 134.271 167.14C131.484 162.447 129.358 157.313 127.891 151.74C127.158 148.22 125.984 144.26 124.371 139.86C123.491 137.073 122.978 135.313 122.831 134.58L122.171 136.34C122.024 136.78 121.071 139.2 119.311 143.6C117.698 148 115.351 155.773 112.271 166.92C109.631 175.573 107.284 182.98 105.231 189.14C103.178 195.153 101.491 199.187 100.171 201.24C98.9978 203.44 97.8244 204.54 96.6511 204.54C95.4778 204.54 94.0111 203.88 92.2511 202.56C87.5578 199.92 85.2111 196.987 85.2111 193.76C85.2111 193.173 85.3578 192.293 85.6511 191.12C85.5044 189.213 85.6511 187.38 86.0911 185.62C86.5311 183.86 86.7511 182.833 86.7511 182.54C87.7778 182.54 88.2911 181.367 88.2911 179.02C88.2911 177.847 88.9511 175.28 90.2711 171.32L92.2511 164.5L94.8911 158.12C96.5044 154.013 97.3111 151.813 97.3111 151.52C97.3111 149.613 98.2644 147.193 100.171 144.26C100.758 142.5 101.271 140.593 101.711 138.54C102.151 136.487 102.371 134.8 102.371 133.48C102.664 132.747 103.471 131.06 104.791 128.42C106.111 125.78 107.064 123.14 107.651 120.5C107.798 119.767 108.018 118.96 108.311 118.08C108.751 117.2 109.191 116.1 109.631 114.78L116.891 94.98L120.191 87.5C120.484 86.7667 121.438 84.4933 123.051 80.68C124.811 76.8667 125.984 74.96 126.571 74.96V72.54C126.571 71.9533 127.378 70.0467 128.991 66.82L131.631 61.54C132.804 59.78 133.684 57.9467 134.271 56.04C135.004 54.1333 135.444 52.8867 135.591 52.3C135.738 52.0067 136.031 51.4933 136.471 50.76C136.911 50.0267 137.424 49.3667 138.011 48.78C139.184 47.9 140.651 47.1667 142.411 46.58C144.318 45.8467 146.004 45.48 147.471 45.48C149.964 45.48 151.651 46.4333 152.531 48.34C154.291 51.86 155.171 54.7933 155.171 57.14C155.171 58.7533 154.731 60.22 153.851 61.54C150.771 67.8467 147.104 75.6933 142.851 85.08C138.598 94.32 135.444 101.653 133.391 107.08L134.931 105.98C138.744 102.167 144.831 97.1067 153.191 90.8L180.251 68.8C184.358 66.7467 189.198 63.52 194.771 59.12C196.238 58.24 197.411 57.4333 198.291 56.7C199.171 55.9667 199.904 55.4533 200.491 55.16C201.371 54.4267 203.131 53.18 205.771 51.42C208.411 49.5133 210.098 48.6333 210.831 48.78C211.858 48.34 213.178 48.9267 214.791 50.54C216.404 52.1533 217.724 54.1333 218.751 56.48C219.924 58.8267 220.438 60.5867 220.291 61.76ZM206.196 204.54C205.462 204.54 204.656 204.247 203.776 203.66C203.042 203.22 202.382 202.56 201.796 201.68C200.622 200.653 199.669 199.407 198.936 197.94C198.202 196.473 197.836 194.273 197.836 191.34C197.836 186.207 199.449 178.8 202.676 169.12C203.702 165.013 204.802 161.053 205.976 157.24C207.002 154.6 207.516 152.62 207.516 151.3C207.516 150.127 207.662 148.807 207.956 147.34C208.396 145.727 208.616 144.627 208.616 144.04C210.376 144.04 211.989 141.033 213.456 135.02C214.042 132.82 214.556 130.987 214.996 129.52C215.436 127.907 215.729 126.66 215.876 125.78C216.169 125.34 216.462 124.68 216.756 123.8C217.196 122.92 217.562 122.113 217.856 121.38C219.029 117.86 220.422 114.487 222.036 111.26C223.796 104.66 225.849 97.7667 228.196 90.58C230.689 83.2467 232.742 77.82 234.356 74.3L236.996 67.7C237.142 67.26 237.436 66.4533 237.876 65.28C238.462 63.96 238.756 63.0067 238.756 62.42C238.756 61.8333 238.536 61.3933 238.096 61.1C237.069 60.3667 236.556 58.9 236.556 56.7C236.556 53.0333 237.949 50.0267 240.736 47.68C242.349 45.7733 244.476 44.4533 247.116 43.72C249.902 42.84 253.202 42.4 257.016 42.4C258.629 42.4 261.489 42.5467 265.596 42.84C267.356 42.9867 272.049 43.06 279.676 43.06C280.556 43.5 282.169 44.16 284.516 45.04C289.502 47.0933 291.996 48.34 291.996 48.78C291.996 49.5133 292.216 50.0267 292.656 50.32C293.242 50.6133 294.049 50.8333 295.076 50.98C296.689 50.98 299.549 52.96 303.656 56.92C307.909 60.88 310.842 64.5467 312.456 67.92C313.776 70.56 314.656 72.6133 315.096 74.08C315.682 75.5467 315.976 77.38 315.976 79.58C315.976 80.46 315.829 82.0733 315.536 84.42C315.242 86.7667 314.876 89.04 314.436 91.24C313.996 93.44 313.482 94.8333 312.896 95.42C310.549 97.18 309.376 98.72 309.376 100.04C309.376 101.507 307.249 105.613 302.996 112.36C298.742 119.107 295.002 124.02 291.776 127.1C287.962 131.5 283.416 135.387 278.136 138.76C271.976 141.547 265.009 143.967 257.236 146.02C249.609 148.073 243.816 149.027 239.856 148.88C235.162 149.613 232.229 150.273 231.056 150.86C230.029 151.3 229.222 152.473 228.636 154.38C227.902 156.433 227.169 158.487 226.436 160.54C225.849 162.593 225.556 163.987 225.556 164.72C224.676 166.333 222.842 171.247 220.056 179.46C217.416 187.673 215.582 193.98 214.556 198.38C213.969 200.287 212.796 201.753 211.036 202.78C209.276 203.953 207.662 204.54 206.196 204.54ZM237.436 131.06C237.729 131.353 238.536 131.5 239.856 131.5C243.669 131.5 248.656 130.327 254.816 127.98C260.096 126.22 265.962 123.36 272.416 119.4C275.642 117.2 279.456 113.313 283.856 107.74C284.736 106.273 286.496 102.827 289.136 97.4C290.309 95.3467 291.409 92.7067 292.436 89.48C293.609 86.2533 294.196 83.3933 294.196 80.9C294.196 79.7267 294.122 78.8467 293.976 78.26C292.509 70.6333 288.256 65.5733 281.216 63.08C276.522 62.3467 273.222 61.98 271.316 61.98C270.289 61.98 268.602 62.1267 266.256 62.42C263.909 63.1533 262.222 64.18 261.196 65.5C260.316 66.6733 258.996 69.46 257.236 73.86C252.542 82.8067 249.462 89.26 247.996 93.22C245.209 103.193 242.789 110.893 240.736 116.32C238.682 121.6 237.509 124.68 237.216 125.56V126.44C237.216 127.32 237.142 128.2 236.996 129.08C236.849 129.96 236.996 130.62 237.436 131.06ZM288.397 199.26C286.783 198.38 285.61 197.573 284.877 196.84C284.29 196.107 283.997 195.153 283.997 193.98C283.997 192.513 284.583 190.46 285.757 187.82C287.077 185.033 289.277 180.707 292.357 174.84C293.237 172.933 294.923 169.56 297.417 164.72C303.723 152.693 306.877 143.82 306.877 138.1C306.73 137.807 306.657 137.367 306.657 136.78C306.657 135.313 307.83 133.993 310.177 132.82C310.617 132.38 312.157 131.133 314.797 129.08C317.583 127.027 319.783 124.68 321.397 122.04C323.303 117.64 325.723 112.8 328.657 107.52C331.59 102.093 336.65 93.2933 343.837 81.12C350.877 68.2133 358.357 56.5533 366.277 46.14C367.743 44.0867 369.357 42.4733 371.117 41.3C373.023 40.1267 374.637 39.54 375.957 39.54C380.503 39.54 385.123 41.3 389.817 44.82C394.657 48.34 397.81 51.86 399.277 55.38C399.863 56.4067 400.157 58.6067 400.157 61.98C400.157 66.5267 399.643 74.2267 398.617 85.08C398.323 86.9867 398.03 89.9933 397.737 94.1C397.297 100.7 396.637 107.74 395.757 115.22C394.143 131.647 392.97 144.48 392.237 153.72C391.503 162.96 391.137 171.613 391.137 179.68C391.137 183.787 391.21 186.793 391.357 188.7V190.24L391.137 195.3C390.257 196.18 388.497 196.62 385.857 196.62C382.923 196.62 379.99 196.107 377.057 195.08C374.123 194.2 372.51 193.1 372.217 191.78C372.07 191.633 371.85 191.487 371.557 191.34C371.263 191.193 371.117 190.533 371.117 189.36L371.337 184.52L371.997 172.2L373.097 138.54L370.237 138.76C367.303 138.76 361.07 139.347 351.537 140.52C342.15 141.693 336.21 142.647 333.717 143.38C332.397 143.38 330.783 144.26 328.877 146.02C326.97 147.78 325.283 150.053 323.817 152.84C323.377 154.307 322.35 156.433 320.737 159.22C319.123 161.86 318.317 163.4 318.317 163.84C317.437 164.427 316.63 165.233 315.897 166.26C315.31 167.14 314.943 167.727 314.797 168.02C314.797 169.633 313.33 173.813 310.397 180.56C307.61 187.16 304.823 192.587 302.037 196.84L296.097 205.2L288.397 199.26ZM340.977 123.58C342.003 123.433 344.057 123.14 347.137 122.7C350.217 122.113 352.93 121.747 355.277 121.6C362.317 119.84 367.157 118.96 369.797 118.96C371.263 118.96 372.29 119.107 372.877 119.4C373.317 119.987 373.757 120.427 374.197 120.72C374.783 120.867 375.15 120.94 375.297 120.94C375.59 119.767 376.763 111.773 378.817 96.96C380.87 82.1467 381.897 73.0533 381.897 69.68C381.897 67.3333 381.823 65.3533 381.677 63.74C381.53 61.98 381.383 60.88 381.237 60.44C379.917 60.44 376.91 63.96 372.217 71C367.523 77.8933 362.977 85.74 358.577 94.54C355.203 100.553 352.857 103.56 351.537 103.56C350.51 104.587 348.31 108.033 344.937 113.9C341.563 119.767 340.243 122.993 340.977 123.58ZM427.16 201.02C426.133 199.553 424.373 198.527 421.88 197.94C419.533 197.5 415.72 197.427 410.44 197.72C407.36 198.16 404.207 197.647 400.98 196.18C397.9 194.713 396.653 193.027 397.24 191.12C397.387 189.213 399.513 187.307 403.62 185.4C407.873 183.347 412.933 182.247 418.8 182.1L428.04 181.88L430.24 177.48C430.68 176.6 430.973 175.72 431.12 174.84C431.267 173.813 431.487 172.933 431.78 172.2L433.76 164.28L437.06 153.72C441.46 140.373 444.32 130.987 445.64 125.56C446.373 123.8 447.547 120.28 449.16 115C450.773 109.72 452.02 105.393 452.9 102.02C459.647 81.34 462.433 70.8533 461.26 70.56C459.793 70.4133 455.907 70.7067 449.6 71.44C443.293 72.0267 439.773 72.54 439.04 72.98C438.307 74.0067 437.06 73.86 435.3 72.54C433.54 71.22 432.44 69.7533 432 68.14C431.853 67.7 431.78 66.9667 431.78 65.94C431.78 63.8867 432.293 62.5667 433.32 61.98C434.787 60.66 438.527 59.1933 444.54 57.58C450.7 55.9667 456.42 54.7933 461.7 54.06C464.193 53.7667 466.687 53.2533 469.18 52.52C471.82 51.64 473.8 50.6133 475.12 49.44C478.2 48.4133 480.767 47.9733 482.82 48.12C483.847 48.8533 486.34 49.22 490.3 49.22C493.673 49.22 496.24 49.1467 498 49C501.813 48.7067 504.453 48.56 505.92 48.56C514.72 48.56 520 50.6133 521.76 54.72C522.053 56.1867 522.2 57.2867 522.2 58.02C522.2 59.9267 521.613 61.4667 520.44 62.64C519.413 63.8133 517.947 64.3267 516.04 64.18C513.4 64.9133 508.487 65.3533 501.3 65.5C491.62 66.38 486.413 67.4067 485.68 68.58C484.947 69.3133 484.36 69.9733 483.92 70.56C483.627 71.1467 483.26 71.7333 482.82 72.32C482.967 73.64 481.647 78.4067 478.86 86.62L474.9 98.28C470.793 111.04 468.153 118.887 466.98 121.82C465.953 124.313 465.22 126.88 464.78 129.52C463.607 133.48 462.507 137.293 461.48 140.96C460.6 144.48 459.647 147.853 458.62 151.08L450.04 181.66L463.24 180.56C471.893 179.68 477.1 179.24 478.86 179.24C480.327 179.24 481.28 179.387 481.72 179.68C482.16 179.973 482.453 180.487 482.6 181.22C482.747 181.807 482.893 182.247 483.04 182.54C484.36 184.3 485.02 185.987 485.02 187.6C485.02 190.24 483.26 192.367 479.74 193.98C476.22 195.593 471.38 196.327 465.22 196.18C458.62 196.473 453.267 196.693 449.16 196.84C445.053 197.133 442.487 197.5 441.46 197.94C440.433 198.38 439.92 199.113 439.92 200.14C440.067 201.46 439.627 202.487 438.6 203.22C437.573 204.1 436.253 204.54 434.64 204.54C431.853 204.54 429.36 203.367 427.16 201.02ZM459.72 28.76C458.4 27.5867 457.3 25.8267 456.42 23.48C455.54 20.9867 455.247 19.3 455.54 18.42C455.98 16.8067 456.787 14.7533 457.96 12.26C459.133 9.61999 460.673 7.49333 462.58 5.88C463.02 5.58666 463.607 4.99999 464.34 4.11999C465.073 3.24 465.807 2.72666 466.54 2.57999C467.86 1.69999 469.107 1.25999 470.28 1.25999C473.213 1.25999 475.927 3.45999 478.42 7.86C479.593 10.5 480.18 12.5533 480.18 14.02C480.18 15.6333 479.667 17.32 478.64 19.08C477.76 20.6933 476.22 22.7467 474.02 25.24C470.94 29.3467 468.007 31.4 465.22 31.4C463.313 31.4 461.48 30.52 459.72 28.76ZM493.82 28.76C492.5 27.5867 491.4 25.8267 490.52 23.48C489.64 20.9867 489.347 19.3 489.64 18.42C490.08 16.8067 490.887 14.7533 492.06 12.26C493.233 9.61999 494.773 7.49333 496.68 5.88C497.12 5.58666 497.707 4.99999 498.44 4.11999C499.173 3.24 499.907 2.72666 500.64 2.57999C501.96 1.69999 503.207 1.25999 504.38 1.25999C507.313 1.25999 510.027 3.45999 512.52 7.86C513.693 10.5 514.28 12.5533 514.28 14.02C514.28 15.6333 513.767 17.32 512.74 19.08C511.86 20.6933 510.32 22.7467 508.12 25.24C505.04 29.3467 502.107 31.4 499.32 31.4C497.413 31.4 495.58 30.52 493.82 28.76ZM511.019 212.02C510.139 211.727 508.379 211.14 505.739 210.26C503.099 209.527 501.266 209.16 500.239 209.16C498.479 208.72 497.013 207.767 495.839 206.3C494.813 204.833 494.299 203.147 494.299 201.24C494.299 200.213 494.373 199.407 494.519 198.82C494.959 198.38 495.326 197.207 495.619 195.3C496.059 193.54 496.279 191.927 496.279 190.46C496.719 189.58 497.086 188.7 497.379 187.82C497.673 186.793 498.039 185.4 498.479 183.64C499.653 177.187 502.366 166.333 506.619 151.08C510.873 135.827 513.513 127.687 514.539 126.66V124.24C514.539 123.8 514.686 122.92 514.979 121.6C515.273 120.28 515.933 118.887 516.959 117.42C517.546 115.66 517.986 113.973 518.279 112.36C518.719 110.6 519.013 109.28 519.159 108.4C519.746 107.667 520.699 105.467 522.019 101.8C523.486 98.1333 524.439 95.7133 524.879 94.54C525.906 91.7533 527.153 88.5267 528.619 84.86C530.233 81.0467 531.333 78.5533 531.919 77.38V76.28C532.213 75.9867 532.946 74.52 534.119 71.88C535.439 69.0933 536.539 66.7467 537.419 64.84C538.446 62.4933 541.159 56.4067 545.559 46.58C545.853 45.9933 546.659 44.3067 547.979 41.52C549.299 38.7333 549.959 36.9733 549.959 36.24C551.426 34.6267 553.039 33.82 554.799 33.82C556.999 33.82 559.053 34.8467 560.959 36.9C563.013 38.8067 564.626 40.86 565.799 43.06L567.999 46.58L559.859 62.42C557.659 66.38 555.679 70.12 553.919 73.64C552.159 77.0133 551.279 78.9933 551.279 79.58C550.839 80.6067 550.033 82.7333 548.859 85.96C547.833 89.1867 546.659 92.8533 545.339 96.96C543.286 102.533 541.599 106.713 540.279 109.5C539.106 111.847 538.519 113.24 538.519 113.68C538.519 113.093 546.659 112.8 562.939 112.8C565.433 112.8 569.979 112.727 576.579 112.58C583.179 112.433 587.359 112.213 589.119 111.92L600.559 110.82L606.719 91.24C608.186 86.1067 611.413 76.1333 616.399 61.32C618.453 55.16 620.799 50.6133 623.439 47.68C626.079 44.6 628.426 43.06 630.479 43.06C631.066 43.06 632.533 43.94 634.879 45.7C637.373 47.3133 638.839 48.7067 639.279 49.88C640.893 51.4933 641.699 53.18 641.699 54.94C641.699 56.9933 640.526 59.8533 638.179 63.52C636.419 66.6 633.926 72.3933 630.699 80.9C629.379 84.86 628.573 87.1333 628.279 87.72C628.279 90.8 627.546 93.0733 626.079 94.54C625.493 95.1267 624.466 97.2533 622.999 100.92C621.533 104.44 620.799 106.493 620.799 107.08C620.799 108.253 620.579 109.573 620.139 111.04C619.699 112.36 619.186 113.313 618.599 113.9L617.059 119.18C611.926 137.807 607.893 150.713 604.959 157.9C604.959 158.633 604.593 159.953 603.859 161.86C603.126 163.767 602.759 165.087 602.759 165.82C602.466 166.847 601.806 168.9 600.779 171.98C599.753 175.06 599.239 176.893 599.239 177.48C598.213 182.027 597.186 187.38 596.159 193.54C595.133 199.7 594.473 204.027 594.179 206.52C591.686 206.813 589.633 206.667 588.019 206.08C586.406 205.493 584.866 204.687 583.399 203.66C581.933 202.78 580.906 202.193 580.319 201.9C576.799 199.993 575.039 197.353 575.039 193.98C575.039 192.073 575.699 189.8 577.019 187.16C577.459 186.427 578.853 181.66 581.199 172.86L583.179 164.72C584.353 161.493 585.379 158.413 586.259 155.48C587.139 152.4 587.946 149.76 588.679 147.56C591.026 139.053 592.493 134.507 593.079 133.92V131.72C592.639 130.987 588.313 130.62 580.099 130.62C571.153 130.62 561.839 131.207 552.159 132.38H538.959H533.239C532.506 133.993 530.379 140.447 526.859 151.74C523.339 162.887 521.359 170 520.919 173.08C519.893 177.92 518.279 184.593 516.079 193.1C513.879 201.753 512.193 208.06 511.019 212.02ZM655.173 206.52C650.626 204.907 646.226 202.56 641.973 199.48C637.866 196.4 634.859 192.513 632.953 187.82C630.606 181.22 629.433 173.447 629.433 164.5C629.433 155.847 629.946 148.513 630.973 142.5C631.999 136.34 633.759 130.107 636.253 123.8L638.233 119.18C640.579 113.167 642.266 109.207 643.293 107.3C645.786 101.58 650.186 94.1733 656.493 85.08C662.359 76.28 666.979 69.7533 670.353 65.5C673.873 61.1 677.466 57.36 681.133 54.28C684.799 51.0533 690.153 47.02 697.193 42.18C701.446 39.1 706.653 37.56 712.813 37.56C717.653 37.56 722.053 38.7333 726.013 41.08C730.119 43.4267 733.199 47.0933 735.253 52.08C736.719 54.5733 737.453 58.02 737.453 62.42C737.453 69.46 735.766 77.0867 732.393 85.3C729.019 93.5133 724.986 99.7467 720.293 104C719.266 105.027 717.873 105.54 716.113 105.54C714.353 105.54 712.446 105.027 710.393 104C708.339 102.973 706.506 101.727 704.893 100.26C703.573 97.7667 702.839 96.3 702.693 95.86C702.546 95.42 702.839 95.1267 703.573 94.98C704.893 93.3667 706.799 90.2867 709.293 85.74C711.933 81.0467 713.693 77.38 714.573 74.74L715.893 68.58C716.773 64.7667 717.213 62.2733 717.213 61.1C717.213 59.78 716.699 58.6067 715.673 57.58C715.233 57.14 714.646 56.92 713.913 56.92C712.739 56.92 710.686 57.6533 707.753 59.12C704.379 60.5867 700.346 63.5933 695.653 68.14C691.106 72.54 686.559 77.82 682.013 83.98C675.266 92.78 670.059 100.04 666.393 105.76C662.873 111.48 660.159 117.273 658.253 123.14L655.833 128.86C655.979 129.447 655.759 130.913 655.173 133.26C654.586 135.607 653.926 137.513 653.193 138.98C651.139 147.487 650.113 155.187 650.113 162.08C650.113 167.507 650.626 172.2 651.653 176.16C652.826 180.12 654.439 183.053 656.493 184.96C657.666 185.987 659.353 186.5 661.553 186.5C663.899 186.5 666.539 185.987 669.473 184.96C672.553 183.787 675.779 182.467 679.153 181C682.526 179.533 684.873 178.507 686.193 177.92C689.566 176.6 692.719 175.06 695.653 173.3C698.733 171.54 701.006 169.927 702.473 168.46C706.286 165.673 709.366 164.28 711.713 164.28C713.619 163.693 715.086 164.28 716.113 166.04C717.286 167.8 717.873 170.22 717.873 173.3C717.873 175.353 716.479 177.847 713.693 180.78C710.906 183.567 707.606 186.06 703.793 188.26C702.179 189.873 698.586 191.78 693.013 193.98C688.319 197.353 682.819 200.36 676.513 203C670.353 205.64 664.706 206.96 659.573 206.96C658.399 206.96 656.933 206.813 655.173 206.52ZM825.939 130.18C826.086 134.14 826.012 137.66 825.719 140.74C825.426 143.673 824.619 146.607 823.299 149.54C819.926 157.607 816.039 164.573 811.639 170.44C807.386 176.16 802.179 181.367 796.019 186.06C792.646 188.847 789.052 191.34 785.239 193.54C781.426 195.74 778.419 197.06 776.219 197.5C772.699 198.82 768.592 199.48 763.899 199.48C759.352 199.48 755.099 198.82 751.139 197.5C747.179 196.327 744.172 194.567 742.119 192.22C741.239 191.34 740.066 190.167 738.599 188.7C737.279 187.087 736.252 185.693 735.519 184.52C734.786 183.2 734.419 181.807 734.419 180.34C734.419 179.46 734.492 178.8 734.639 178.36C735.226 176.893 735.812 174.987 736.399 172.64C737.132 170.293 737.719 168.46 738.159 167.14L762.359 101.58C764.412 96.1533 767.126 89.1133 770.499 80.46C773.872 71.8067 776.512 65.28 778.419 60.88C779.006 59.56 779.739 57.58 780.619 54.94C780.766 54.3533 781.352 52.74 782.379 50.1C783.406 47.3133 784.799 44.82 786.559 42.62C787.292 41.4467 788.319 40.64 789.639 40.2C791.106 39.76 792.572 39.6133 794.039 39.76C797.706 40.4933 800.199 41.52 801.519 42.84C802.986 44.0133 804.306 46.2133 805.479 49.44C804.892 52.3733 804.159 54.8667 803.279 56.92C802.546 58.8267 801.152 61.3933 799.099 64.62C798.806 65.7933 798.439 66.82 797.999 67.7C797.706 68.58 797.412 69.1667 797.119 69.46C794.332 74.74 791.326 81.56 788.099 89.92C789.859 90.2133 792.206 90.8733 795.139 91.9C796.019 92.1933 797.852 92.8533 800.639 93.88C803.426 94.9067 805.919 96.1533 808.119 97.62C810.319 99.0867 812.519 100.993 814.719 103.34C817.946 106.567 820.292 110.087 821.759 113.9C823.226 117.713 824.179 121.16 824.619 124.24C825.206 127.173 825.646 129.153 825.939 130.18ZM797.779 155.04C801.006 149.907 803.279 145.653 804.599 142.28C805.919 138.76 806.579 135.167 806.579 131.5C806.579 128.567 805.992 124.607 804.819 119.62C804.379 118.153 803.792 116.98 803.059 116.1C802.326 115.073 801.226 114.193 799.759 113.46C797.119 111.7 793.379 110.233 788.539 109.06C788.392 109.06 787.586 108.913 786.119 108.62C784.652 108.18 783.259 107.373 781.939 106.2C780.766 108.107 778.859 112.873 776.219 120.5C774.899 124.167 774.019 126.44 773.579 127.32C772.846 128.933 769.326 138.54 763.019 156.14C763.019 156.287 758.912 162.52 750.699 174.84L755.979 178.14C759.792 180.047 762.946 181 765.439 181C767.199 181 768.739 180.633 770.059 179.9C771.526 179.02 773.432 177.627 775.779 175.72C779.446 173.373 783.552 170 788.099 165.6C792.646 161.053 795.872 157.533 797.779 155.04ZM964.94 61.76C965.233 63.2267 964.866 64.5467 963.84 65.72C962.96 66.7467 960.906 68.14 957.68 69.9C951.08 73.1267 947.34 75.5467 946.46 77.16C945.726 77.7467 944.04 78.9933 941.4 80.9C938.906 82.8067 935.753 85.1533 931.94 87.94C926.22 91.7533 921.233 95.3467 916.98 98.72C912.873 102.093 910.16 104.66 908.84 106.42C908.4 106.42 907.813 106.64 907.08 107.08C906.493 107.52 905.98 107.667 905.54 107.52C905.246 107.667 904.586 108.107 903.56 108.84C902.533 109.573 901.8 110.233 901.36 110.82C900.92 111.993 900.186 113.167 899.16 114.34C898.28 115.367 897.18 115.807 895.86 115.66C893.66 116.833 889.846 119.547 884.42 123.8C885.74 134.067 888.526 143.087 892.78 150.86C897.033 160.247 901.36 167.14 905.76 171.54C908.84 174.913 911.7 177.553 914.34 179.46C917.126 181.367 919.253 182.32 920.72 182.32C922.04 182.76 923.873 183.787 926.22 185.4C928.566 187.013 929.813 188.333 929.96 189.36C930.106 189.653 930.18 190.533 930.18 192C930.18 193.907 929.813 195.813 929.08 197.72C928.493 199.773 927.393 201.313 925.78 202.34C924.606 203.513 923.286 204.1 921.82 204.1C920.353 204.1 917.933 203.367 914.56 201.9C912.213 202.047 908.18 199.847 902.46 195.3C896.74 190.753 892.34 186.573 889.26 182.76C885.3 177.04 881.853 171.833 878.92 167.14C876.133 162.447 874.006 157.313 872.54 151.74C871.806 148.22 870.633 144.26 869.02 139.86C868.14 137.073 867.626 135.313 867.48 134.58L866.82 136.34C866.673 136.78 865.72 139.2 863.96 143.6C862.346 148 860 155.773 856.92 166.92C854.28 175.573 851.933 182.98 849.88 189.14C847.826 195.153 846.14 199.187 844.82 201.24C843.646 203.44 842.473 204.54 841.3 204.54C840.126 204.54 838.66 203.88 836.9 202.56C832.206 199.92 829.86 196.987 829.86 193.76C829.86 193.173 830.006 192.293 830.3 191.12C830.153 189.213 830.3 187.38 830.74 185.62C831.18 183.86 831.4 182.833 831.4 182.54C832.426 182.54 832.94 181.367 832.94 179.02C832.94 177.847 833.6 175.28 834.92 171.32L836.9 164.5L839.54 158.12C841.153 154.013 841.96 151.813 841.96 151.52C841.96 149.613 842.913 147.193 844.82 144.26C845.406 142.5 845.92 140.593 846.36 138.54C846.8 136.487 847.02 134.8 847.02 133.48C847.313 132.747 848.12 131.06 849.44 128.42C850.76 125.78 851.713 123.14 852.3 120.5C852.446 119.767 852.666 118.96 852.96 118.08C853.4 117.2 853.84 116.1 854.28 114.78L861.54 94.98L864.84 87.5C865.133 86.7667 866.086 84.4933 867.7 80.68C869.46 76.8667 870.633 74.96 871.22 74.96V72.54C871.22 71.9533 872.026 70.0467 873.64 66.82L876.28 61.54C877.453 59.78 878.333 57.9467 878.92 56.04C879.653 54.1333 880.093 52.8867 880.24 52.3C880.386 52.0067 880.68 51.4933 881.12 50.76C881.56 50.0267 882.073 49.3667 882.66 48.78C883.833 47.9 885.3 47.1667 887.06 46.58C888.966 45.8467 890.653 45.48 892.12 45.48C894.613 45.48 896.3 46.4333 897.18 48.34C898.94 51.86 899.82 54.7933 899.82 57.14C899.82 58.7533 899.38 60.22 898.5 61.54C895.42 67.8467 891.753 75.6933 887.5 85.08C883.246 94.32 880.093 101.653 878.04 107.08L879.58 105.98C883.393 102.167 889.48 97.1067 897.84 90.8L924.9 68.8C929.006 66.7467 933.846 63.52 939.42 59.12C940.886 58.24 942.06 57.4333 942.94 56.7C943.82 55.9667 944.553 55.4533 945.14 55.16C946.02 54.4267 947.78 53.18 950.42 51.42C953.06 49.5133 954.746 48.6333 955.48 48.78C956.506 48.34 957.826 48.9267 959.44 50.54C961.053 52.1533 962.373 54.1333 963.4 56.48C964.573 58.8267 965.086 60.5867 964.94 61.76ZM1086.14 40.64C1089.37 40.3467 1092.01 41.3733 1094.06 43.72C1096.26 46.0667 1097.36 48.78 1097.36 51.86C1097.36 53.18 1097.14 54.4267 1096.7 55.6C1094.8 59.4133 1090.54 69.7533 1083.94 86.62C1077.34 103.34 1070.96 119.693 1064.8 135.68L1048.96 181.44C1048.23 183.493 1046.69 187.307 1044.34 192.88C1042.44 196.253 1041.12 200.067 1040.38 204.32C1039.65 206.813 1038.48 208.867 1036.86 210.48C1035.25 212.24 1033.56 213.12 1031.8 213.12C1031.07 213.12 1030.34 212.9 1029.6 212.46C1022.86 209.967 1019.48 206.007 1019.48 200.58C1019.48 200.14 1019.63 199.187 1019.92 197.72C1019.63 199.627 1021.68 195.153 1026.08 184.3C1030.63 173.3 1034.3 164.06 1037.08 156.58C1047.94 129.447 1053.36 115.367 1053.36 114.34C1055.12 109.793 1056.3 106.567 1056.88 104.66C1058.64 98.94 1060.4 94.3933 1062.16 91.02L1065.9 81.12L988.244 170.88C987.217 171.76 984.357 174.327 979.664 178.58C975.704 182.54 972.624 185.327 970.424 186.94C969.397 187.673 967.637 188.993 965.144 190.9C962.797 192.807 960.671 194.347 958.764 195.52C956.857 196.84 955.317 197.5 954.144 197.5C945.784 196.033 941.604 192.66 941.604 187.38C941.604 185.033 942.191 182.393 943.364 179.46C944.537 176.38 945.271 174.4 945.564 173.52C947.324 167.947 948.424 163.473 948.864 160.1C950.477 153.5 952.751 145.58 955.684 136.34C955.977 135.167 956.711 132.453 957.884 128.2C959.204 123.8 960.011 119.767 960.304 116.1C962.357 112.14 965.144 105.687 968.664 96.74L971.744 88.82C972.331 87.6467 973.651 84.0533 975.704 78.04C977.024 73.4933 978.417 69.68 979.884 66.6L982.084 62.42C984.871 56.9933 986.997 52.5933 988.464 49.22C990.077 45.7 990.957 42.7667 991.104 40.42C991.104 38.5133 991.764 37.12 993.084 36.24C994.404 35.2133 996.017 34.7 997.924 34.7C1000.42 34.7 1002.69 35.4333 1004.74 36.9C1006.8 38.22 1008.12 39.98 1008.7 42.18C1009.29 43.7933 1009.58 45.6267 1009.58 47.68C1009.58 49.5867 1009.29 51.3467 1008.7 52.96L990.444 99.38L970.424 152.18L965.144 165.38L1009.58 120.94C1014.57 115.807 1019.26 110.307 1023.66 104.44C1027.48 99.4533 1031.14 95.0533 1034.66 91.24C1038.18 87.4267 1042.51 82.9533 1047.64 77.82L1052.7 72.54L1080.64 42.84C1082.55 41.3733 1084.38 40.64 1086.14 40.64ZM1019.92 197.5V197.72V197.5ZM1179.71 32.94C1173.84 33.38 1169 31.9867 1165.19 28.76C1161.52 25.5333 1158.3 20.4733 1155.51 13.58C1155.07 12.4067 1154.85 11.38 1154.85 10.5C1154.85 9.03332 1155.36 7.56666 1156.39 6.09999C1157.12 5.07332 1158.22 4.41332 1159.69 4.11999C1161.16 3.67999 1162.48 3.60666 1163.65 3.9C1166.73 4.77999 1169 5.87999 1170.47 7.19999C1172.08 8.37333 1172.89 10.1333 1172.89 12.48C1172.89 13.0667 1173.04 13.6533 1173.33 14.24C1173.77 14.8267 1173.99 15.1933 1173.99 15.34C1174.58 17.3933 1175.75 18.42 1177.51 18.42C1177.8 18.42 1178.54 18.2733 1179.71 17.98C1183.38 16.66 1186.31 15.4867 1188.51 14.46C1190.86 13.2867 1192.98 11.8933 1194.89 10.28C1198.85 6.75999 1202.52 3.89999 1205.89 1.69998C1207.21 0.673323 1208.75 0.306656 1210.51 0.599986C1213.44 1.03999 1214.98 1.69999 1215.13 2.57999L1215.57 3.01999C1216.6 4.63332 1217.11 6.75999 1217.11 9.39999V9.61999C1217.11 10.2067 1216.96 10.94 1216.67 11.82C1216.38 12.5533 1216.01 13.2133 1215.57 13.8C1214.84 15.56 1213.81 17.0267 1212.49 18.2C1211.17 19.3733 1208.9 21.06 1205.67 23.26C1201.86 25.7533 1196.43 28.54 1189.39 31.62C1187.63 32.3533 1185.72 32.7933 1183.67 32.94C1181.76 32.94 1180.44 32.94 1179.71 32.94ZM1220.85 40.64C1224.08 40.3467 1226.72 41.3733 1228.77 43.72C1230.97 46.0667 1232.07 48.78 1232.07 51.86C1232.07 53.18 1231.85 54.4267 1231.41 55.6C1229.5 59.4133 1225.25 69.7533 1218.65 86.62C1212.05 103.34 1205.67 119.693 1199.51 135.68L1183.67 181.44C1182.94 183.493 1181.4 187.307 1179.05 192.88C1177.14 196.253 1175.82 200.067 1175.09 204.32C1174.36 206.813 1173.18 208.867 1171.57 210.48C1169.96 212.24 1168.27 213.12 1166.51 213.12C1165.78 213.12 1165.04 212.9 1164.31 212.46C1157.56 209.967 1154.19 206.007 1154.19 200.58C1154.19 200.14 1154.34 199.187 1154.63 197.72C1154.34 199.627 1156.39 195.153 1160.79 184.3C1165.34 173.3 1169 164.06 1171.79 156.58C1182.64 129.447 1188.07 115.367 1188.07 114.34C1189.83 109.793 1191 106.567 1191.59 104.66C1193.35 98.94 1195.11 94.3933 1196.87 91.02L1200.61 81.12L1122.95 170.88C1121.92 171.76 1119.06 174.327 1114.37 178.58C1110.41 182.54 1107.33 185.327 1105.13 186.94C1104.1 187.673 1102.34 188.993 1099.85 190.9C1097.5 192.807 1095.38 194.347 1093.47 195.52C1091.56 196.84 1090.02 197.5 1088.85 197.5C1080.49 196.033 1076.31 192.66 1076.31 187.38C1076.31 185.033 1076.9 182.393 1078.07 179.46C1079.24 176.38 1079.98 174.4 1080.27 173.52C1082.03 167.947 1083.13 163.473 1083.57 160.1C1085.18 153.5 1087.46 145.58 1090.39 136.34C1090.68 135.167 1091.42 132.453 1092.59 128.2C1093.91 123.8 1094.72 119.767 1095.01 116.1C1097.06 112.14 1099.85 105.687 1103.37 96.74L1106.45 88.82C1107.04 87.6467 1108.36 84.0533 1110.41 78.04C1111.73 73.4933 1113.12 69.68 1114.59 66.6L1116.79 62.42C1119.58 56.9933 1121.7 52.5933 1123.17 49.22C1124.78 45.7 1125.66 42.7667 1125.81 40.42C1125.81 38.5133 1126.47 37.12 1127.79 36.24C1129.11 35.2133 1130.72 34.7 1132.63 34.7C1135.12 34.7 1137.4 35.4333 1139.45 36.9C1141.5 38.22 1142.82 39.98 1143.41 42.18C1144 43.7933 1144.29 45.6267 1144.29 47.68C1144.29 49.5867 1144 51.3467 1143.41 52.96L1125.15 99.38L1105.13 152.18L1099.85 165.38L1144.29 120.94C1149.28 115.807 1153.97 110.307 1158.37 104.44C1162.18 99.4533 1165.85 95.0533 1169.37 91.24C1172.89 87.4267 1177.22 82.9533 1182.35 77.82L1187.41 72.54L1215.35 42.84C1217.26 41.3733 1219.09 40.64 1220.85 40.64ZM1154.63 197.5V197.72V197.5ZM1404.66 166.48C1407.59 167.36 1409.87 169.047 1411.48 171.54C1413.09 173.887 1413.9 176.453 1413.9 179.24C1413.46 185.84 1411.55 193.1 1408.18 201.02C1404.81 208.94 1400.55 217.813 1395.42 227.64L1391.9 235.78C1390.73 236.953 1389.41 237.54 1387.94 237.54C1384.71 237.54 1380.97 234.46 1376.72 228.3C1376.43 226.833 1376.28 225.733 1376.28 225C1376.28 221.92 1377.53 218.18 1380.02 213.78L1384.64 205.2C1385.23 204.027 1386.25 201.973 1387.72 199.04C1389.33 196.107 1390.58 193.613 1391.46 191.56C1392.34 189.36 1392.93 187.453 1393.22 185.84L1363.3 188.7L1362.42 188.26C1362.13 188.26 1361.76 188.333 1361.32 188.48C1360.88 188.627 1360.37 188.773 1359.78 188.92L1345.92 189.36H1343.5C1342.62 189.36 1341.96 189.433 1341.52 189.58C1338.88 190.167 1336.09 190.46 1333.16 190.46C1330.96 190.46 1329.05 190.607 1327.44 190.9L1291.14 194.42L1281.46 195.74C1279.41 202.78 1276.69 213.56 1273.32 228.08L1272 233.14C1271.85 234.607 1271.27 235.633 1270.24 236.22C1269.36 236.953 1267.67 237.687 1265.18 238.42H1261.22C1256.38 238.42 1253.96 235.633 1253.96 230.06C1253.96 228.007 1254.18 226.1 1254.62 224.34L1259.46 206.08L1263.2 189.14L1266.28 180.12L1283.44 176.82C1285.79 176.233 1289.16 173.96 1293.56 170C1297.96 166.04 1301.85 161.713 1305.22 157.02C1312.85 146.607 1318.79 136.56 1323.04 126.88C1327.29 117.2 1332.43 103.267 1338.44 85.08L1343.28 70.34L1344.16 68.8L1346.36 61.54C1345.77 61.3933 1345.11 61.32 1344.38 61.32C1343.65 61.32 1343.06 61.2467 1342.62 61.1C1340.13 60.0733 1338.15 58.3867 1336.68 56.04C1335.36 53.6933 1334.7 51.2 1334.7 48.56C1334.7 46.9467 1334.85 45.7733 1335.14 45.04L1337.78 42.62C1338.51 42.4733 1339.47 42.5467 1340.64 42.84C1341.81 42.9867 1342.91 43.06 1343.94 43.06C1345.55 43.06 1346.8 42.9133 1347.68 42.62L1357.8 41.08C1363.52 40.2 1367.04 39.54 1368.36 39.1C1378.63 38.0733 1386.84 37.4133 1393 37.12C1399.16 36.68 1405.83 36.46 1413.02 36.46C1415.95 36.46 1418.81 37.4133 1421.6 39.32C1424.39 41.2267 1426.07 43.4267 1426.66 45.92C1426.95 51.0533 1423.95 63.52 1417.64 83.32C1411.48 103.12 1405.47 119.767 1399.6 133.26C1397.99 138.247 1394.69 146.973 1389.7 159.44L1385.52 170.22C1385.67 170.22 1387.57 169.56 1391.24 168.24C1395.05 166.773 1398.65 166.04 1402.02 166.04C1402.9 166.04 1403.78 166.187 1404.66 166.48ZM1367.48 169.78C1369.68 160.1 1371.22 153.793 1372.1 150.86C1372.98 147.927 1374.52 144.04 1376.72 139.2L1391.24 100.48L1395.64 87.28C1401.21 71.1467 1404.59 60.5133 1405.76 55.38L1400.48 55.16C1394.32 55.16 1387.94 55.6 1381.34 56.48C1374.74 57.2133 1370.05 58.24 1367.26 59.56L1364.62 67.7C1363.3 71.8067 1359.85 80.7533 1354.28 94.54C1348.71 108.327 1341.96 122.993 1334.04 138.54C1326.27 153.94 1318.49 165.967 1310.72 174.62C1316.44 174.473 1327.07 173.74 1342.62 172.42C1358.31 170.953 1366.6 170.073 1367.48 169.78ZM1468.5 200.58C1464.98 200.287 1461.46 199.187 1457.94 197.28C1454.42 195.373 1451.19 193.393 1448.26 191.34C1445.32 189.287 1443.34 187.893 1442.32 187.16C1439.82 184.667 1437.92 182.027 1436.6 179.24C1435.28 176.307 1434.18 172.493 1433.3 167.8C1433 166.04 1432.86 164.5 1432.86 163.18C1432.86 158.78 1433.59 153.427 1435.06 147.12C1436.67 140.667 1438.28 135.68 1439.9 132.16C1443.12 124.387 1450.24 111.92 1461.24 94.76C1461.82 94.1733 1462.19 93.8067 1462.34 93.66C1462.63 93.3667 1462.7 93.22 1462.56 93.22C1462.56 93.0733 1462.56 93 1462.56 93C1462.56 91.9733 1464.68 87.4267 1468.94 79.36C1471.43 76.72 1472.68 74.4467 1472.68 72.54C1472.68 71.5133 1472.46 70.7067 1472.02 70.12C1471.58 69.5333 1472.16 68.2867 1473.78 66.38C1475.39 64.3267 1477.59 62.1267 1480.38 59.78C1483.31 57.2867 1486.39 55.16 1489.62 53.4C1493.58 50.32 1497.46 48.78 1501.28 48.78C1502.45 48.78 1503.4 49 1504.14 49.44C1505.02 49.7333 1505.53 50.2467 1505.68 50.98C1505.68 51.86 1508.61 51.5667 1514.48 50.1C1517.12 49.5133 1519.02 49.1467 1520.2 49C1520.78 48.2667 1522.25 47.68 1524.6 47.24C1527.09 46.6533 1530.54 46.0667 1534.94 45.48C1537.28 45.6267 1540.14 45.6267 1543.52 45.48C1547.04 45.3333 1549.31 45.1867 1550.34 45.04C1551.36 44.7467 1552.83 45.4067 1554.74 47.02C1556.79 48.6333 1558.4 50.6867 1559.58 53.18C1559.87 54.06 1560.02 54.72 1560.02 55.16C1560.02 57.36 1558.62 59.2667 1555.84 60.88C1553.05 62.3467 1549.02 63.3733 1543.74 63.96C1538.31 64.6933 1533.54 65.4267 1529.44 66.16C1525.33 66.8933 1520.2 67.92 1514.04 69.24L1509.42 70.12C1504.87 70.8533 1501.5 71.8067 1499.3 72.98C1497.1 74.1533 1494.75 76.72 1492.26 80.68C1491.23 81.4133 1489.91 83.32 1488.3 86.4C1486.68 89.3333 1485.07 92.4133 1483.46 95.64L1479.06 101.58C1475.68 106.127 1473.56 109.133 1472.68 110.6C1471.94 111.92 1471.8 112.873 1472.24 113.46C1472.82 113.607 1473.85 113.827 1475.32 114.12C1476.93 114.413 1478.25 114.633 1479.28 114.78C1480.6 114.047 1482.43 113.533 1484.78 113.24C1487.12 112.947 1488.81 112.653 1489.84 112.36L1494.68 111.04C1503.77 108.693 1510.44 107.007 1514.7 105.98C1518.95 104.953 1522.1 104.293 1524.16 104C1524.89 103.413 1525.77 103.12 1526.8 103.12C1528.41 103.12 1529.95 103.927 1531.42 105.54C1533.03 107.007 1534.2 108.767 1534.94 110.82C1535.52 112.873 1535.82 114.193 1535.82 114.78C1535.82 117.273 1534.35 119.18 1531.42 120.5C1528.48 121.673 1522.62 123.287 1513.82 125.34C1501.06 128.42 1493.06 130.4 1489.84 131.28C1480.3 134.067 1473.26 135.46 1468.72 135.46C1464.9 135.46 1463.07 134.213 1463.22 131.72C1461.9 130.987 1460.36 132.307 1458.6 135.68C1456.84 139.053 1455.3 143.233 1453.98 148.22C1452.8 153.207 1452.22 157.533 1452.22 161.2C1452.22 163.107 1452.44 164.72 1452.88 166.04C1454.2 169.56 1456.18 172.567 1458.82 175.06C1461.46 177.407 1465.12 179.24 1469.82 180.56C1470.84 180.707 1472.09 180.853 1473.56 181C1475.17 181.147 1477 181.22 1479.06 181.22C1481.99 181.22 1484.92 180.633 1487.86 179.46C1499.3 177.553 1507.36 174.913 1512.06 171.54C1512.79 171.247 1513.45 170.733 1514.04 170C1514.77 169.267 1515.43 168.9 1516.02 168.9L1515.8 169.34C1515.8 169.487 1516.24 169.193 1517.12 168.46C1518 167.58 1518.95 166.7 1519.98 165.82C1524.08 162.3 1528.63 160.54 1533.62 160.54C1535.38 160.54 1536.84 160.833 1538.02 161.42C1539.34 161.86 1540.07 162.3 1540.22 162.74C1541.1 164.207 1540.66 166.553 1538.9 169.78C1537.14 173.007 1534.35 176.38 1530.54 179.9C1526.87 183.42 1522.76 186.5 1518.22 189.14C1511.03 192.953 1502.96 195.74 1494.02 197.5C1485.22 199.407 1476.71 200.433 1468.5 200.58ZM1679.62 42.62C1679.76 43.06 1680.28 44.0867 1681.16 45.7C1682.04 47.3133 1682.48 48.78 1682.48 50.1C1682.48 51.7133 1681.45 52.74 1679.4 53.18C1679.1 53.9133 1678.52 54.5733 1677.64 55.16C1676.76 55.6 1675.66 55.82 1674.34 55.82C1673.46 55.82 1672.14 55.5267 1670.38 54.94C1669.64 54.6467 1662.97 55.0133 1650.36 56.04C1637.89 57.0667 1628.06 58.02 1620.88 58.9L1618.02 65.06L1606.36 90.8L1603.72 95.64L1611.42 94.76C1615.08 94.32 1619.85 95.0533 1625.72 96.96C1631.73 98.72 1636.06 100.48 1638.7 102.24C1642.66 104.733 1645.88 107.08 1648.38 109.28C1650.87 111.48 1653 114.193 1654.76 117.42C1656.66 121.527 1658.06 125.12 1658.94 128.2C1659.82 131.28 1660.11 134.58 1659.82 138.1C1659.82 139.567 1659.3 142.5 1658.28 146.9C1657.4 151.153 1656.44 154.233 1655.42 156.14C1652.19 161.86 1648.38 167.067 1643.98 171.76C1639.87 176.893 1633.56 181.367 1625.06 185.18C1620.36 187.527 1617.21 188.993 1615.6 189.58C1614.13 190.167 1611.86 190.753 1608.78 191.34L1601.08 193.1C1599.02 194.273 1596.97 195.007 1594.92 195.3C1592.86 195.593 1590.37 195.74 1587.44 195.74C1586.56 195.74 1585.53 195.667 1584.36 195.52C1583.33 195.52 1582.08 195.593 1580.62 195.74C1578.56 195.887 1575.92 195.373 1572.7 194.2C1569.47 193.027 1567.2 191.78 1565.88 190.46C1564.41 188.407 1562.94 185.473 1561.48 181.66C1560.16 177.7 1559.64 175.06 1559.94 173.74L1562.58 155.48L1565 146.02C1564.7 145.287 1565.8 141.253 1568.3 133.92C1570.94 126.44 1572.33 122.407 1572.48 121.82C1573.06 119.327 1573.94 116.687 1575.12 113.9C1576.44 111.113 1577.32 109.207 1577.76 108.18C1580.54 100.7 1582.74 95.0533 1584.36 91.24C1586.12 87.4267 1587 85.52 1587 85.52L1599.32 57.58C1597.7 56.4067 1596.38 54.8667 1595.36 52.96C1594.48 51.0533 1594.04 49.1467 1594.04 47.24C1593.74 44.7467 1595.21 42.62 1598.44 40.86C1602.25 40.5667 1604.96 40.42 1606.58 40.42C1608.19 40.42 1609.51 40.4933 1610.54 40.64L1616.04 40.2C1617.21 40.4933 1618.02 40.64 1618.46 40.64C1619.34 40.64 1620.44 40.42 1621.76 39.98C1624.4 39.54 1628.36 39.1733 1633.64 38.88C1638.92 38.44 1642.88 38.22 1645.52 38.22L1666.86 36.46C1668.62 36.1667 1669.86 36.02 1670.6 36.02C1672.8 36.02 1674.48 36.5333 1675.66 37.56C1676.83 38.5867 1677.71 39.6133 1678.3 40.64C1679.03 41.6667 1679.47 42.3267 1679.62 42.62ZM1598.44 109.72C1595.65 116.467 1592.86 123.58 1590.08 131.06C1586.26 142.5 1583.7 151.08 1582.38 156.8L1578.2 177.04C1579.52 177.04 1581.57 177.04 1584.36 177.04C1587.14 177.04 1589.49 176.747 1591.4 176.16C1598.58 174.107 1603.86 172.567 1607.24 171.54C1610.76 170.367 1614.28 168.753 1617.8 166.7C1621.46 164.5 1624.84 161.713 1627.92 158.34C1631.44 154.233 1634.08 150.493 1635.84 147.12C1637.6 143.747 1638.92 139.787 1639.8 135.24C1639.94 134.8 1640.02 134.067 1640.02 133.04C1640.02 131.867 1639.8 130.327 1639.36 128.42C1638.92 126.367 1638.55 124.607 1638.26 123.14C1637.38 121.233 1636.57 119.987 1635.84 119.4C1635.1 118.667 1634.08 118.08 1632.76 117.64C1631.58 117.053 1630.41 116.467 1629.24 115.88C1626.89 113.827 1622.12 112.507 1614.94 111.92L1598.44 109.72ZM1822.03 54.28C1824.37 55.3067 1826.72 58.02 1829.07 62.42C1831.41 66.82 1832.59 70.7067 1832.59 74.08C1832.59 75.5467 1832.37 76.72 1831.93 77.6L1828.63 100.92C1827.6 107.96 1824.96 116.467 1820.71 126.44C1816.6 136.267 1811.76 145.653 1806.19 154.6C1800.61 163.4 1795.26 169.927 1790.13 174.18C1784.11 179.167 1778.76 183.053 1774.07 185.84C1769.52 188.627 1765.05 190.02 1760.65 190.02C1755.81 190.02 1751.04 188.627 1746.35 185.84C1741.65 182.907 1737.84 179.24 1734.91 174.84C1731.97 170.293 1730.51 165.893 1730.51 161.64C1730.51 159.147 1731.02 156.873 1732.05 154.82C1731.46 154.38 1731.17 153.353 1731.17 151.74C1731.17 148.073 1732.19 142.427 1734.25 134.8C1736.45 127.173 1738.06 122.113 1739.09 119.62C1738.5 119.473 1736.45 119.693 1732.93 120.28C1729.41 120.867 1725.81 121.82 1722.15 123.14C1720.97 123.58 1719.65 124.093 1718.19 124.68C1716.87 125.12 1715.4 125.633 1713.79 126.22C1711 127.247 1708.21 128.273 1705.43 129.3C1702.64 130.18 1700.15 130.693 1697.95 130.84C1696.92 133.48 1695.23 139.787 1692.89 149.76C1690.54 159.587 1689 166.26 1688.27 169.78L1685.41 194.42C1685.41 196.62 1684.75 198.307 1683.43 199.48C1682.11 200.8 1680.35 201.46 1678.15 201.46C1675.51 201.46 1673.01 200.58 1670.67 198.82C1667.88 196.62 1666.49 193.833 1666.49 190.46C1666.49 188.847 1666.63 187.673 1666.93 186.94C1667.66 180.487 1668.91 172.127 1670.67 161.86C1672.43 151.593 1674.26 144.333 1676.17 140.08C1677.34 133.92 1679.54 126.44 1682.77 117.64L1684.97 111.04C1685.26 109.427 1687.75 102.607 1692.45 90.58C1695.38 82.66 1696.85 78.7 1696.85 78.7C1697.58 75.3267 1701.03 67.92 1707.19 56.48C1713.49 44.8933 1718.04 37.9267 1720.83 35.58C1724.49 35.2867 1726.91 35.4333 1728.09 36.02C1729.41 36.46 1730.65 37.34 1731.83 38.66C1733 39.98 1734.03 41.1533 1734.91 42.18C1735.2 43.06 1735.35 43.8667 1735.35 44.6C1735.35 47.3867 1734.39 50.76 1732.49 54.72C1730.58 58.5333 1727.79 63.4467 1724.13 69.46C1720.17 76.06 1717.75 80.46 1716.87 82.66C1715.84 84.86 1714.74 87.1333 1713.57 89.48C1713.13 90.5067 1711.81 93.2933 1709.61 97.84C1707.55 102.24 1706.23 105.76 1705.65 108.4C1705.94 108.693 1706.97 108.547 1708.73 107.96C1710.49 107.227 1711.66 106.787 1712.25 106.64C1717.97 104.44 1721.93 103.34 1724.13 103.34C1727.79 102.607 1730.65 102.24 1732.71 102.24C1737.11 102.24 1740.41 103.707 1742.61 106.64C1743.19 106.64 1743.71 106.2 1744.15 105.32C1744.59 104.293 1745.03 103.193 1745.47 102.02C1746.05 100.407 1746.79 98.5733 1747.67 96.52C1748.55 94.4667 1749.65 92.56 1750.97 90.8L1754.27 85.08C1756.61 80.8267 1759.4 76.06 1762.63 70.78C1766 65.3533 1769.01 60.9533 1771.65 57.58C1776.63 50.98 1783.75 45.7733 1792.99 41.96C1794.89 40.9333 1796.95 40.42 1799.15 40.42C1801.49 40.42 1803.47 41.08 1805.09 42.4C1806.7 43.72 1807.43 45.5533 1807.29 47.9C1808.17 48.1933 1809.71 48.7067 1811.91 49.44C1814.25 50.0267 1816.16 50.6867 1817.63 51.42C1819.24 52.1533 1820.71 53.1067 1822.03 54.28ZM1810.81 97.18C1812.27 93.0733 1813.15 89.04 1813.45 85.08C1813.89 81.12 1814.11 76.28 1814.11 70.56V70.12V69.68C1814.11 68.8 1813.74 67.9933 1813.01 67.26C1812.42 66.5267 1811.83 66.2333 1811.25 66.38C1809.05 66.82 1807.36 67.3333 1806.19 67.92C1805.16 68.36 1803.99 69.0933 1802.67 70.12C1800.61 71.5867 1798.56 72.54 1796.51 72.98L1790.35 68.36C1788.44 69.8267 1786.9 71.22 1785.73 72.54C1784.55 73.86 1783.09 75.7667 1781.33 78.26C1779.13 81.1933 1776.93 84.64 1774.73 88.6C1772.53 92.56 1770.47 96.4467 1768.57 100.26C1762.26 111.993 1757.35 124.9 1753.83 138.98C1751.77 146.607 1750.75 153.207 1750.75 158.78C1750.75 165.673 1752.58 170.073 1756.25 171.98C1757.71 171.833 1759.99 171.173 1763.07 170C1766.15 168.68 1768.35 167.433 1769.67 166.26L1778.69 157.02C1783.09 152.473 1786.46 148.733 1788.81 145.8C1791.15 142.867 1793.94 138.393 1797.17 132.38C1800.1 127.393 1802.01 123.947 1802.89 122.04C1803.77 119.987 1804.65 117.42 1805.53 114.34C1806.99 108.62 1808.75 102.9 1810.81 97.18ZM1951.79 64.4C1951.94 64.9867 1952.01 65.72 1952.01 66.6C1952.01 68.5067 1951.13 69.9 1949.37 70.78C1948.49 71.0733 1946.73 71.66 1944.09 72.54C1941.6 73.2733 1939.55 73.64 1937.93 73.64C1936.61 73.64 1935.59 73.4933 1934.85 73.2C1933.39 71.88 1931.63 70.9267 1929.57 70.34C1927.52 69.7533 1923.27 69.24 1916.81 68.8C1914.91 69.0933 1913.22 69.24 1911.75 69.24C1910.29 69.24 1909.11 69.3133 1908.23 69.46C1907.06 73.2733 1905.59 76.8667 1903.83 80.24C1903.25 83.0267 1902.44 85.52 1901.41 87.72C1900.39 90.6533 1899.95 92.34 1900.09 92.78C1899.65 93.3667 1898.26 97.1067 1895.91 104C1893.57 110.747 1891.37 117.347 1889.31 123.8C1887.85 128.347 1886.75 131.647 1886.01 133.7C1885.28 135.167 1884.33 137.513 1883.15 140.74C1882.13 143.82 1881.39 146.02 1880.95 147.34L1875.45 162.52C1874.28 164.72 1872.81 168.24 1871.05 173.08C1869.44 177.773 1868.12 182.027 1867.09 185.84C1865.48 191.56 1864.01 195.667 1862.69 198.16C1861.52 200.653 1860.49 202.193 1859.61 202.78C1858.73 203.367 1857.49 203.66 1855.87 203.66C1853.53 203.66 1851.47 202.487 1849.71 200.14C1847.95 197.793 1847.07 195.593 1847.07 193.54C1847.07 190.313 1848.17 184.887 1850.37 177.26C1852.72 169.633 1854.92 163.547 1856.97 159C1857.56 156.36 1858.07 154.233 1858.51 152.62C1859.1 151.007 1859.47 149.833 1859.61 149.1C1860.05 148.513 1860.71 146.973 1861.59 144.48C1862.62 141.84 1863.43 139.42 1864.01 137.22C1864.45 134.58 1869 119.84 1877.65 93L1879.19 88.38C1880.51 86.18 1881.76 83.3933 1882.93 80.02C1884.11 79.2867 1884.69 77.7467 1884.69 75.4C1884.69 74.96 1884.91 74.3733 1885.35 73.64C1885.94 72.9067 1886.23 72.3933 1886.23 72.1C1886.38 71.9533 1886.6 71.88 1886.89 71.88C1887.04 71.88 1887.19 71.9533 1887.33 72.1C1887.63 72.1 1888.07 71.8067 1888.65 71.22H1888.43L1877.65 72.32L1872.81 72.76C1864.16 73.4933 1859.25 74.0067 1858.07 74.3L1854.99 74.52C1850.45 74.52 1847.22 73.64 1845.31 71.88C1843.55 69.9733 1842.97 67.8467 1843.55 65.5C1843.99 63.5933 1845.09 62.0533 1846.85 60.88C1848.76 59.7067 1851.84 58.68 1856.09 57.8C1857.41 57.5067 1859.98 57.0667 1863.79 56.48L1869.73 55.38L1877.21 54.5C1885.72 53.18 1894.74 52.3 1904.27 51.86C1908.23 51.7133 1911.53 51.5667 1914.17 51.42C1916.96 51.1267 1918.79 50.9067 1919.67 50.76C1921.73 50.9067 1925.03 51.2733 1929.57 51.86C1934.27 52.4467 1937.64 53.1067 1939.69 53.84C1942.92 54.5733 1945.56 55.8933 1947.61 57.8C1949.67 59.7067 1951.06 61.9067 1951.79 64.4Z" fill="white"/>
</svg>
