<svg aria-hidden="true" style="position: absolute; width: 0; height: 0; overflow: hidden;" version="1.1" xmlns="http://www.w3.org/2000/svg" xmlns:xlink="http://www.w3.org/1999/xlink">
<defs>
<symbol id="icon-wiki" viewBox="0 0 32 32">
<path d="M31.189 4.652h-6.708c-0.446 0-0.811 0.365-0.811 0.812v1.019c0 0.446 0.365 0.811 0.811 0.811h1.7c0.005 0.004-5.141 13.478-5.141 13.478l-2.772-6.234c0 0 3.64-7.224 3.653-7.244h0.767c0.446 0 0.811-0.365 0.811-0.811v-1.019c0-0.446-0.365-0.812-0.811-0.812h-4.983c-0.446 0-0.811 0.365-0.811 0.812v1.019c0 0.446 0.365 0.811 0.811 0.811h0.695c-0.030 0.099-1.679 3.758-1.679 3.758s-1.566-3.507-1.666-3.758h0.174c0.446 0 0.811-0.365 0.811-0.811v-1.019c0-0.446-0.365-0.812-0.812-0.812h-5.288c-0.446 0-0.812 0.365-0.812 0.812v1.019c0 0.446 0.365 0.811 0.812 0.811h0.708c0.138 0.206 3.633 7.864 3.9 8.511l-2.278 4.99c-1.307-3.049-4.442-10.398-5.504-13.244-0.033-0.085-0.062-0.171-0.089-0.257h1.47c0.446 0 0.812-0.365 0.812-0.811v-1.019c0-0.446-0.365-0.812-0.812-0.812h-7.337c-0.446 0-0.812 0.365-0.812 0.812v1.019c0 0.446 0.365 0.811 0.812 0.811h1.278c0.070 0.079 2.918 7.007 4.3 10.248 1.277 2.994 2.598 6.089 3.452 8.305l0.005 0.013c0.15 0.368 0.605 1.487 1.6 1.487 0.854 0 1.389-0.834 1.717-1.461 0.003-0.006 0.006-0.012 0.009-0.017 0.688-1.403 1.93-4.169 2.905-6.367 1.281 3.087 2.178 5.21 2.67 6.32 0.163 0.37 0.657 1.495 1.646 1.495h0c0.961 0 1.476-1.079 1.645-1.434 0.006-0.013 0.012-0.026 0.017-0.039 1.733-4.234 6.822-17.034 6.873-17.163 0.004-0.010 0.008-0.020 0.011-0.030 0.177-0.505 0.412-0.883 0.715-1.154 0.090-0.080 0.204-0.147 0.337-0.203h1.196c0.446 0 0.811-0.365 0.811-0.811v-1.019c0-0.446-0.365-0.812-0.811-0.812z"></path>
</symbol>
<symbol id="icon-fb" viewBox="0 0 32 32">
<path d="M21.329 5.313h2.921v-5.088c-0.504-0.069-2.237-0.225-4.256-0.225-4.212 0-7.097 2.649-7.097 7.519v4.481h-4.648v5.688h4.648v14.312h5.699v-14.311h4.46l0.708-5.688h-5.169v-3.919c0.001-1.644 0.444-2.769 2.735-2.769z"></path>
</symbol>
<symbol id="icon-youtube" viewBox="0 0 32 32">
<path d="M31.292 7.905l0.040 0.261c-0.182-0.665-0.531-1.273-1.014-1.765s-1.082-0.854-1.744-1.051l-0.028-0.007c-2.495-0.677-12.533-0.677-12.533-0.677s-10.013-0.013-12.533 0.677c-0.662 0.192-1.265 0.549-1.751 1.038s-0.839 1.094-1.027 1.757l-0.007 0.028c-0.932 4.868-0.939 10.717 0.041 15.929l-0.041-0.264c0.182 0.665 0.531 1.273 1.014 1.765s1.083 0.854 1.744 1.051l0.028 0.007c2.492 0.679 12.533 0.679 12.533 0.679s10.012 0 12.533-0.679c0.663-0.191 1.265-0.548 1.752-1.037s0.84-1.094 1.027-1.757l0.007-0.028c0.424-2.264 0.667-4.869 0.667-7.531l-0.001-0.295 0.001-0.307c0-2.663-0.243-5.268-0.708-7.795zM12.811 20.868v-9.724l8.355 4.869-8.355 4.855z"></path>
</symbol>
<symbol id="icon-telegram" viewBox="0 0 32 32">
<path d="M12.556 20.241l-0.529 7.445c0.757 0 1.085-0.325 1.479-0.716l3.551-3.393 7.357 5.388c1.349 0.752 2.3 0.356 2.664-1.241l4.829-22.629 0.001-0.001c0.428-1.995-0.721-2.775-2.036-2.285l-28.387 10.868c-1.937 0.752-1.908 1.832-0.329 2.321l7.257 2.257 16.857-10.548c0.793-0.525 1.515-0.235 0.921 0.291l-13.636 12.244z"></path>
</symbol>
</defs>
</svg>
