<svg width="180" height="44" viewBox="0 0 180 44" fill="none" xmlns="http://www.w3.org/2000/svg">
<g clip-path="url(#clip0_37_276)">
<path d="M5.79386 15.8552V22.7468H0.925049V5.54199H5.79386V11.7589H10.2732V5.54199H15.142V22.7468H10.2732V15.8552H5.79386Z" fill="#1F3D88"/>
<path d="M27.314 22.9875C22.1044 22.9875 18.6475 19.4695 18.6475 14.1683C18.6475 8.86705 22.1044 5.30078 27.314 5.30078C32.5236 5.30078 35.9318 8.81885 35.9318 14.1201C35.9318 19.4213 32.4749 22.9875 27.314 22.9875ZM27.314 18.7948C29.5537 18.7948 31.0143 16.9152 31.0143 14.1683C31.0143 11.4213 29.5537 9.54174 27.314 9.54174C25.0744 9.54174 23.5163 11.4213 23.5163 14.1683C23.5163 16.9152 25.0257 18.7948 27.314 18.7948Z" fill="#1F3D88"/>
<path d="M50.6843 13.7348C52.145 14.554 53.07 16.048 53.1187 17.7348C53.1187 20.8191 50.7817 22.7468 47.2275 22.7468H39.3887V5.54199H46.6432C50.1974 5.54199 52.5345 7.4697 52.5345 10.4577C52.5345 11.8071 51.8528 13.0119 50.6843 13.7348ZM46.205 12.289C47.0327 12.2408 47.6657 11.5661 47.617 10.7468C47.5683 9.97573 46.984 9.39741 46.205 9.34922H44.2088V12.289H46.205ZM46.838 18.8432C47.617 18.8432 48.2986 18.2167 48.2986 17.4456C48.2986 17.3974 48.2986 17.3974 48.2986 17.3492C48.3473 16.5299 47.7143 15.8552 46.9353 15.7589C46.8866 15.7589 46.8866 15.7589 46.838 15.7589H44.1601V18.795H46.838V18.8432Z" fill="#1F3D88"/>
<path d="M56.6243 5.54204H61.4931V13.6866L69.8674 5.39746H71.3768V22.7469H66.508V14.1685L58.0362 22.8432H56.6243V5.54204Z" fill="#1F3D88"/>
<path d="M75.6613 5.54193H80.5301V13.6865L88.8558 5.39735H90.3651V22.6986H85.4963V14.1684L77.0733 22.8431H75.6126L75.6613 5.54193ZM82.0881 0.240723C82.0881 1.01181 82.8185 1.39735 83.7435 1.39735C84.6686 1.39735 85.4476 1.01181 85.5937 0.240723L88.1255 0.529879C88.0768 2.98771 86.2753 4.3853 83.8409 4.3853C81.4065 4.3853 79.6537 2.93952 79.605 0.529879L82.0881 0.240723Z" fill="#1F3D88"/>
<path d="M100.492 9.87909C100.346 6.69837 102.927 5.30078 105.994 5.30078C109.451 5.30078 111.788 7.22849 111.788 10.2164C111.788 11.5176 111.155 12.6743 110.084 13.3972C112.031 14.3128 112.81 15.7104 112.81 17.6381C112.81 20.867 110.133 22.9393 106.091 22.9393C102.294 22.9393 100.005 20.9634 100.005 17.108H104.193C104.193 18.4574 105.069 19.2285 106.14 19.2285C107.114 19.2767 107.942 18.5538 107.99 17.6381C107.99 17.5417 107.99 17.4454 107.99 17.349C107.99 16.3851 107.503 15.3731 106.189 15.3731H104.485V11.9032H105.945C106.773 11.9032 107.406 11.2767 107.406 10.4574C107.406 10.4092 107.406 10.361 107.406 10.3128C107.406 9.25259 106.724 8.81885 106.043 8.81885C105.458 8.77066 104.923 9.20439 104.874 9.78271C104.874 9.8309 104.874 9.8309 104.874 9.87909H100.492Z" fill="#1F3D88"/>
<path d="M126.784 22.7466L125.907 20.6261H120.308L119.432 22.7466H114.32V22.4574L121.915 5.30078H124.349L131.896 22.4574V22.7466H126.784ZM124.544 17.108C123.911 15.5176 123.424 13.8791 123.084 12.2405C122.694 13.8791 122.256 15.5176 121.672 17.108H124.544Z" fill="#1F3D88"/>
<path d="M140.952 10.3613L143.338 5.54199H148.596V5.68657L143.922 13.6384L149.229 22.6022V22.6986H143.63L140.952 16.8673H140.855L138.128 22.6986H132.578V22.6022L137.885 13.6384L133.211 5.73476V5.59019H138.42C138.42 5.59019 140.611 9.73476 140.806 10.4095L140.952 10.3613Z" fill="#1F3D88"/>
<path d="M158.09 5.54199H153.173V22.6986H158.09V5.54199Z" fill="#1F3D88"/>
<path d="M162.521 18.9393H164.079L169.727 5.30078H172.161L177.955 18.9393H179.562V24.867H175.326V22.7466H166.757V24.867H162.521V18.9393ZM171.772 15.7104C171.431 14.5538 171.139 13.3972 170.895 12.2405C170.652 13.5417 170.408 14.602 170.116 15.7104L169.045 18.8429H172.843L171.772 15.7104Z" fill="#1F3D88"/>
<path d="M15.1202 30.84C14.373 32.8568 13.4901 34.8736 12.4713 36.8233C10.6375 40.2519 7.64905 42.2687 4.25309 42.2687C2.96262 42.2687 2.14759 42.0671 2.21551 41.6637C2.21551 41.462 2.41927 41.2603 2.69095 41.2603C3.2343 41.2603 3.2343 41.8654 4.11725 41.8654C6.7661 41.8654 8.1924 40.9242 10.0941 38.2351C11.045 36.8905 11.7242 35.1426 12.9467 32.6551H12.8788C11.3846 33.9324 9.75454 35.1426 7.98865 36.151C7.30945 36.5543 6.49442 36.756 5.74731 36.8233C5.3398 36.8233 5.27188 36.5543 5.27188 36.0165C5.27188 35.4787 6.22275 33.5291 6.83402 32.319C7.44529 31.2433 7.85281 30.1004 8.05656 28.8903C8.05656 28.5542 7.98865 28.3525 7.44529 28.3525C6.4265 28.487 5.47563 28.8903 4.6606 29.4282C3.91349 29.8988 3.30222 30.4366 2.69095 31.1089C2.01176 31.9156 2.41927 33.1257 1.4684 33.1257C1.19673 33.1257 0.925049 33.0585 0.925049 32.7896C0.925049 31.445 3.50598 29.4282 4.86436 28.7559C6.49442 27.8819 7.71697 27.2769 9.21119 27.2769C9.9583 27.2769 9.9583 27.8819 9.9583 28.487C9.9583 29.1592 9.27911 30.7727 8.73576 31.9828C8.26032 32.9913 7.85281 34.0669 7.51321 35.0753C7.51321 35.2098 7.58113 35.277 7.85281 35.277C8.05656 35.277 8.32824 35.2098 8.532 35.0753C9.89038 34.5375 12.5392 32.319 13.558 30.9072C13.8297 30.2349 14.1014 29.6298 14.441 29.0248C14.6447 28.6886 14.8485 28.3525 15.1881 28.0836C15.5956 27.8147 16.1389 27.613 16.6144 27.613C16.8181 27.613 16.954 27.7475 16.954 27.9491C16.8181 28.7559 15.7314 29.966 15.1202 30.84Z" fill="#1F8ACC"/>
<path d="M161.826 30.9073C161.282 30.9073 161.011 30.6384 161.011 30.0334C161.011 29.2266 161.486 28.6888 162.709 28.6216C163.252 28.6216 163.388 28.8233 163.388 29.5628C163.388 30.3023 162.777 30.9073 161.826 30.9073ZM57.5018 30.9073C56.8226 30.9073 56.6868 30.5712 56.6868 30.0334C56.6868 29.63 56.8226 29.2939 57.0943 29.025C57.4339 28.756 57.9093 28.6216 58.3168 28.6888C58.8602 28.6888 59.0639 28.8905 59.0639 29.63C59.0639 30.3695 58.5885 30.9073 57.5018 30.9073ZM54.6492 30.9073C53.97 30.9073 53.8342 30.5712 53.8342 30.0334C53.8342 29.63 53.97 29.2939 54.2417 29.025C54.5813 28.756 55.0567 28.6216 55.4642 28.6888C56.0076 28.6888 56.1434 28.8905 56.1434 29.63C56.1434 30.3695 55.8038 30.9073 54.6492 30.9073ZM151.842 40.9916C150.959 41.5294 150.008 41.9328 148.989 42C148.378 42 148.174 41.7311 148.174 41.4622C148.174 40.3193 149.736 38.8403 151.23 37.8318C152.249 37.1596 153.404 36.4873 154.558 36.0167C154.694 35.6805 154.694 35.2772 154.694 34.941C154.694 33.6637 154.015 33.3948 153.268 33.3948C152.521 33.3948 151.434 33.9998 150.008 35.2772C149.396 36.5545 148.378 38.9747 147.291 41.6639C146.272 44.1513 145.253 46.6387 144.846 47.9833C144.846 48.1178 144.778 48.4539 144.778 48.7228C144.642 49.1262 144.37 49.4623 144.031 49.664C143.691 49.8657 143.352 50.0001 142.944 50.0001C142.672 50.0001 142.469 49.7985 142.469 49.5295V49.4623C142.537 48.8573 142.74 48.3194 143.012 47.7816L146.612 39.5126C147.427 37.6302 147.902 36.4873 148.649 34.6049C148.853 33.9326 149.193 33.1931 149.6 32.588C150.008 32.2519 150.483 32.0502 150.959 31.9158C151.094 31.9158 151.162 31.9158 151.162 32.0502C150.959 32.7897 150.687 33.5292 150.347 34.2015H150.483C151.638 33.1931 153.607 32.1847 154.762 32.1847C156.053 32.1847 156.732 32.7225 156.732 34.2015C156.528 36.8234 153.675 39.9159 151.842 40.9916ZM33.5942 40.9916C32.7113 41.5294 31.7604 41.9328 30.7416 42C30.1303 42 29.9266 41.7311 29.9266 41.4622C29.9266 40.3193 31.4887 38.8403 32.983 37.8318C34.0017 37.1596 35.1564 36.4873 36.311 36.0167C36.4468 35.6805 36.4468 35.2772 36.4468 34.941C36.4468 33.6637 35.7676 33.3948 35.0205 33.3948C34.2734 33.3948 33.1867 33.9998 31.7604 35.2772C31.0812 36.5545 30.1303 38.9747 29.0436 41.6639C28.0248 44.1513 27.0061 46.6387 26.5985 47.9833C26.5985 48.1178 26.5306 48.4539 26.5306 48.7228C26.3948 49.1262 26.1231 49.4623 25.7835 49.664C25.4439 49.8657 25.1043 50.0001 24.6968 50.0001C24.4251 50.0001 24.2214 49.7985 24.2214 49.5295V49.4623C24.2893 48.8573 24.4931 48.3194 24.7647 47.7816L28.4324 39.5126C29.2474 37.6302 29.7228 36.4873 30.4699 34.6049C30.6737 33.9326 31.0133 33.1931 31.4208 32.588C31.8283 32.2519 32.3038 32.0502 32.7792 31.9158C32.915 31.9158 32.983 31.9158 32.983 32.0502C32.7792 32.7897 32.5075 33.5292 32.1679 34.2015H32.3038C33.4584 33.1931 35.428 32.1847 36.5827 32.1847C37.8731 32.1847 38.5523 32.7225 38.5523 34.2015C38.3486 36.8234 35.496 39.9159 33.5942 40.9916ZM75.7041 42.0672C74.142 42.0672 73.1911 41.3949 73.1911 39.7142C73.1911 38.2352 74.2778 36.2184 76.1796 34.5377C77.8096 33.0586 80.051 32.2519 80.9339 32.2519C81.4773 32.2519 82.0206 32.3191 82.0206 33.0586C82.0206 33.6637 81.681 34.2687 81.2056 34.6721C80.866 34.941 80.3906 35.0755 79.9151 35.1427C79.8472 35.1427 79.7793 35.0755 79.7114 35.0083L79.983 34.5377C80.1189 34.2688 80.2547 33.9998 80.2547 33.7309C80.2547 33.462 80.1189 33.3276 79.7793 33.3276C77.7417 33.3276 75.3645 36.2856 75.3645 38.9075C75.3645 39.8487 75.5004 41.126 77.1304 41.126C78.0134 41.126 78.8963 40.9243 79.7114 40.6554C80.7302 40.2521 81.7489 39.7142 82.7677 39.1764C82.9036 39.1764 83.1073 39.1764 83.0394 39.4453C83.0394 39.7142 78.9643 42 75.7041 42.0672ZM98.9325 42.5378C97.7099 42.5378 96.6232 42.1344 96.0799 40.1176C95.6045 38.5041 95.5365 37.7646 95.4007 37.294C95.129 37.6302 94.8573 37.9663 94.6536 38.3024C94.2461 39.1092 93.8386 40.0504 93.8386 40.0504C93.7027 40.4537 93.499 40.7899 93.1594 41.126C92.7518 41.3949 92.3443 41.5966 91.8689 41.6639C91.4614 41.6639 91.3935 41.5966 91.3935 41.3949C91.5293 40.9243 91.6651 40.4537 91.9368 40.0504C92.2764 39.2436 92.4802 38.7058 92.8877 37.7646L94.5177 33.9326C94.6536 33.5292 94.8573 33.1259 95.129 32.857C95.6045 32.4536 96.2157 32.2519 96.8949 32.2519C97.0308 32.2519 97.0308 32.3864 97.0308 32.4536C96.8949 32.857 96.7591 33.2603 96.5553 33.6637C96.012 34.8066 95.5365 35.815 95.1969 36.689H95.3328C96.4195 35.6133 97.5741 34.6721 98.8646 33.7982C100.019 32.9914 101.378 32.5208 102.804 32.3864C103.076 32.3864 103.619 32.3864 103.619 32.9242C103.619 33.462 103.008 34.2015 101.174 35.1427L101.038 34.941C101.513 34.6721 101.785 34.2015 101.853 33.6637C101.853 33.5292 101.649 33.3948 101.378 33.3948C100.427 33.5292 99.5438 33.8654 98.7967 34.4032C98.0495 34.8738 97.3024 35.4789 96.6912 36.1511C96.6912 36.1511 96.9628 36.1511 97.0987 36.1511C97.2345 36.1511 97.4383 36.2184 97.5062 36.5545C97.642 37.294 97.9137 38.3697 98.1175 39.2436C98.4571 40.5882 99.1363 41.4622 100.359 41.4622C102.057 41.4622 103.619 40.3865 104.502 39.7815L104.706 40.1176C102.872 41.3277 100.698 42.5378 98.9325 42.5378ZM21.5725 42.5378C20.35 42.5378 19.2633 42.1344 18.7199 40.1176C18.2445 38.5041 18.1766 37.7646 17.9728 37.294C17.7011 37.6302 17.4295 37.9663 17.2257 38.3024C16.8182 39.1092 16.4107 40.0504 16.4107 40.0504C16.2748 40.4537 16.0711 40.7899 15.7315 41.126C15.324 41.3949 14.9164 41.5966 14.441 41.6639C14.0335 41.6639 13.9656 41.5966 13.9656 41.3949C14.1014 40.9243 14.2373 40.4537 14.5089 40.0504C14.8485 39.2436 15.0523 38.7058 15.4598 37.7646L17.0899 33.9326C17.2257 33.5292 17.4295 33.1259 17.7011 32.857C18.1766 32.4536 18.7878 32.2519 19.467 32.2519C19.6029 32.2519 19.6029 32.3864 19.6029 32.4536C19.467 32.857 19.3312 33.2603 19.1274 33.6637C18.5841 34.8066 18.1086 35.815 17.7691 36.689H17.9049C18.9916 35.6133 20.1462 34.6721 21.4367 33.7982C22.5913 32.9914 23.9497 32.5208 25.376 32.3864C25.6477 32.3864 26.191 32.3864 26.191 32.9242C26.191 33.462 25.5798 34.2015 23.7459 35.1427L23.6101 34.941C24.0855 34.6721 24.3572 34.2015 24.4251 33.6637C24.4251 33.5292 24.2214 33.3948 23.9497 33.3948C22.9988 33.5292 22.1159 33.8654 21.3688 34.4032C20.6896 34.8738 20.0104 35.4789 19.3312 36.1511C19.3312 36.1511 19.6029 36.1511 19.7387 36.1511C19.8745 36.1511 20.0783 36.2184 20.1462 36.5545C20.2821 37.294 20.5537 38.3697 20.7575 39.2436C21.0971 40.5882 21.7763 41.4622 22.9988 41.4622C24.6968 41.4622 26.259 40.3865 27.1419 39.7815L27.3457 40.1176C25.5798 41.3277 23.3384 42.5378 21.5725 42.5378ZM174.73 40.9916C173.032 41.7983 172.353 42 171.742 42C171.131 42 171.063 41.6638 171.063 41.4622C171.063 40.7227 172.014 39.2436 172.014 38.9075C172.014 38.773 171.742 38.7058 171.742 38.7058C171.063 39.3781 170.316 40.0504 169.568 40.5882C167.87 41.7983 166.92 41.9328 166.24 41.9328C165.697 42 165.154 41.5966 165.086 41.0588C165.086 40.9916 165.086 40.9243 165.086 40.8571C165.154 40.1176 165.697 39.4453 166.444 39.1764C166.376 39.5126 166.376 40.5882 167.463 40.5882C168.278 40.5882 169.025 40.3193 169.636 39.7815C170.248 39.3781 170.859 38.9075 171.402 38.3697C170.587 37.8991 169.229 37.3612 169.229 35.815C169.229 33.6637 172.489 32.3864 173.644 32.3864C174.798 32.3864 175.274 32.857 175.274 33.6637C175.274 35.4789 172.964 37.4957 172.964 37.4957C173.372 37.6974 173.915 37.7646 173.915 38.3697C173.915 38.9747 173.304 39.7815 173.304 40.2521C173.304 40.4537 173.304 40.7227 173.712 40.7227C174.391 40.7227 175.817 40.0504 177.311 39.2436L177.515 39.5126C176.972 39.7815 175.885 40.3865 174.73 40.9916ZM142.876 40.7899C141.79 41.3949 140.635 41.7983 139.412 42C139.005 42 139.005 41.6638 139.005 41.4622C139.276 40.1848 139.684 38.9747 140.159 37.7646H140.092C139.005 38.8403 138.461 39.1092 136.084 40.8571C135.473 41.2605 134.794 41.5966 134.047 41.7983C133.707 41.7983 133.639 41.6639 133.639 41.3949C133.639 40.9243 134.047 39.9159 134.726 37.8318L135.066 36.8234L134.998 36.7562C134.726 37.0251 133.571 38.3024 132.688 39.2436C130.651 41.2605 129.564 41.5966 128.749 41.5966C127.934 41.5966 127.798 41.126 127.798 40.521C127.866 39.9831 128.07 39.4453 128.409 39.042C128.681 38.773 128.953 38.6386 129.292 38.5714C129.292 38.9075 129.224 40.0504 129.836 40.0504C130.311 40.0504 130.855 40.1176 132.485 38.5714C133.571 37.5629 134.59 36.4201 135.473 35.2099C135.677 34.5377 135.948 33.9326 136.288 33.3276C136.628 32.9914 137.103 32.7897 137.579 32.7897C138.054 32.7897 138.258 32.7225 138.258 33.0586C138.122 33.9998 137.782 34.8738 137.307 35.6805C136.492 37.6302 135.881 39.5125 135.881 39.647C135.881 39.7815 135.813 39.9159 136.016 39.9159C137.782 39.1764 139.344 38.1008 140.567 36.6217C141.11 35.4789 141.654 33.5292 142.401 32.857C142.808 32.5208 143.352 32.3864 143.827 32.4536C144.167 32.4536 144.167 32.7225 144.167 32.9914C144.167 33.7982 143.148 35.3444 142.672 35.9495C142.061 37.3612 141.586 38.8403 141.246 40.3193C141.246 40.5882 141.11 40.8571 141.654 40.8571C142.401 40.8571 144.167 39.8487 145.661 39.042L145.865 39.3109C145.118 39.5798 143.759 40.3193 142.876 40.7899ZM162.437 40.6554C159.856 42 158.633 42.2017 158.158 42.2017C157.275 42.2017 157.207 41.5966 157.207 41.1933C157.343 40.2521 157.615 39.3781 157.954 38.5041C158.701 36.6217 159.448 34.6721 160.06 33.2603C160.264 32.857 160.603 32.588 161.011 32.5208C161.282 32.4536 161.622 32.3864 161.962 32.3864C162.097 32.3864 162.165 32.4536 162.165 32.588C162.165 32.7225 161.554 34.1343 161.146 35.2099C160.399 37.1596 159.245 39.8487 159.245 40.3193C159.245 40.7899 159.245 41.0588 159.72 41.0588C161.146 41.0588 165.018 38.7058 166.172 37.8318L166.24 38.3024C165.154 39.042 163.592 40.0504 162.437 40.6554ZM52.4758 42.2017C51.5928 42.2017 51.457 41.6639 51.457 41.1933C51.5249 40.3193 51.7966 39.4453 52.1362 38.6386C52.9512 36.4873 53.7662 34.6049 54.3096 33.2603C54.5133 32.9242 54.8529 32.6553 55.2605 32.5208C55.5321 32.3864 55.8717 32.3864 56.2113 32.3864C56.3472 32.3864 56.4151 32.4536 56.4151 32.588C56.4151 32.7225 55.8717 33.9998 55.3963 35.2099C54.5133 37.294 53.4266 39.647 53.4266 40.3865C53.4266 40.7227 53.4266 40.9916 53.97 40.9916C55.3284 40.9916 58.0451 39.7815 60.1506 38.5714L60.2865 38.8403C56.3472 41.5294 53.2229 42.2017 52.4758 42.2017ZM69.7272 41.0588C68.6405 41.5966 67.4859 42 66.3313 42.2689C65.9238 42.2689 65.8558 42.0672 65.8558 41.7983C66.1275 40.6554 66.4671 39.5125 66.8746 38.4369C67.0105 38.1008 67.418 37.0251 67.418 37.0251C66.4671 37.5629 65.4483 37.9663 64.3616 38.2352C63.8862 38.3697 63.4108 38.4369 62.9353 38.4369C62.7995 39.1092 62.2561 40.7899 61.6449 41.3277C61.3053 41.6639 60.8298 41.8655 60.3544 41.8655C59.811 41.8655 59.811 41.7311 59.811 41.3277C60.0148 40.6554 60.2186 39.9831 60.4902 39.3781L60.8977 38.3024C60.694 38.1008 60.694 38.1008 60.694 37.7646C60.694 37.4285 61.1015 37.2268 61.5769 37.1596L61.7807 36.689C62.324 35.5461 62.7995 34.1343 63.207 33.6637C63.6145 33.0586 64.2937 32.7225 65.0408 32.6553C65.1767 32.6553 65.1767 32.7225 65.1767 32.857C65.1767 32.9914 64.7012 33.8654 64.4295 34.5377C63.9541 35.6805 63.2749 37.3612 63.2749 37.3612C63.6824 37.3612 64.0899 37.3612 64.4975 37.294C66.3992 37.0923 67.3501 36.4873 67.5538 36.2856C67.7576 35.8822 67.7576 35.815 67.9613 35.3444C68.1651 34.5377 68.5726 33.7309 69.1839 33.1259C69.4556 32.9242 69.7272 32.7225 69.9989 32.6553C70.2027 32.588 70.4064 32.5208 70.6781 32.5208C70.8819 32.5208 71.0856 32.588 71.0856 32.857C71.0856 33.5965 70.4064 34.7393 69.3197 36.0839C68.7085 37.4285 68.233 38.9075 67.8934 40.3865C67.8934 40.5882 67.8934 40.8571 68.1651 40.8571C69.3197 40.8571 70.8819 39.9831 72.3761 39.1764L72.5798 39.4453C71.7648 40.0504 70.8139 40.5882 69.7272 41.0588ZM89.4238 39.7815C88.2013 40.9916 86.707 42.2017 84.6015 42.2017C83.9903 42.2017 83.4469 41.7311 83.379 41.126V41.0588C83.379 40.1848 83.6507 39.3109 84.3978 37.6974C85.0091 36.5545 85.6883 35.4116 86.4354 34.4032C87.1146 33.5965 88.0654 32.7225 88.6767 32.7225C88.8125 32.7225 89.0163 32.7897 89.0163 32.9242C89.0163 33.0586 88.5409 33.6637 88.0654 34.2688C87.5221 35.0755 87.1146 35.9495 86.707 36.8907C87.3862 36.3528 88.2692 36.0167 89.1521 36.0167C90.1709 36.0167 90.7143 36.3528 90.7143 37.294C90.6464 38.168 90.103 39.1092 89.4238 39.7815ZM111.633 42.3361C111.158 42.3361 110.886 41.9328 110.886 41.4622C110.886 40.7899 111.022 40.1176 111.226 39.4453H111.158C109.732 40.9243 107.966 41.9328 106.675 41.9328C105.385 41.9328 105.181 41.1933 105.181 40.1176C105.385 38.1008 106.336 36.2856 107.898 34.941C109.46 33.5292 111.43 32.7225 113.535 32.7225C114.146 32.7225 115.709 32.9914 115.709 33.8654C115.709 34.4704 115.505 34.6049 114.894 35.1427C114.622 35.7478 114.282 36.1511 113.943 37.0251C113.399 38.1008 112.992 39.2436 112.652 40.3865C112.652 40.9916 112.856 41.126 113.128 41.126C114.282 41.126 115.912 39.9831 117.339 39.042L117.542 39.3109C116.048 40.3193 112.856 42.3361 111.633 42.3361ZM45.2763 42.3361C44.8009 42.3361 44.5292 41.9328 44.5292 41.4622C44.5292 40.7899 44.6651 40.1176 44.8688 39.4453H44.8009C43.3746 40.9243 41.6087 41.9328 40.3182 41.9328C39.0278 41.9328 38.824 41.1933 38.824 40.1176C39.0278 38.1008 39.9786 36.2856 41.5408 34.941C43.1029 33.5292 45.0726 32.7225 47.1781 32.7225C47.7893 32.7225 49.3515 32.9914 49.3515 33.8654C49.3515 34.4704 49.1477 34.6049 48.5365 35.1427C48.2648 35.7478 47.9252 36.1511 47.5856 37.0251C47.0422 38.1008 46.6347 39.2436 46.2951 40.3865C46.2951 40.9916 46.4989 41.126 46.7706 41.126C47.9252 41.126 49.5552 39.9831 51.0495 39.042L51.2532 39.3109C49.759 40.3193 46.4989 42.3361 45.2763 42.3361ZM172.964 33.1259C171.81 33.1259 170.927 33.9998 170.859 35.0755V35.1427C170.859 36.2856 171.266 36.6217 172.421 37.294C173.304 36.5545 173.779 35.4789 173.915 34.336C173.915 33.3276 173.236 33.1259 172.964 33.1259ZM112.788 33.462C111.09 33.462 109.935 33.9998 108.509 35.815C107.762 36.8907 107.287 38.168 107.083 39.5126C107.083 40.3865 107.558 40.6554 108.034 40.6554C109.12 40.6554 110.615 39.7815 111.769 37.7646C112.245 36.8906 112.448 36.1511 112.788 35.5461C112.992 35.0755 113.671 34.1343 114.146 34.1343C114.011 33.7309 113.06 33.462 112.788 33.462ZM46.431 33.462C44.733 33.462 43.5783 33.9998 42.152 35.815C41.4049 36.8907 40.8616 38.168 40.7257 39.5126C40.7257 40.3865 41.2012 40.6554 41.6766 40.6554C42.7633 40.6554 44.2575 39.7815 45.4122 37.7646C45.8876 36.8906 46.0914 36.1511 46.431 35.5461C46.6347 35.0755 47.3139 34.1343 47.7893 34.1343C47.7214 33.7309 46.7026 33.462 46.431 33.462ZM151.366 38.3697C150.551 39.1092 149.668 39.9159 149.668 40.7899C149.668 40.9916 149.872 41.126 150.347 41.126C150.959 41.126 151.502 40.8571 151.909 40.4537C153.064 39.4453 153.879 38.168 154.287 36.689C153.268 37.0923 152.249 37.6302 151.366 38.3697ZM33.1188 38.3697C32.3038 39.1092 31.4208 39.9159 31.4208 40.7899C31.4208 40.9916 31.6246 41.126 32.1 41.126C32.7113 41.126 33.2546 40.8571 33.6621 40.4537C34.8168 39.4453 35.6318 38.168 36.0393 36.689C35.0205 37.0923 34.1376 37.6302 33.1188 38.3697ZM86.4354 37.294C85.892 38.2352 85.5524 39.3109 85.4845 40.4537C85.4845 40.9243 85.7562 41.1933 86.4354 41.1933C87.4542 41.1933 88.8125 39.5798 88.8125 38.3697C88.8805 37.1596 87.59 36.8234 86.4354 37.294Z" fill="#1F8ACC"/>
</g>
<defs>
<clipPath id="clip0_37_276">
<rect width="180" height="44" fill="white"/>
</clipPath>
</defs>
</svg>
